Lack-Italic.ufo
<glyph name="exclam" format="1">
  <advance width="340"/>
  <unicode hex="0021"/>
  <note>
    exclam
  </note>
  <outline>
    <contour>
      <point x="113" y="261" type="line"/>
      <point x="230" y="261" type="line"/>
      <point x="331" y="699" type="line"/>
      <point x="214" y="699" type="line"/>
    </contour>
    <contour>
      <point x="109" y="-7" type="curve" smooth="yes"/>
      <point x="153" y="-7"/>
      <point x="197" y="27"/>
      <point x="207" y="73" type="curve" smooth="yes"/>
      <point x="217" y="117"/>
      <point x="190" y="153"/>
      <point x="146" y="153" type="curve" smooth="yes"/>
      <point x="100" y="153"/>
      <point x="57" y="117"/>
      <point x="47" y="73" type="curve" smooth="yes"/>
      <point x="37" y="27"/>
      <point x="63" y="-7"/>
    </contour>
  </outline>
</glyph>
<glyph name="quotedbl" format="1">
  <advance width="365"/>
  <unicode hex="0022"/>
  <note>
    quotedbl
  </note>
  <outline>
    <contour>
      <point x="277" y="452" type="line"/>
      <point x="354" y="452" type="line"/>
      <point x="426" y="698" type="line"/>
      <point x="317" y="698" type="line"/>
    </contour>
    <contour>
      <point x="101" y="452" type="line"/>
      <point x="178" y="452" type="line"/>
      <point x="250" y="698" type="line"/>
      <point x="141" y="698" type="line"/>
    </contour>
  </outline>
</glyph>
<glyph name="numbersign" format="1">
  <advance width="704"/>
  <unicode hex="0023"/>
  <note>
    numbersign
  </note>
  <outline>
    <contour>
      <point x="-4" y="-2" type="line"/>
      <point x="113" y="-2" type="line"/>
      <point x="230" y="188" type="line"/>
      <point x="331" y="188" type="line"/>
      <point x="214" y="-2" type="line"/>
      <point x="331" y="-2" type="line"/>
      <point x="448" y="188" type="line"/>
      <point x="625" y="188" type="line"/>
      <point x="648" y="290" type="line"/>
      <point x="511" y="290" type="line"/>
      <point x="563" y="373" type="line"/>
      <point x="710" y="373" type="line"/>
      <point x="734" y="475" type="line"/>
      <point x="626" y="475" type="line"/>
      <point x="733" y="649" type="line"/>
      <point x="616" y="649" type="line"/>
      <point x="509" y="475" type="line"/>
      <point x="408" y="475" type="line"/>
      <point x="515" y="649" type="line"/>
      <point x="398" y="649" type="line"/>
      <point x="291" y="475" type="line"/>
      <point x="117" y="475" type="line"/>
      <point x="93" y="373" type="line"/>
      <point x="228" y="373" type="line"/>
      <point x="176" y="290" type="line"/>
      <point x="31" y="290" type="line"/>
      <point x="8" y="188" type="line"/>
      <point x="116" y="188" type="line"/>
    </contour>
    <contour>
      <point x="293" y="290" type="line"/>
      <point x="345" y="373" type="line"/>
      <point x="446" y="373" type="line"/>
      <point x="394" y="290" type="line"/>
    </contour>
  </outline>
</glyph>
<glyph name="dollar" format="1">
  <advance width="582"/>
  <unicode hex="0024"/>
  <note>
    dollar
  </note>
  <outline>
    <contour>
      <point x="158" y="-83" type="line"/>
      <point x="267" y="-83" type="line"/>
      <point x="296" y="42" type="line"/>
      <point x="187" y="42" type="line"/>
    </contour>
    <contour>
      <point x="352" y="625" type="line"/>
      <point x="461" y="625" type="line"/>
      <point x="489" y="750" type="line"/>
      <point x="380" y="750" type="line"/>
    </contour>
    <component base="S"/>
  </outline>
</glyph>
<glyph name="ampersand" format="1">
  <advance width="709"/>
  <unicode hex="0026"/>
  <outline>
    <contour>
      <point x="206" y="-15" type="curve" smooth="yes"/>
      <point x="288" y="-15"/>
      <point x="362" y="11"/>
      <point x="428" y="62" type="curve"/>
      <point x="446" y="41"/>
      <point x="461" y="16"/>
      <point x="473" y="0" type="curve"/>
      <point x="609" y="0" type="line"/>
      <point x="512" y="131" type="line"/>
      <point x="584" y="193" type="line"/>
      <point x="610" y="308" type="line"/>
      <point x="467" y="191" type="line"/>
      <point x="421" y="257" type="line"/>
      <point x="361" y="343" type="line"/>
      <point x="464" y="399"/>
      <point x="535" y="471"/>
      <point x="550" y="534" type="curve" smooth="yes"/>
      <point x="572" y="633"/>
      <point x="522" y="695"/>
      <point x="407" y="695" type="curve" smooth="yes"/>
      <point x="290" y="695"/>
      <point x="205" y="630"/>
      <point x="179" y="517" type="curve" smooth="yes"/>
      <point x="167" y="465"/>
      <point x="178" y="420"/>
      <point x="212" y="359" type="curve"/>
      <point x="99" y="307"/>
      <point x="38" y="251"/>
      <point x="20" y="172" type="curve" smooth="yes"/>
      <point x="6" y="113"/>
      <point x="17" y="67"/>
      <point x="51" y="34" type="curve" smooth="yes"/>
      <point x="87" y="1"/>
      <point x="138" y="-15"/>
    </contour>
    <contour>
      <point x="242" y="80" type="curve" smooth="yes"/>
      <point x="165" y="80"/>
      <point x="118" y="110"/>
      <point x="132" y="171" type="curve" smooth="yes"/>
      <point x="144" y="226"/>
      <point x="192" y="270"/>
      <point x="250" y="295" type="curve"/>
      <point x="379" y="126" type="line"/>
      <point x="344" y="102"/>
      <point x="298" y="80"/>
    </contour>
    <contour>
      <point x="322" y="402" type="curve"/>
      <point x="288" y="451"/>
      <point x="282" y="484"/>
      <point x="292" y="525" type="curve" smooth="yes"/>
      <point x="302" y="569"/>
      <point x="334" y="600"/>
      <point x="385" y="600" type="curve" smooth="yes"/>
      <point x="436" y="600"/>
      <point x="455" y="570"/>
      <point x="445" y="525" type="curve" smooth="yes"/>
      <point x="435" y="482"/>
      <point x="394" y="441"/>
    </contour>
  </outline>
</glyph>
<glyph name="quotesingle" format="1">
  <advance width="223"/>
  <unicode hex="0027"/>
  <note>
    quotesingle
  </note>
  <outline>
    <contour>
      <point x="63" y="402" type="line"/>
      <point x="150" y="402" type="line"/>
      <point x="294" y="698" type="line"/>
      <point x="165" y="698" type="line"/>
    </contour>
  </outline>
</glyph>
<glyph name="parenleft" format="1">
  <advance width="368"/>
  <unicode hex="0028"/>
  <note>
    parenleft
  </note>
  <outline>
    <contour>
      <point x="90" y="-124" type="curve"/>
      <point x="209" y="-124" type="line"/>
      <point x="209" y="-124"/>
      <point x="148" y="104"/>
      <point x="199" y="324" type="curve" smooth="yes"/>
      <point x="250" y="545"/>
      <point x="408" y="750"/>
      <point x="408" y="750" type="curve" smooth="yes"/>
      <point x="291" y="750" type="line" smooth="yes"/>
      <point x="291" y="750"/>
      <point x="136" y="545"/>
      <point x="85" y="324" type="curve" smooth="yes"/>
      <point x="34" y="104"/>
      <point x="90" y="-124"/>
    </contour>
  </outline>
</glyph>
<glyph name="parenright" format="1">
  <advance width="358"/>
  <unicode hex="0029"/>
  <note>
    parenright
  </note>
  <outline>
    <contour>
      <point x="-17" y="-124" type="curve"/>
      <point x="92" y="-124" type="line"/>
      <point x="92" y="-124"/>
      <point x="252" y="104"/>
      <point x="303" y="324" type="curve" smooth="yes"/>
      <point x="354" y="545"/>
      <point x="293" y="750"/>
      <point x="293" y="750" type="curve" smooth="yes"/>
      <point x="186" y="750" type="line" smooth="yes"/>
      <point x="186" y="750"/>
      <point x="250" y="545"/>
      <point x="199" y="324" type="curve" smooth="yes"/>
      <point x="148" y="104"/>
      <point x="-17" y="-124"/>
    </contour>
  </outline>
</glyph>
<glyph name="asterisk" format="1">
  <advance width="427"/>
  <unicode hex="002A"/>
  <outline>
    <contour>
      <point x="194" y="342" type="line"/>
      <point x="271" y="342" type="line"/>
      <point x="293" y="466" type="line"/>
      <point x="380" y="398" type="line"/>
      <point x="435" y="465" type="line"/>
      <point x="336" y="520" type="line"/>
      <point x="460" y="575" type="line"/>
      <point x="437" y="643" type="line"/>
      <point x="318" y="574" type="line"/>
      <point x="353" y="698" type="line"/>
      <point x="276" y="698" type="line"/>
      <point x="255" y="575" type="line"/>
      <point x="168" y="643" type="line"/>
      <point x="113" y="575" type="line"/>
      <point x="211" y="520" type="line"/>
      <point x="88" y="465" type="line"/>
      <point x="111" y="397" type="line"/>
      <point x="230" y="465" type="line"/>
    </contour>
  </outline>
</glyph>
<glyph name="plus" format="1">
  <advance width="677"/>
  <unicode hex="002B"/>
  <note>
    plus
  </note>
  <outline>
    <contour>
      <point x="243" y="100" type="line"/>
      <point x="360" y="100" type="line"/>
      <point x="407" y="303" type="line"/>
      <point x="615" y="303" type="line"/>
      <point x="639" y="406" type="line"/>
      <point x="431" y="406" type="line"/>
      <point x="478" y="609" type="line"/>
      <point x="361" y="609" type="line"/>
      <point x="314" y="406" type="line"/>
      <point x="106" y="406" type="line"/>
      <point x="82" y="303" type="line"/>
      <point x="290" y="303" type="line"/>
    </contour>
  </outline>
</glyph>
<glyph name="comma" format="1">
  <advance width="333"/>
  <unicode hex="002C"/>
  <note>
    comma
  </note>
  <outline>
    <contour>
      <point x="-75" y="-151" type="line"/>
      <point x="27" y="-151" type="line"/>
      <point x="208" y="105" type="line"/>
      <point x="75" y="105" type="line"/>
    </contour>
  </outline>
</glyph>
<glyph name="hyphen" format="1">
  <advance width="514"/>
  <unicode hex="002D"/>
  <note>
    hyphen
  </note>
  <outline>
    <contour>
      <point x="68" y="244" type="line"/>
      <point x="440" y="244" type="line"/>
      <point x="463" y="346" type="line"/>
      <point x="91" y="346" type="line"/>
    </contour>
  </outline>
</glyph>
<glyph name="period" format="1">
  <advance width="320"/>
  <unicode hex="002E"/>
  <note>
    period
  </note>
  <outline>
    <contour>
      <point x="99" y="-7" type="curve" smooth="yes"/>
      <point x="143" y="-7"/>
      <point x="187" y="27"/>
      <point x="197" y="73" type="curve" smooth="yes"/>
      <point x="207" y="117"/>
      <point x="180" y="153"/>
      <point x="136" y="153" type="curve" smooth="yes"/>
      <point x="90" y="153"/>
      <point x="47" y="117"/>
      <point x="37" y="73" type="curve" smooth="yes"/>
      <point x="27" y="27"/>
      <point x="53" y="-7"/>
    </contour>
  </outline>
</glyph>
<glyph name="slash" format="1">
  <advance width="455"/>
  <unicode hex="002F"/>
  <note>
    slash
  </note>
  <outline>
    <contour>
      <point x="-73" y="-57" type="line"/>
      <point x="54" y="-57" type="line"/>
      <point x="557" y="700" type="line"/>
      <point x="430" y="700" type="line"/>
    </contour>
  </outline>
</glyph>
<glyph name="six" format="1">
  <advance width="606"/>
  <unicode hex="0036"/>
  <note>
    six
  </note>
  <outline>
    <contour>
      <point x="240" y="-14" type="curve" smooth="yes"/>
      <point x="369" y="-14"/>
      <point x="496" y="86"/>
      <point x="525" y="210" type="curve" smooth="yes"/>
      <point x="552" y="327"/>
      <point x="482" y="423"/>
      <point x="367" y="434" type="curve"/>
      <point x="615" y="679" type="line"/>
      <point x="481" y="679" type="line"/>
      <point x="159" y="365" type="line"/>
      <point x="109" y="315"/>
      <point x="73" y="270"/>
      <point x="59" y="210" type="curve" smooth="yes"/>
      <point x="30" y="86"/>
      <point x="111" y="-14"/>
    </contour>
    <contour>
      <point x="264" y="91" type="curve" smooth="yes"/>
      <point x="195" y="91"/>
      <point x="157" y="144"/>
      <point x="172" y="210" type="curve" smooth="yes"/>
      <point x="187" y="277"/>
      <point x="251" y="330"/>
      <point x="320" y="330" type="curve" smooth="yes"/>
      <point x="389" y="330"/>
      <point x="427" y="277"/>
      <point x="412" y="210" type="curve" smooth="yes"/>
      <point x="397" y="144"/>
      <point x="333" y="91"/>
    </contour>
  </outline>
</glyph>
<glyph name="seven" format="1">
  <advance width="530"/>
  <unicode hex="0037"/>
  <note>
    seven
  </note>
  <outline>
    <contour>
      <point x="32" y="0" type="line"/>
      <point x="160" y="0" type="line"/>
      <point x="567" y="679" type="line"/>
      <point x="167" y="679" type="line"/>
      <point x="145" y="584" type="line"/>
      <point x="444" y="584" type="line"/>
      <point x="411" y="626" type="line"/>
    </contour>
  </outline>
</glyph>
<glyph name="nine" format="1">
  <advance width="566"/>
  <unicode hex="0039"/>
  <note>
    nine
  </note>
  <outline>
    <contour>
      <point x="1" y="0" type="line"/>
      <point x="142" y="0" type="line"/>
      <point x="500" y="348" type="line"/>
      <point x="499" y="348" type="line"/>
      <point x="531" y="383"/>
      <point x="555" y="426"/>
      <point x="565" y="471" type="curve" smooth="yes"/>
      <point x="594" y="595"/>
      <point x="513" y="695"/>
      <point x="384" y="695" type="curve" smooth="yes"/>
      <point x="255" y="695"/>
      <point x="128" y="595"/>
      <point x="99" y="471" type="curve" smooth="yes"/>
      <point x="69" y="340"/>
      <point x="161" y="234"/>
      <point x="303" y="246" type="curve"/>
      <point x="286" y="280" type="line"/>
    </contour>
    <contour>
      <point x="304" y="351" type="curve" smooth="yes"/>
      <point x="235" y="351"/>
      <point x="197" y="404"/>
      <point x="212" y="471" type="curve" smooth="yes"/>
      <point x="227" y="537"/>
      <point x="291" y="590"/>
      <point x="360" y="590" type="curve" smooth="yes"/>
      <point x="429" y="590"/>
      <point x="467" y="537"/>
      <point x="452" y="471" type="curve" smooth="yes"/>
      <point x="437" y="404"/>
      <point x="373" y="351"/>
    </contour>
  </outline>
</glyph>
<glyph name="colon" format="1">
  <advance width="446"/>
  <unicode hex="003A"/>
  <note>
    colon
  </note>
  <outline>
    <contour>
      <point x="237" y="319" type="curve" smooth="yes"/>
      <point x="281" y="319"/>
      <point x="325" y="353"/>
      <point x="335" y="399" type="curve" smooth="yes"/>
      <point x="346" y="443"/>
      <point x="318" y="479"/>
      <point x="274" y="479" type="curve" smooth="yes"/>
      <point x="228" y="479"/>
      <point x="186" y="443"/>
      <point x="175" y="399" type="curve" smooth="yes"/>
      <point x="165" y="353"/>
      <point x="191" y="319"/>
    </contour>
    <contour>
      <point x="162" y="-7" type="curve" smooth="yes"/>
      <point x="206" y="-7"/>
      <point x="250" y="27"/>
      <point x="260" y="73" type="curve" smooth="yes"/>
      <point x="270" y="117"/>
      <point x="243" y="153"/>
      <point x="199" y="153" type="curve" smooth="yes"/>
      <point x="153" y="153"/>
      <point x="110" y="117"/>
      <point x="100" y="73" type="curve" smooth="yes"/>
      <point x="90" y="27"/>
      <point x="116" y="-7"/>
    </contour>
  </outline>
</glyph>
<glyph name="semicolon" format="1">
  <advance width="418"/>
  <unicode hex="003B"/>
  <note>
    semicolon
  </note>
  <outline>
    <contour>
      <point x="-41" y="-151" type="line"/>
      <point x="61" y="-151" type="line"/>
      <point x="242" y="105" type="line"/>
      <point x="109" y="105" type="line"/>
    </contour>
    <contour>
      <point x="237" y="319" type="curve" smooth="yes"/>
      <point x="281" y="319"/>
      <point x="325" y="353"/>
      <point x="335" y="399" type="curve" smooth="yes"/>
      <point x="346" y="443"/>
      <point x="318" y="479"/>
      <point x="274" y="479" type="curve" smooth="yes"/>
      <point x="228" y="479"/>
      <point x="186" y="443"/>
      <point x="175" y="399" type="curve" smooth="yes"/>
      <point x="165" y="353"/>
      <point x="191" y="319"/>
    </contour>
  </outline>
</glyph>
<glyph name="less" format="1">
  <advance width="539"/>
  <unicode hex="003C"/>
  <outline>
    <contour>
      <point x="429" y="0" type="line"/>
      <point x="452" y="100" type="line"/>
      <point x="176" y="284" type="line"/>
      <point x="526" y="417" type="line"/>
      <point x="549" y="517" type="line"/>
      <point x="63" y="315" type="line"/>
      <point x="48" y="250" type="line"/>
    </contour>
  </outline>
</glyph>
<glyph name="equal" format="1">
  <advance width="630"/>
  <unicode hex="003D"/>
  <note>
    equal
  </note>
  <outline>
    <contour>
      <point x="122" y="393" type="line"/>
      <point x="571" y="393" type="line"/>
      <point x="595" y="495" type="line"/>
      <point x="146" y="495" type="line"/>
    </contour>
    <contour>
      <point x="75" y="188" type="line"/>
      <point x="524" y="188" type="line"/>
      <point x="547" y="290" type="line"/>
      <point x="98" y="290" type="line"/>
    </contour>
  </outline>
</glyph>
<glyph name="greater" format="1">
  <advance width="539"/>
  <unicode hex="003E"/>
  <outline>
    <contour>
      <point x="-10" y="0" type="line"/>
      <point x="487" y="250" type="line"/>
      <point x="502" y="315" type="line"/>
      <point x="110" y="517" type="line"/>
      <point x="87" y="417" type="line"/>
      <point x="375" y="284" type="line"/>
      <point x="13" y="100" type="line"/>
    </contour>
  </outline>
</glyph>
<glyph name="question" format="1">
  <advance width="355"/>
  <unicode hex="003F"/>
  <note>
    question
  </note>
  <outline>
    <contour>
      <point x="80" y="221" type="line"/>
      <point x="188" y="221" type="line"/>
      <point x="207" y="300" type="line"/>
      <point x="282" y="336"/>
      <point x="344" y="406"/>
      <point x="363" y="486" type="curve" smooth="yes"/>
      <point x="390" y="603"/>
      <point x="313" y="699"/>
      <point x="191" y="699" type="curve"/>
      <point x="167" y="596" type="line"/>
      <point x="230" y="596"/>
      <point x="266" y="547"/>
      <point x="252" y="486" type="curve" smooth="yes"/>
      <point x="237" y="425"/>
      <point x="179" y="376"/>
      <point x="116" y="376" type="curve"/>
    </contour>
    <contour>
      <point x="79" y="-7" type="curve" smooth="yes"/>
      <point x="123" y="-7"/>
      <point x="167" y="27"/>
      <point x="177" y="73" type="curve" smooth="yes"/>
      <point x="187" y="117"/>
      <point x="160" y="153"/>
      <point x="116" y="153" type="curve" smooth="yes"/>
      <point x="70" y="153"/>
      <point x="27" y="117"/>
      <point x="17" y="73" type="curve" smooth="yes"/>
      <point x="7" y="27"/>
      <point x="33" y="-7"/>
    </contour>
  </outline>
</glyph>
<glyph name="at" format="1">
  <advance width="851"/>
  <unicode hex="0040"/>
  <note>
    at
  </note>
  <outline>
    <contour>
      <point x="333" y="-170" type="curve"/>
      <point x="354" y="-78" type="line"/>
      <point x="193" y="-78"/>
      <point x="92" y="52"/>
      <point x="129" y="210" type="curve" smooth="yes"/>
      <point x="165" y="367"/>
      <point x="323" y="498"/>
      <point x="480" y="498" type="curve" smooth="yes"/>
      <point x="637" y="498"/>
      <point x="752" y="409"/>
      <point x="708" y="219" type="curve" smooth="yes"/>
      <point x="698" y="176"/>
      <point x="657" y="104"/>
      <point x="609" y="104" type="curve" smooth="yes"/>
      <point x="586" y="104"/>
      <point x="579" y="119"/>
      <point x="586" y="150" type="curve" smooth="yes"/>
      <point x="644" y="400" type="line"/>
      <point x="558" y="400" type="line"/>
      <point x="551" y="369" type="line"/>
      <point x="532" y="396"/>
      <point x="492" y="410"/>
      <point x="454" y="410" type="curve" smooth="yes"/>
      <point x="343" y="410"/>
      <point x="238" y="325"/>
      <point x="214" y="218" type="curve" smooth="yes"/>
      <point x="189" y="111"/>
      <point x="254" y="25"/>
      <point x="366" y="25" type="curve" smooth="yes"/>
      <point x="404" y="25"/>
      <point x="465" y="47"/>
      <point x="503" y="85" type="curve"/>
      <point x="504" y="61"/>
      <point x="520" y="26"/>
      <point x="586" y="26" type="curve" smooth="yes"/>
      <point x="669" y="26"/>
      <point x="771" y="86"/>
      <point x="804" y="230" type="curve" smooth="yes"/>
      <point x="854" y="446"/>
      <point x="718" y="590"/>
      <point x="502" y="590" type="curve" smooth="yes"/>
      <point x="291" y="590"/>
      <point x="77" y="420"/>
      <point x="29" y="210" type="curve" smooth="yes"/>
      <point x="-20" y="-1"/>
      <point x="118" y="-170"/>
    </contour>
    <contour>
      <point x="384" y="109" type="curve" smooth="yes"/>
      <point x="325" y="109"/>
      <point x="290" y="158"/>
      <point x="304" y="218" type="curve" smooth="yes"/>
      <point x="318" y="278"/>
      <point x="376" y="327"/>
      <point x="435" y="327" type="curve" smooth="yes"/>
      <point x="494" y="327"/>
      <point x="532" y="287"/>
      <point x="516" y="218" type="curve" smooth="yes"/>
      <point x="499" y="148"/>
      <point x="443" y="109"/>
    </contour>
  </outline>
</glyph>
<glyph name="A" format="1">
  <advance width="750"/>
  <unicode hex="0041"/>
  <outline>
    <contour>
      <point x="-39" y="0" type="line"/>
      <point x="89" y="0" type="line"/>
      <point x="221" y="202" type="line"/>
      <point x="138" y="161" type="line"/>
      <point x="514" y="161" type="line"/>
      <point x="542" y="0" type="line"/>
      <point x="669" y="0" type="line"/>
      <point x="524" y="679" type="line"/>
      <point x="419" y="679" type="line"/>
    </contour>
    <contour>
      <point x="233" y="222" type="line"/>
      <point x="479" y="593" type="line"/>
      <point x="433" y="600" type="line"/>
      <point x="497" y="263" type="line"/>
      <point x="203" y="263" type="line"/>
    </contour>
    <contour>
      <point x="670" y="1" type="move" name="ogonek"/>
    </contour>
    <contour>
      <point x="468" y="679" type="move" name="top"/>
    </contour>
  </outline>
</glyph>
<glyph name="B" format="1">
  <advance width="666"/>
  <unicode hex="0042"/>
  <outline>
    <contour>
      <point x="46" y="0" type="line"/>
      <point x="326" y="0" type="line" smooth="yes"/>
      <point x="470" y="0"/>
      <point x="582" y="66"/>
      <point x="614" y="206" type="curve" smooth="yes"/>
      <point x="634" y="295"/>
      <point x="592" y="361"/>
      <point x="502" y="369" type="curve"/>
      <point x="570" y="380"/>
      <point x="628" y="427"/>
      <point x="646" y="504" type="curve" smooth="yes"/>
      <point x="674" y="625"/>
      <point x="612" y="679"/>
      <point x="465" y="679" type="curve" smooth="yes"/>
      <point x="203" y="679" type="line"/>
      <point x="180" y="577" type="line"/>
      <point x="428" y="577" type="line" smooth="yes"/>
      <point x="501" y="577"/>
      <point x="550" y="572"/>
      <point x="537" y="496" type="curve"/>
      <point x="521" y="427"/>
      <point x="471" y="408"/>
      <point x="383" y="408" type="curve" smooth="yes"/>
      <point x="141" y="408" type="line"/>
      <point x="118" y="311" type="line"/>
      <point x="390" y="311" type="line" smooth="yes"/>
      <point x="479" y="311"/>
      <point x="515" y="277"/>
      <point x="499" y="208" type="curve" smooth="yes"/>
      <point x="483" y="137"/>
      <point x="431" y="102"/>
      <point x="342" y="102" type="curve" smooth="yes"/>
      <point x="70" y="102" type="line"/>
    </contour>
    <component base="I"/>
  </outline>
</glyph>
<glyph name="C" format="1">
  <advance width="704"/>
  <unicode hex="0043"/>
  <outline>
    <contour>
      <point x="357" y="-15" type="curve" smooth="yes"/>
      <point x="510" y="-15"/>
      <point x="592" y="37"/>
      <point x="610" y="46" type="curve"/>
      <point x="637" y="163" type="line"/>
      <point x="568" y="114"/>
      <point x="470" y="88"/>
      <point x="381" y="88" type="curve" smooth="yes"/>
      <point x="216" y="88"/>
      <point x="144" y="197"/>
      <point x="177" y="340" type="curve" smooth="yes"/>
      <point x="210" y="482"/>
      <point x="332" y="593"/>
      <point x="497" y="593" type="curve" smooth="yes"/>
      <point x="616" y="593"/>
      <point x="697" y="530"/>
      <point x="700" y="520" type="curve"/>
      <point x="727" y="635" type="line"/>
      <point x="697" y="659"/>
      <point x="633" y="695"/>
      <point x="521" y="695" type="curve" smooth="yes"/>
      <point x="298" y="698"/>
      <point x="106" y="534"/>
      <point x="64" y="340" type="curve" smooth="yes"/>
      <point x="16" y="146"/>
      <point x="133" y="-18"/>
    </contour>
    <contour>
      <point x="359" y="-9" type="move" name="bottom"/>
    </contour>
    <contour>
      <point x="516" y="679" type="move" name="top"/>
    </contour>
  </outline>
</glyph>
<glyph name="D" format="1">
  <advance width="760"/>
  <unicode hex="0044"/>
  <outline>
    <contour>
      <point x="66" y="0" type="line"/>
      <point x="276" y="0" type="line" smooth="yes"/>
      <point x="501" y="0"/>
      <point x="678" y="143"/>
      <point x="724" y="340" type="curve" smooth="yes"/>
      <point x="770" y="538"/>
      <point x="666" y="679"/>
      <point x="433" y="679" type="curve" smooth="yes"/>
      <point x="223" y="679" type="line"/>
      <point x="200" y="577" type="line"/>
      <point x="401" y="577" type="line" smooth="yes"/>
      <point x="578" y="577"/>
      <point x="645" y="487"/>
      <point x="611" y="340" type="curve" smooth="yes"/>
      <point x="568" y="177"/>
      <point x="449" y="103"/>
      <point x="292" y="103" type="curve" smooth="yes"/>
      <point x="90" y="103" type="line"/>
    </contour>
    <component base="I"/>
    <contour>
      <point x="163" y="340" type="move" name="center"/>
    </contour>
    <contour>
      <point x="477" y="679" type="move" name="top"/>
    </contour>
  </outline>
</glyph>
<glyph name="E" format="1">
  <advance width="642"/>
  <unicode hex="0045"/>
  <outline>
    <contour>
      <point x="71" y="0" type="line"/>
      <point x="532" y="0" type="line"/>
      <point x="556" y="102" type="line"/>
      <point x="95" y="102" type="line"/>
    </contour>
    <contour>
      <point x="143" y="311" type="line"/>
      <point x="519" y="311" type="line"/>
      <point x="543" y="413" type="line"/>
      <point x="167" y="413" type="line"/>
    </contour>
    <contour>
      <point x="205" y="577" type="line"/>
      <point x="660" y="577" type="line"/>
      <point x="683" y="679" type="line"/>
      <point x="228" y="679" type="line"/>
    </contour>
    <component base="I"/>
    <contour>
      <point x="30" y="0" type="move" name="#entry"/>
    </contour>
    <contour>
      <point x="261" y="0" type="move" name="bottom"/>
    </contour>
    <contour>
      <point x="533" y="1" type="move" name="ogonek"/>
    </contour>
    <contour>
      <point x="418" y="679" type="move" name="top"/>
    </contour>
  </outline>
</glyph>
<glyph name="F" format="1">
  <advance width="624"/>
  <unicode hex="0046"/>
  <outline>
    <contour>
      <point x="200" y="577" type="line"/>
      <point x="660" y="577" type="line"/>
      <point x="683" y="679" type="line"/>
      <point x="223" y="679" type="line"/>
    </contour>
    <contour>
      <point x="138" y="311" type="line"/>
      <point x="519" y="311" type="line"/>
      <point x="543" y="413" type="line"/>
      <point x="162" y="413" type="line"/>
    </contour>
    <component base="I"/>
  </outline>
</glyph>
<glyph name="G" format="1">
  <advance width="776"/>
  <unicode hex="0047"/>
  <outline>
    <contour>
      <point x="344" y="-15" type="curve" smooth="yes"/>
      <point x="424" y="-15"/>
      <point x="494" y="10"/>
      <point x="539" y="35" type="curve"/>
      <point x="531" y="0" type="line"/>
      <point x="640" y="0" type="line"/>
      <point x="732" y="397" type="line"/>
      <point x="420" y="397" type="line"/>
      <point x="396" y="295" type="line"/>
      <point x="599" y="295" type="line"/>
      <point x="565" y="148" type="line"/>
      <point x="519" y="118"/>
      <point x="446" y="87"/>
      <point x="367" y="87" type="curve" smooth="yes"/>
      <point x="224" y="87"/>
      <point x="149" y="199"/>
      <point x="182" y="340" type="curve" smooth="yes"/>
      <point x="215" y="482"/>
      <point x="337" y="593"/>
      <point x="502" y="593" type="curve" smooth="yes"/>
      <point x="562" y="593"/>
      <point x="610" y="584"/>
      <point x="647" y="566" type="curve" smooth="yes"/>
      <point x="684" y="549"/>
      <point x="709" y="533"/>
      <point x="724" y="518" type="curve"/>
      <point x="751" y="634" type="line"/>
      <point x="734" y="646"/>
      <point x="706" y="659"/>
      <point x="668" y="673" type="curve" smooth="yes"/>
      <point x="630" y="688"/>
      <point x="583" y="695"/>
      <point x="526" y="695" type="curve" smooth="yes"/>
      <point x="303" y="698"/>
      <point x="111" y="534"/>
      <point x="69" y="340" type="curve" smooth="yes"/>
      <point x="21" y="146"/>
      <point x="134" y="-15"/>
    </contour>
    <contour>
      <point x="347" y="-9" type="move" name="bottom"/>
    </contour>
    <contour>
      <point x="485" y="679" type="move" name="top"/>
    </contour>
  </outline>
</glyph>
<glyph name="H" format="1">
  <advance width="754"/>
  <unicode hex="0048"/>
  <outline>
    <contour>
      <point x="191" y="311" type="line"/>
      <point x="585" y="311" type="line"/>
      <point x="609" y="413" type="line"/>
      <point x="215" y="413" type="line"/>
    </contour>
    <component base="I"/>
    <component base="I" xOffset="465"/>
    <contour>
      <point x="443" y="547" type="move" name="center"/>
    </contour>
    <contour>
      <point x="473" y="679" type="move" name="top"/>
    </contour>
  </outline>
</glyph>
<glyph name="I" format="1">
  <advance width="289"/>
  <unicode hex="0049"/>
  <outline>
    <contour>
      <point x="30" y="0" type="line"/>
      <point x="139" y="0" type="line"/>
      <point x="296" y="679" type="line"/>
      <point x="187" y="679" type="line"/>
    </contour>
    <contour>
      <point x="136" y="10" type="move" name="ogonek"/>
    </contour>
    <contour>
      <point x="242" y="679" type="move" name="top"/>
    </contour>
  </outline>
</glyph>
<glyph name="J" format="1">
  <advance width="542"/>
  <unicode hex="004A"/>
  <outline>
    <contour>
      <point x="166" y="-15" type="curve" smooth="yes"/>
      <point x="315" y="-15"/>
      <point x="434" y="72"/>
      <point x="470" y="229" type="curve" smooth="yes"/>
      <point x="574" y="679" type="line"/>
      <point x="465" y="679" type="line"/>
      <point x="361" y="227" type="line" smooth="yes"/>
      <point x="338" y="128"/>
      <point x="285" y="88"/>
      <point x="175" y="88" type="curve" smooth="yes"/>
      <point x="103" y="88"/>
      <point x="24" y="135"/>
      <point x="14" y="142" type="curve"/>
      <point x="-10" y="38" type="line" smooth="yes"/>
      <point x="-11" y="33"/>
      <point x="72" y="-15"/>
    </contour>
    <contour>
      <point x="368" y="679" type="move" name="top"/>
    </contour>
  </outline>
</glyph>
<glyph name="K" format="1">
  <advance width="686"/>
  <unicode hex="004B"/>
  <outline>
    <contour>
      <point x="30" y="0" type="line"/>
      <point x="138" y="0" type="line"/>
      <point x="205" y="290" type="line"/>
      <point x="156" y="203" type="line"/>
      <point x="343" y="349" type="line"/>
      <point x="298" y="372" type="line"/>
      <point x="487" y="0" type="line"/>
      <point x="608" y="0" type="line"/>
      <point x="380" y="447" type="line"/>
      <point x="363" y="365" type="line"/>
      <point x="765" y="679" type="line"/>
      <point x="613" y="679" type="line"/>
      <point x="176" y="334" type="line"/>
      <point x="213" y="323" type="line"/>
      <point x="295" y="679" type="line"/>
      <point x="187" y="679" type="line"/>
    </contour>
    <contour>
      <point x="278" y="0" type="move" name="bottom"/>
    </contour>
    <contour>
      <point x="435" y="679" type="move" name="top"/>
    </contour>
  </outline>
</glyph>
<glyph name="L" format="1">
  <advance width="648"/>
  <unicode hex="004C"/>
  <outline>
    <contour>
      <point x="30" y="0" type="line"/>
      <point x="550" y="0" type="line"/>
      <point x="574" y="102" type="line"/>
      <point x="162" y="102" type="line"/>
      <point x="295" y="679" type="line"/>
      <point x="187" y="679" type="line"/>
    </contour>
    <contour>
      <point x="264" y="0" type="move" name="bottom"/>
    </contour>
    <contour>
      <point x="357" y="383" type="move" name="caron-t"/>
    </contour>
    <contour>
      <point x="169" y="361" type="move" name="center"/>
    </contour>
    <contour>
      <point x="446" y="355" type="move" name="middle"/>
    </contour>
    <contour>
      <point x="235" y="679" type="move" name="top"/>
    </contour>
  </outline>
</glyph>
<glyph name="M" format="1">
  <advance width="827"/>
  <unicode hex="004D"/>
  <outline>
    <contour>
      <point x="30" y="0" type="line"/>
      <point x="138" y="0" type="line"/>
      <point x="257" y="515" type="line"/>
      <point x="365" y="263" type="line"/>
      <point x="464" y="263" type="line"/>
      <point x="688" y="515" type="line"/>
      <point x="569" y="0" type="line"/>
      <point x="677" y="0" type="line"/>
      <point x="834" y="679" type="line"/>
      <point x="707" y="679" type="line"/>
      <point x="440" y="376" type="line"/>
      <point x="440" y="377" type="line"/>
      <point x="314" y="679" type="line"/>
      <point x="187" y="679" type="line"/>
    </contour>
  </outline>
</glyph>
<glyph name="N" format="1">
  <advance width="771"/>
  <unicode hex="004E"/>
  <outline>
    <contour>
      <point x="30" y="0" type="line"/>
      <point x="138" y="0" type="line"/>
      <point x="270" y="570" type="line"/>
      <point x="235" y="567" type="line"/>
      <point x="500" y="0" type="line"/>
      <point x="621" y="0" type="line"/>
      <point x="778" y="679" type="line"/>
      <point x="670" y="679" type="line"/>
      <point x="540" y="118" type="line"/>
      <point x="575" y="121" type="line"/>
      <point x="312" y="679" type="line"/>
      <point x="187" y="679" type="line"/>
    </contour>
    <contour>
      <point x="326" y="0" type="move" name="bottom"/>
    </contour>
    <contour>
      <point x="483" y="679" type="move" name="top"/>
    </contour>
  </outline>
</glyph>
<glyph name="O" format="1">
  <advance width="803"/>
  <unicode hex="004F"/>
  <outline>
    <contour>
      <point x="338" y="-15" type="curve" smooth="yes"/>
      <point x="544" y="-18"/>
      <point x="735" y="146"/>
      <point x="777" y="340" type="curve"/>
      <point x="825" y="534"/>
      <point x="709" y="698"/>
      <point x="502" y="695" type="curve" smooth="yes"/>
      <point x="295" y="698"/>
      <point x="106" y="534"/>
      <point x="64" y="340" type="curve" smooth="yes"/>
      <point x="16" y="146"/>
      <point x="130" y="-18"/>
    </contour>
    <contour>
      <point x="362" y="88" type="curve" smooth="yes"/>
      <point x="214" y="88"/>
      <point x="143" y="197"/>
      <point x="176" y="340" type="curve" smooth="yes"/>
      <point x="209" y="482"/>
      <point x="330" y="593"/>
      <point x="478" y="593" type="curve" smooth="yes"/>
      <point x="628" y="593"/>
      <point x="697" y="482"/>
      <point x="664" y="340" type="curve" smooth="yes"/>
      <point x="631" y="197"/>
      <point x="512" y="88"/>
    </contour>
    <contour>
      <point x="585" y="0" type="move" name="#exit"/>
    </contour>
    <contour>
      <point x="342" y="0" type="move" name="bottom"/>
    </contour>
    <contour>
      <point x="420" y="340" type="move" name="center"/>
    </contour>
    <contour>
      <point x="499" y="679" type="move" name="top"/>
    </contour>
  </outline>
</glyph>
<glyph name="P" format="1">
  <advance width="698"/>
  <unicode hex="0050"/>
  <outline>
    <contour>
      <point x="116" y="233" type="line"/>
      <point x="400" y="233" type="line" smooth="yes"/>
      <point x="538" y="233"/>
      <point x="664" y="322"/>
      <point x="695" y="456" type="curve" smooth="yes"/>
      <point x="726" y="590"/>
      <point x="642" y="679"/>
      <point x="506" y="679" type="curve" smooth="yes"/>
      <point x="219" y="679" type="line"/>
      <point x="196" y="577" type="line"/>
      <point x="475" y="577" type="line" smooth="yes"/>
      <point x="549" y="577"/>
      <point x="599" y="528"/>
      <point x="582" y="454" type="curve" smooth="yes"/>
      <point x="565" y="381"/>
      <point x="492" y="333"/>
      <point x="418" y="333" type="curve" smooth="yes"/>
      <point x="139" y="333" type="line"/>
    </contour>
    <component base="I"/>
  </outline>
</glyph>
<glyph name="Q" format="1">
  <advance width="803"/>
  <unicode hex="0051"/>
  <outline>
    <contour>
      <point x="338" y="-15" type="line"/>
      <point x="720" y="-15" type="line"/>
      <point x="743" y="87" type="line"/>
      <point x="361" y="87" type="line"/>
    </contour>
    <component base="O"/>
    <contour>
      <point x="354" y="0" type="move" name="bottom"/>
    </contour>
    <contour>
      <point x="511" y="679" type="move" name="top"/>
    </contour>
  </outline>
</glyph>
<glyph name="R" format="1">
  <advance width="689"/>
  <unicode hex="0052"/>
  <outline>
    <contour>
      <point x="472" y="0" type="line"/>
      <point x="608" y="0" type="line"/>
      <point x="469" y="272" type="line"/>
      <point x="572" y="296"/>
      <point x="654" y="365"/>
      <point x="678" y="471" type="curve" smooth="yes"/>
      <point x="709" y="605"/>
      <point x="622" y="679"/>
      <point x="486" y="679" type="curve" smooth="yes"/>
      <point x="219" y="679" type="line"/>
      <point x="196" y="577" type="line"/>
      <point x="455" y="577" type="line" smooth="yes"/>
      <point x="529" y="577"/>
      <point x="583" y="543"/>
      <point x="566" y="469" type="curve" smooth="yes"/>
      <point x="549" y="396"/>
      <point x="479" y="363"/>
      <point x="405" y="363" type="curve" smooth="yes"/>
      <point x="146" y="363" type="line"/>
      <point x="123" y="263" type="line"/>
      <point x="339" y="263" type="line"/>
    </contour>
    <component base="I"/>
    <contour>
      <point x="302" y="0" type="move" name="bottom"/>
    </contour>
    <contour>
      <point x="418" y="679" type="move" name="top"/>
    </contour>
  </outline>
</glyph>
<glyph name="S" format="1">
  <advance width="582"/>
  <unicode hex="0053"/>
  <outline>
    <contour>
      <point x="229" y="-16" type="curve" smooth="yes"/>
      <point x="383" y="-16"/>
      <point x="483" y="67"/>
      <point x="509" y="179" type="curve" smooth="yes"/>
      <point x="536" y="298"/>
      <point x="479" y="344"/>
      <point x="356" y="400" type="curve" smooth="yes"/>
      <point x="272" y="438"/>
      <point x="232" y="457"/>
      <point x="246" y="517" type="curve" smooth="yes"/>
      <point x="257" y="567"/>
      <point x="312" y="594"/>
      <point x="387" y="595" type="curve" smooth="yes"/>
      <point x="460" y="595"/>
      <point x="519" y="567"/>
      <point x="551" y="530" type="curve"/>
      <point x="578" y="647" type="line"/>
      <point x="536" y="680"/>
      <point x="464" y="700"/>
      <point x="401" y="699" type="curve" smooth="yes"/>
      <point x="258" y="699"/>
      <point x="158" y="624"/>
      <point x="134" y="517" type="curve" smooth="yes"/>
      <point x="106" y="398"/>
      <point x="161" y="351"/>
      <point x="282" y="295" type="curve" smooth="yes"/>
      <point x="366" y="257"/>
      <point x="409" y="232"/>
      <point x="397" y="180" type="curve" smooth="yes"/>
      <point x="384" y="125"/>
      <point x="336" y="87"/>
      <point x="232" y="87" type="curve" smooth="yes"/>
      <point x="151" y="87"/>
      <point x="74" y="118"/>
      <point x="24" y="166" type="curve"/>
      <point x="-2" y="54" type="line"/>
      <point x="29" y="20"/>
      <point x="117" y="-16"/>
    </contour>
    <contour>
      <point x="203" y="0" type="move" name="bottom"/>
    </contour>
    <contour>
      <point x="360" y="679" type="move" name="top"/>
    </contour>
  </outline>
</glyph>
<glyph name="T" format="1">
  <advance width="664"/>
  <unicode hex="0054"/>
  <outline>
    <contour>
      <point x="218" y="0" type="line"/>
      <point x="326" y="0" type="line"/>
      <point x="460" y="577" type="line"/>
      <point x="698" y="577" type="line"/>
      <point x="721" y="679" type="line"/>
      <point x="137" y="679" type="line"/>
      <point x="114" y="577" type="line"/>
      <point x="352" y="577" type="line"/>
    </contour>
    <contour>
      <point x="272" y="0" type="move" name="bottom"/>
    </contour>
    <contour>
      <point x="369" y="420" type="move" name="center"/>
    </contour>
    <contour>
      <point x="429" y="679" type="move" name="top"/>
    </contour>
  </outline>
</glyph>
<glyph name="U" format="1">
  <advance width="706"/>
  <unicode hex="0055"/>
  <outline>
    <contour>
      <point x="290" y="-15" type="curve" smooth="yes"/>
      <point x="451" y="-15"/>
      <point x="586" y="65"/>
      <point x="631" y="259" type="curve" smooth="yes"/>
      <point x="728" y="679" type="line"/>
      <point x="619" y="679" type="line"/>
      <point x="523" y="261" type="line" smooth="yes"/>
      <point x="495" y="140"/>
      <point x="423" y="90"/>
      <point x="314" y="90" type="curve" smooth="yes"/>
      <point x="222" y="90"/>
      <point x="157" y="140"/>
      <point x="185" y="261" type="curve" smooth="yes"/>
      <point x="281" y="679" type="line"/>
      <point x="172" y="679" type="line"/>
      <point x="75" y="259" type="line" smooth="yes"/>
      <point x="30" y="65"/>
      <point x="129" y="-15"/>
    </contour>
    <contour>
      <point x="293" y="0" type="move" name="bottom"/>
    </contour>
    <contour>
      <point x="356" y="10" type="move" name="ogonek"/>
    </contour>
    <contour>
      <point x="450" y="679" type="move" name="top"/>
    </contour>
  </outline>
</glyph>
<glyph name="V" format="1">
  <advance width="702"/>
  <unicode hex="0056"/>
  <outline>
    <contour>
      <point x="230" y="0" type="line"/>
      <point x="352" y="0" type="line"/>
      <point x="768" y="679" type="line"/>
      <point x="634" y="679" type="line"/>
      <point x="291" y="105" type="line"/>
      <point x="329" y="99" type="line"/>
      <point x="249" y="679" type="line"/>
      <point x="128" y="679" type="line"/>
    </contour>
  </outline>
</glyph>
<glyph name="W" format="1">
  <advance width="1034"/>
  <unicode hex="0057"/>
  <outline>
    <contour>
      <point x="182" y="0" type="line"/>
      <point x="313" y="0" type="line"/>
      <point x="600" y="567" type="line"/>
      <point x="575" y="573" type="line"/>
      <point x="606" y="0" type="line"/>
      <point x="732" y="0" type="line"/>
      <point x="1100" y="679" type="line"/>
      <point x="976" y="679" type="line"/>
      <point x="670" y="94" type="line"/>
      <point x="706" y="88" type="line"/>
      <point x="675" y="679" type="line"/>
      <point x="541" y="679" type="line"/>
      <point x="248" y="94" type="line"/>
      <point x="284" y="88" type="line"/>
      <point x="247" y="679" type="line"/>
      <point x="128" y="679" type="line"/>
    </contour>
    <contour>
      <point x="614" y="679" type="move" name="top"/>
    </contour>
  </outline>
</glyph>
<glyph name="Z" format="1">
  <advance width="684"/>
  <unicode hex="005A"/>
  <outline>
    <contour>
      <point x="15" y="0" type="line"/>
      <point x="569" y="0" type="line"/>
      <point x="593" y="102" type="line"/>
      <point x="190" y="102" type="line"/>
      <point x="690" y="577" type="line"/>
      <point x="713" y="679" type="line"/>
      <point x="191" y="679" type="line"/>
      <point x="168" y="577" type="line"/>
      <point x="542" y="577" type="line"/>
      <point x="39" y="102" type="line"/>
    </contour>
    <contour>
      <point x="439" y="679" type="move" name="top"/>
    </contour>
  </outline>
</glyph>
<glyph name="backslash" format="1">
  <advance width="455"/>
  <unicode hex="005C"/>
  <note>
    backslash
  </note>
  <outline>
    <contour>
      <point x="265" y="-57" type="line"/>
      <point x="382" y="-57" type="line"/>
      <point x="219" y="700" type="line"/>
      <point x="102" y="700" type="line"/>
    </contour>
  </outline>
</glyph>
<glyph name="bracketright" format="1">
  <advance width="375"/>
  <unicode hex="005D"/>
  <note>
    bracketright
  </note>
  <outline>
    <contour>
      <point x="-19" y="-125" type="line"/>
      <point x="216" y="-125" type="line"/>
      <point x="418" y="749" type="line"/>
      <point x="183" y="749" type="line"/>
      <point x="160" y="647" type="line"/>
      <point x="278" y="647" type="line"/>
      <point x="123" y="-24" type="line"/>
      <point x="5" y="-24" type="line"/>
    </contour>
  </outline>
</glyph>
<glyph name="asciicircum" format="1">
  <advance width="617"/>
  <unicode hex="005E"/>
  <outline>
    <contour>
      <point x="64" y="320" type="line"/>
      <point x="164" y="320" type="line"/>
      <point x="381" y="589" type="line"/>
      <point x="481" y="320" type="line"/>
      <point x="581" y="320" type="line"/>
      <point x="439" y="699" type="line"/>
      <point x="374" y="699" type="line"/>
    </contour>
  </outline>
</glyph>
<glyph name="underscore" format="1">
  <advance width="745"/>
  <unicode hex="005F"/>
  <note>
    underscore
  </note>
  <outline>
    <contour>
      <point x="-3" y="-62" type="line"/>
      <point x="600" y="-62" type="line"/>
      <point x="614" y="0" type="line"/>
      <point x="11" y="0" type="line"/>
    </contour>
  </outline>
</glyph>
<glyph name="grave" format="1">
  <advance width="263"/>
  <unicode hex="0060"/>
  <note>
    grave
  </note>
  <outline>
    <contour>
      <point x="218" y="586" type="line"/>
      <point x="319" y="586" type="line"/>
      <point x="268" y="757" type="line"/>
      <point x="135" y="757" type="line"/>
    </contour>
    <contour>
      <point x="254" y="517" type="move" name="_top"/>
    </contour>
  </outline>
</glyph>
<glyph name="a" format="1">
  <advance width="672"/>
  <unicode hex="0061"/>
  <note>
    a
  </note>
  <outline>
    <contour>
      <point x="247" y="-15" type="curve" smooth="yes"/>
      <point x="331" y="-15"/>
      <point x="393" y="18"/>
      <point x="436" y="53" type="curve"/>
      <point x="422" y="0" type="line"/>
      <point x="530" y="0" type="line"/>
      <point x="652" y="517" type="line"/>
      <point x="544" y="517" type="line"/>
      <point x="532" y="467" type="line"/>
      <point x="504" y="503"/>
      <point x="448" y="532"/>
      <point x="373" y="532" type="curve" smooth="yes"/>
      <point x="215" y="532"/>
      <point x="75" y="409"/>
      <point x="40" y="258" type="curve" smooth="yes"/>
      <point x="5" y="107"/>
      <point x="89" y="-15"/>
    </contour>
    <contour>
      <point x="277" y="81" type="curve" smooth="yes"/>
      <point x="180" y="81"/>
      <point x="125" y="161"/>
      <point x="148" y="259" type="curve" smooth="yes"/>
      <point x="171" y="357"/>
      <point x="262" y="436"/>
      <point x="359" y="436" type="curve" smooth="yes"/>
      <point x="455" y="436"/>
      <point x="516" y="371"/>
      <point x="490" y="259" type="curve" smooth="yes"/>
      <point x="464" y="146"/>
      <point x="373" y="81"/>
    </contour>
    <contour>
      <point x="531" y="1" type="move" name="ogonek"/>
    </contour>
    <contour>
      <point x="390" y="516" type="move" name="top"/>
    </contour>
  </outline>
</glyph>
<glyph name="b" format="1">
  <advance width="672"/>
  <unicode hex="0062"/>
  <note>
    b
  </note>
  <outline>
    <contour>
      <point x="299" y="-15" type="curve" smooth="yes"/>
      <point x="457" y="-15"/>
      <point x="597" y="107"/>
      <point x="632" y="258" type="curve" smooth="yes"/>
      <point x="667" y="409"/>
      <point x="583" y="532"/>
      <point x="425" y="532" type="curve" smooth="yes"/>
      <point x="350" y="532"/>
      <point x="280" y="503"/>
      <point x="236" y="467" type="curve"/>
      <point x="289" y="697" type="line"/>
      <point x="178" y="679" type="line"/>
      <point x="21" y="0" type="line"/>
      <point x="130" y="0" type="line"/>
      <point x="142" y="53" type="line"/>
      <point x="167" y="18"/>
      <point x="215" y="-15"/>
    </contour>
    <contour>
      <point x="313" y="81" type="curve" smooth="yes"/>
      <point x="217" y="81"/>
      <point x="156" y="146"/>
      <point x="182" y="259" type="curve" smooth="yes"/>
      <point x="208" y="371"/>
      <point x="299" y="436"/>
      <point x="395" y="436" type="curve" smooth="yes"/>
      <point x="492" y="436"/>
      <point x="550" y="357"/>
      <point x="527" y="259" type="curve" smooth="yes"/>
      <point x="504" y="161"/>
      <point x="410" y="81"/>
    </contour>
  </outline>
</glyph>
<glyph name="c" format="1">
  <advance width="553"/>
  <unicode hex="0063"/>
  <note>
    c
  </note>
  <outline>
    <contour>
      <point x="270" y="-15" type="curve" smooth="yes"/>
      <point x="323" y="-15"/>
      <point x="411" y="-3"/>
      <point x="466" y="34" type="curve"/>
      <point x="489" y="134" type="line"/>
      <point x="489" y="134"/>
      <point x="413" y="80"/>
      <point x="292" y="80" type="curve" smooth="yes"/>
      <point x="177" y="80"/>
      <point x="120" y="152"/>
      <point x="145" y="259" type="curve" smooth="yes"/>
      <point x="168" y="357"/>
      <point x="262" y="437"/>
      <point x="364" y="437" type="curve" smooth="yes"/>
      <point x="488" y="437"/>
      <point x="531" y="359"/>
      <point x="531" y="359" type="curve"/>
      <point x="557" y="470" type="line"/>
      <point x="521" y="513"/>
      <point x="450" y="532"/>
      <point x="386" y="532" type="curve" smooth="yes"/>
      <point x="218" y="532"/>
      <point x="75" y="410"/>
      <point x="40" y="259" type="curve" smooth="yes"/>
      <point x="5" y="108"/>
      <point x="77" y="-15"/>
    </contour>
    <contour>
      <point x="272" y="-9" type="move" name="bottom"/>
    </contour>
    <contour>
      <point x="383" y="516" type="move" name="top"/>
    </contour>
  </outline>
</glyph>
<glyph name="d" format="1">
  <advance width="672"/>
  <unicode hex="0064"/>
  <note>
    d
  </note>
  <outline>
    <contour>
      <point x="247" y="-15" type="curve" smooth="yes"/>
      <point x="331" y="-15"/>
      <point x="393" y="18"/>
      <point x="436" y="53" type="curve"/>
      <point x="422" y="0" type="line"/>
      <point x="532" y="0" type="line"/>
      <point x="693" y="697" type="line"/>
      <point x="581" y="679" type="line"/>
      <point x="532" y="467" type="line"/>
      <point x="504" y="503"/>
      <point x="448" y="532"/>
      <point x="373" y="532" type="curve" smooth="yes"/>
      <point x="215" y="532"/>
      <point x="75" y="409"/>
      <point x="40" y="258" type="curve" smooth="yes"/>
      <point x="5" y="107"/>
      <point x="89" y="-15"/>
    </contour>
    <contour>
      <point x="277" y="81" type="curve" smooth="yes"/>
      <point x="180" y="81"/>
      <point x="122" y="161"/>
      <point x="145" y="259" type="curve" smooth="yes"/>
      <point x="168" y="357"/>
      <point x="262" y="436"/>
      <point x="359" y="436" type="curve" smooth="yes"/>
      <point x="455" y="436"/>
      <point x="516" y="371"/>
      <point x="490" y="259" type="curve" smooth="yes"/>
      <point x="464" y="146"/>
      <point x="373" y="81"/>
    </contour>
    <contour>
      <point x="670" y="401" type="move" name="caron-t"/>
    </contour>
    <contour>
      <point x="590" y="580" type="move" name="center"/>
    </contour>
  </outline>
</glyph>
<glyph name="e" format="1">
  <advance width="596"/>
  <unicode hex="0065"/>
  <note>
    e
  </note>
  <outline>
    <contour>
      <point x="263" y="-15" type="curve" smooth="yes"/>
      <point x="414" y="-15"/>
      <point x="482" y="38"/>
      <point x="482" y="38" type="curve"/>
      <point x="504" y="135" type="line"/>
      <point x="503" y="135"/>
      <point x="414" y="81"/>
      <point x="287" y="81" type="curve" smooth="yes"/>
      <point x="170" y="81"/>
      <point x="131" y="153"/>
      <point x="137" y="233" type="curve"/>
      <point x="550" y="233" type="line"/>
      <point x="562" y="283" type="line" smooth="yes"/>
      <point x="591" y="408"/>
      <point x="532" y="532"/>
      <point x="382" y="532" type="curve" smooth="yes"/>
      <point x="222" y="532"/>
      <point x="76" y="414"/>
      <point x="40" y="259" type="curve" smooth="yes"/>
      <point x="6" y="110"/>
      <point x="81" y="-15"/>
    </contour>
    <contour>
      <point x="162" y="317" type="line"/>
      <point x="177" y="357"/>
      <point x="235" y="444"/>
      <point x="348" y="444" type="curve" smooth="yes"/>
      <point x="461" y="444"/>
      <point x="467" y="357"/>
      <point x="462" y="317" type="curve"/>
    </contour>
    <contour>
      <point x="-20" y="0" type="move" name="#entry"/>
    </contour>
    <contour>
      <point x="482" y="38" type="move" name="ogonek"/>
    </contour>
    <contour>
      <point x="378" y="516" type="move" name="top"/>
    </contour>
  </outline>
</glyph>
<glyph name="f" format="1">
  <advance width="521"/>
  <unicode hex="0066"/>
  <note>
    f
  </note>
  <outline>
    <contour>
      <point x="22" y="-250" type="line"/>
      <point x="130" y="-250" type="line"/>
      <point x="274" y="370" type="line"/>
      <point x="507" y="370" type="line"/>
      <point x="527" y="458" type="line"/>
      <point x="294" y="458" type="line"/>
      <point x="322" y="579"/>
      <point x="379" y="621"/>
      <point x="459" y="621" type="curve" smooth="yes"/>
      <point x="539" y="621"/>
      <point x="577" y="567"/>
      <point x="577" y="567" type="curve"/>
      <point x="599" y="663" type="line"/>
      <point x="599" y="663"/>
      <point x="576" y="717"/>
      <point x="466" y="717" type="curve" smooth="yes"/>
      <point x="337" y="717"/>
      <point x="224" y="623"/>
      <point x="186" y="458" type="curve"/>
      <point x="76" y="458" type="line"/>
      <point x="56" y="370" type="line"/>
      <point x="166" y="370" type="line"/>
    </contour>
  </outline>
</glyph>
<glyph name="g" format="1">
  <advance width="645"/>
  <unicode hex="0067"/>
  <note>
    g
  </note>
  <outline>
    <contour>
      <point x="183" y="-225" type="curve" smooth="yes"/>
      <point x="397" y="-225"/>
      <point x="508" y="-97"/>
      <point x="543" y="54" type="curve" smooth="yes"/>
      <point x="652" y="517" type="line"/>
      <point x="544" y="517" type="line"/>
      <point x="532" y="467" type="line"/>
      <point x="504" y="503"/>
      <point x="448" y="532"/>
      <point x="373" y="532" type="curve" smooth="yes"/>
      <point x="215" y="532"/>
      <point x="75" y="409"/>
      <point x="40" y="258" type="curve" smooth="yes"/>
      <point x="5" y="107"/>
      <point x="89" y="-15"/>
      <point x="247" y="-15" type="curve" smooth="yes"/>
      <point x="330" y="-15"/>
      <point x="392" y="17"/>
      <point x="434" y="52" type="curve"/>
      <point x="432" y="40" type="line" smooth="yes"/>
      <point x="404" y="-81"/>
      <point x="319" y="-129"/>
      <point x="202" y="-129" type="curve" smooth="yes"/>
      <point x="75" y="-129"/>
      <point x="11" y="-75"/>
      <point x="11" y="-75" type="curve"/>
      <point x="-11" y="-172" type="line"/>
      <point x="-11" y="-172"/>
      <point x="32" y="-225"/>
    </contour>
    <contour>
      <point x="277" y="81" type="curve" smooth="yes"/>
      <point x="180" y="81"/>
      <point x="125" y="161"/>
      <point x="148" y="259" type="curve" smooth="yes"/>
      <point x="171" y="357"/>
      <point x="262" y="436"/>
      <point x="359" y="436" type="curve" smooth="yes"/>
      <point x="455" y="436"/>
      <point x="516" y="371"/>
      <point x="490" y="259" type="curve" smooth="yes"/>
      <point x="464" y="146"/>
      <point x="373" y="81"/>
    </contour>
    <contour>
      <point x="380" y="516" type="move" name="top"/>
    </contour>
  </outline>
</glyph>
<glyph name="h" format="1">
  <advance width="626"/>
  <unicode hex="0068"/>
  <note>
    h
  </note>
  <outline>
    <contour>
      <point x="388" y="0" type="line"/>
      <point x="496" y="0" type="line"/>
      <point x="570" y="318" type="line" smooth="yes"/>
      <point x="603" y="460"/>
      <point x="527" y="533"/>
      <point x="411" y="533" type="curve" smooth="yes"/>
      <point x="285" y="533"/>
      <point x="232" y="453"/>
      <point x="232" y="453" type="curve"/>
      <point x="195" y="291" type="line"/>
      <point x="217" y="388"/>
      <point x="298" y="437"/>
      <point x="373" y="437" type="curve" smooth="yes"/>
      <point x="444" y="437"/>
      <point x="478" y="390"/>
      <point x="459" y="307" type="curve" smooth="yes"/>
    </contour>
    <component base="l"/>
    <contour>
      <point x="249" y="574" type="move" name="center"/>
    </contour>
    <contour>
      <point x="411" y="680" type="move" name="top"/>
    </contour>
  </outline>
</glyph>
<glyph name="i" format="1">
  <advance width="283"/>
  <unicode hex="0069"/>
  <note>
    i
  </note>
  <outline>
    <contour>
      <point x="32" y="0" type="line"/>
      <point x="140" y="0" type="line"/>
      <point x="260" y="518" type="line"/>
      <point x="152" y="518" type="line"/>
    </contour>
    <contour>
      <point x="218" y="591" type="curve" smooth="yes"/>
      <point x="253" y="591"/>
      <point x="286" y="618"/>
      <point x="294" y="652" type="curve" smooth="yes"/>
      <point x="302" y="687"/>
      <point x="281" y="714"/>
      <point x="246" y="714" type="curve" smooth="yes"/>
      <point x="212" y="714"/>
      <point x="179" y="687"/>
      <point x="171" y="652" type="curve" smooth="yes"/>
      <point x="163" y="618"/>
      <point x="184" y="591"/>
    </contour>
    <contour>
      <point x="141" y="1" type="move" name="ogonek"/>
    </contour>
  </outline>
</glyph>
<glyph name="j" format="1">
  <advance width="268"/>
  <unicode hex="006A"/>
  <note>
    j
  </note>
  <outline>
    <contour>
      <point x="-74" y="-224" type="curve" smooth="yes"/>
      <point x="60" y="-224"/>
      <point x="112" y="-108"/>
      <point x="130" y="-31" type="curve" smooth="yes"/>
      <point x="257" y="518" type="line"/>
      <point x="149" y="518" type="line"/>
      <point x="20" y="-40" type="line" smooth="yes"/>
      <point x="11" y="-81"/>
      <point x="-14" y="-128"/>
      <point x="-67" y="-128" type="curve" smooth="yes"/>
      <point x="-147" y="-128"/>
      <point x="-180" y="-49"/>
      <point x="-180" y="-49" type="curve"/>
      <point x="-206" y="-161" type="line"/>
      <point x="-206" y="-161"/>
      <point x="-184" y="-224"/>
    </contour>
    <contour>
      <point x="212" y="591" type="curve" smooth="yes"/>
      <point x="247" y="591"/>
      <point x="280" y="618"/>
      <point x="288" y="652" type="curve" smooth="yes"/>
      <point x="296" y="687"/>
      <point x="275" y="714"/>
      <point x="240" y="714" type="curve" smooth="yes"/>
      <point x="206" y="714"/>
      <point x="173" y="687"/>
      <point x="165" y="652" type="curve" smooth="yes"/>
      <point x="157" y="618"/>
      <point x="178" y="591"/>
    </contour>
  </outline>
</glyph>
<glyph name="k" format="1">
  <advance width="576"/>
  <unicode hex="006B"/>
  <note>
    k
  </note>
  <outline>
    <contour>
      <point x="20" y="0" type="line"/>
      <point x="128" y="0" type="line"/>
      <point x="178" y="217" type="line"/>
      <point x="241" y="261" type="line"/>
      <point x="394" y="0" type="line"/>
      <point x="526" y="0" type="line"/>
      <point x="331" y="324" type="line"/>
      <point x="606" y="517" type="line"/>
      <point x="451" y="517" type="line"/>
      <point x="142" y="301" type="line"/>
      <point x="193" y="282" type="line"/>
      <point x="289" y="697" type="line"/>
      <point x="177" y="679" type="line"/>
    </contour>
    <contour>
      <point x="254" y="0" type="move" name="bottom"/>
    </contour>
  </outline>
</glyph>
<glyph name="l" format="1">
  <advance width="268"/>
  <unicode hex="006C"/>
  <note>
    l
  </note>
  <outline>
    <contour>
      <point x="20" y="0" type="line"/>
      <point x="128" y="0" type="line"/>
      <point x="289" y="697" type="line"/>
      <point x="177" y="679" type="line"/>
    </contour>
    <contour>
      <point x="66" y="0" type="move" name="bottom"/>
    </contour>
    <contour>
      <point x="267" y="401" type="move" name="caron-t"/>
    </contour>
    <contour>
      <point x="162" y="368" type="move" name="center"/>
    </contour>
    <contour>
      <point x="331" y="355" type="move" name="middle"/>
    </contour>
    <contour>
      <point x="231" y="679" type="move" name="top"/>
    </contour>
  </outline>
</glyph>
<glyph name="m" format="1">
  <advance width="941"/>
  <unicode hex="006D"/>
  <note>
    m
  </note>
  <outline>
    <contour>
      <point x="364" y="0" type="line"/>
      <point x="472" y="0" type="line"/>
      <point x="540" y="291" type="line" smooth="yes"/>
      <point x="562" y="388"/>
      <point x="638" y="437"/>
      <point x="703" y="437" type="curve" smooth="yes"/>
      <point x="774" y="437"/>
      <point x="793" y="390"/>
      <point x="774" y="307" type="curve" smooth="yes"/>
      <point x="703" y="0" type="line"/>
      <point x="811" y="0" type="line"/>
      <point x="885" y="318" type="line" smooth="yes"/>
      <point x="918" y="460"/>
      <point x="857" y="533"/>
      <point x="741" y="533" type="curve" smooth="yes"/>
      <point x="643" y="533"/>
      <point x="580" y="493"/>
      <point x="546" y="448" type="curve"/>
      <point x="526" y="504"/>
      <point x="475" y="533"/>
      <point x="402" y="533" type="curve" smooth="yes"/>
      <point x="286" y="533"/>
      <point x="238" y="453"/>
      <point x="238" y="453" type="curve"/>
      <point x="201" y="291" type="line"/>
      <point x="223" y="388"/>
      <point x="299" y="437"/>
      <point x="364" y="437" type="curve" smooth="yes"/>
      <point x="435" y="437"/>
      <point x="454" y="390"/>
      <point x="435" y="307" type="curve" smooth="yes"/>
    </contour>
    <component base="idotless"/>
  </outline>
</glyph>
<glyph name="n" format="1">
  <advance width="633"/>
  <unicode hex="006E"/>
  <note>
    n
  </note>
  <outline>
    <contour>
      <point x="395" y="0" type="line"/>
      <point x="503" y="0" type="line"/>
      <point x="577" y="318" type="line" smooth="yes"/>
      <point x="610" y="460"/>
      <point x="534" y="533"/>
      <point x="418" y="533" type="curve" smooth="yes"/>
      <point x="292" y="533"/>
      <point x="239" y="453"/>
      <point x="239" y="453" type="curve"/>
      <point x="202" y="291" type="line"/>
      <point x="224" y="388"/>
      <point x="305" y="437"/>
      <point x="380" y="437" type="curve" smooth="yes"/>
      <point x="451" y="437"/>
      <point x="485" y="390"/>
      <point x="466" y="307" type="curve" smooth="yes"/>
    </contour>
    <component base="idotless"/>
    <contour>
      <point x="254" y="0" type="move" name="bottom"/>
    </contour>
    <contour>
      <point x="408" y="516" type="move" name="top"/>
    </contour>
  </outline>
</glyph>
<glyph name="o" format="1">
  <advance width="646"/>
  <unicode hex="006F"/>
  <note>
    o
  </note>
  <outline>
    <contour>
      <point x="260" y="-15" type="curve" smooth="yes"/>
      <point x="417" y="-15"/>
      <point x="571" y="107"/>
      <point x="606" y="258" type="curve" smooth="yes"/>
      <point x="641" y="409"/>
      <point x="543" y="532"/>
      <point x="386" y="532" type="curve" smooth="yes"/>
      <point x="229" y="532"/>
      <point x="75" y="409"/>
      <point x="40" y="258" type="curve" smooth="yes"/>
      <point x="5" y="107"/>
      <point x="103" y="-15"/>
    </contour>
    <contour>
      <point x="282" y="82" type="curve" smooth="yes"/>
      <point x="180" y="82"/>
      <point x="121" y="161"/>
      <point x="144" y="258" type="curve" smooth="yes"/>
      <point x="167" y="356"/>
      <point x="262" y="435"/>
      <point x="364" y="435" type="curve" smooth="yes"/>
      <point x="466" y="435"/>
      <point x="525" y="356"/>
      <point x="502" y="258" type="curve" smooth="yes"/>
      <point x="479" y="161"/>
      <point x="384" y="82"/>
    </contour>
    <contour>
      <point x="442" y="0" type="move" name="#exit"/>
    </contour>
    <contour>
      <point x="323" y="258" type="move" name="center"/>
    </contour>
    <contour>
      <point x="382" y="516" type="move" name="top"/>
    </contour>
  </outline>
</glyph>
<glyph name="p" format="1">
  <advance width="672"/>
  <unicode hex="0070"/>
  <note>
    p
  </note>
  <outline>
    <contour>
      <point x="-29" y="-212" type="line"/>
      <point x="79" y="-212" type="line"/>
      <point x="141" y="55" type="line"/>
      <point x="166" y="18"/>
      <point x="214" y="-15"/>
      <point x="299" y="-15" type="curve" smooth="yes"/>
      <point x="457" y="-15"/>
      <point x="597" y="107"/>
      <point x="632" y="258" type="curve" smooth="yes"/>
      <point x="667" y="409"/>
      <point x="583" y="532"/>
      <point x="425" y="532" type="curve" smooth="yes"/>
      <point x="350" y="532"/>
      <point x="280" y="503"/>
      <point x="236" y="467" type="curve"/>
      <point x="248" y="517" type="line"/>
      <point x="140" y="517" type="line"/>
    </contour>
    <contour>
      <point x="323" y="81" type="curve" smooth="yes"/>
      <point x="226" y="81"/>
      <point x="156" y="146"/>
      <point x="182" y="258" type="curve" smooth="yes"/>
      <point x="208" y="371"/>
      <point x="308" y="436"/>
      <point x="405" y="436" type="curve" smooth="yes"/>
      <point x="502" y="436"/>
      <point x="550" y="356"/>
      <point x="527" y="258" type="curve" smooth="yes"/>
      <point x="504" y="160"/>
      <point x="420" y="81"/>
    </contour>
  </outline>
</glyph>
<glyph name="q" format="1">
  <advance width="669"/>
  <unicode hex="0071"/>
  <note>
    q
  </note>
  <outline>
    <contour>
      <point x="375" y="-212" type="line"/>
      <point x="483" y="-212" type="line"/>
      <point x="652" y="517" type="line"/>
      <point x="544" y="517" type="line"/>
      <point x="532" y="467" type="line"/>
      <point x="504" y="503"/>
      <point x="448" y="532"/>
      <point x="373" y="532" type="curve" smooth="yes"/>
      <point x="215" y="532"/>
      <point x="75" y="409"/>
      <point x="40" y="258" type="curve" smooth="yes"/>
      <point x="5" y="107"/>
      <point x="89" y="-15"/>
      <point x="247" y="-15" type="curve" smooth="yes"/>
      <point x="332" y="-15"/>
      <point x="394" y="18"/>
      <point x="437" y="55" type="curve"/>
    </contour>
    <contour>
      <point x="267" y="81" type="curve" smooth="yes"/>
      <point x="170" y="81"/>
      <point x="122" y="160"/>
      <point x="145" y="258" type="curve" smooth="yes"/>
      <point x="168" y="356"/>
      <point x="252" y="436"/>
      <point x="349" y="436" type="curve" smooth="yes"/>
      <point x="446" y="436"/>
      <point x="516" y="371"/>
      <point x="490" y="258" type="curve" smooth="yes"/>
      <point x="464" y="146"/>
      <point x="364" y="81"/>
    </contour>
  </outline>
</glyph>
<glyph name="r" format="1">
  <advance width="410"/>
  <unicode hex="0072"/>
  <note>
    r
  </note>
  <outline>
    <contour>
      <point x="20" y="0" type="line"/>
      <point x="128" y="0" type="line"/>
      <point x="188" y="259" type="line" smooth="yes"/>
      <point x="216" y="369"/>
      <point x="312" y="444"/>
      <point x="443" y="444" type="curve"/>
      <point x="463" y="533" type="line"/>
      <point x="353" y="533"/>
      <point x="263" y="481"/>
      <point x="225" y="418" type="curve"/>
      <point x="248" y="518" type="line"/>
      <point x="140" y="518" type="line"/>
    </contour>
    <contour>
      <point x="67" y="0" type="move" name="bottom"/>
    </contour>
    <contour>
      <point x="284" y="516" type="move" name="top"/>
    </contour>
  </outline>
</glyph>
<glyph name="s" format="1">
  <advance width="437"/>
  <unicode hex="0073"/>
  <note>
    s
  </note>
  <outline>
    <contour>
      <point x="140" y="-15" type="curve" smooth="yes"/>
      <point x="285" y="-15"/>
      <point x="352" y="63"/>
      <point x="370" y="142" type="curve" smooth="yes"/>
      <point x="388" y="220"/>
      <point x="357" y="254"/>
      <point x="297" y="294" type="curve" smooth="yes"/>
      <point x="220" y="346"/>
      <point x="195" y="357"/>
      <point x="202" y="390" type="curve" smooth="yes"/>
      <point x="209" y="417"/>
      <point x="237" y="436"/>
      <point x="295" y="436" type="curve" smooth="yes"/>
      <point x="347" y="436"/>
      <point x="388" y="414"/>
      <point x="406" y="392" type="curve"/>
      <point x="430" y="498" type="line"/>
      <point x="409" y="513"/>
      <point x="357" y="532"/>
      <point x="294" y="532" type="curve" smooth="yes"/>
      <point x="200" y="532"/>
      <point x="120" y="476"/>
      <point x="100" y="388" type="curve" smooth="yes"/>
      <point x="80" y="302"/>
      <point x="134" y="269"/>
      <point x="194" y="231" type="curve" smooth="yes"/>
      <point x="247" y="197"/>
      <point x="276" y="174"/>
      <point x="268" y="136" type="curve" smooth="yes"/>
      <point x="260" y="102"/>
      <point x="220" y="81"/>
      <point x="151" y="81" type="curve" smooth="yes"/>
      <point x="67" y="81"/>
      <point x="13" y="140"/>
      <point x="13" y="140" type="curve"/>
      <point x="-12" y="34" type="line"/>
      <point x="-12" y="34"/>
      <point x="52" y="-15"/>
    </contour>
    <contour>
      <point x="132" y="0" type="move" name="bottom"/>
    </contour>
    <contour>
      <point x="298" y="516" type="move" name="top"/>
    </contour>
  </outline>
</glyph>
<glyph name="t" format="1">
  <advance width="502"/>
  <unicode hex="0074"/>
  <note>
    t
  </note>
  <outline>
    <contour>
      <point x="144" y="0" type="line"/>
      <point x="252" y="0" type="line"/>
      <point x="355" y="443" type="line"/>
      <point x="532" y="443" type="line"/>
      <point x="552" y="531" type="line"/>
      <point x="375" y="531" type="line"/>
      <point x="413" y="696" type="line"/>
      <point x="48" y="443" type="line"/>
      <point x="247" y="443" type="line"/>
    </contour>
    <contour>
      <point x="190" y="0" type="move" name="bottom"/>
    </contour>
    <contour>
      <point x="384" y="401" type="move" name="caron-t"/>
    </contour>
  </outline>
</glyph>
<glyph name="u" format="1">
  <advance width="610"/>
  <unicode hex="0075"/>
  <note>
    u
  </note>
  <outline>
    <contour>
      <point x="242" y="-16" type="curve" smooth="yes"/>
      <point x="307" y="-16"/>
      <point x="478" y="-11"/>
      <point x="529" y="209" type="curve" smooth="yes"/>
      <point x="600" y="517" type="line"/>
      <point x="492" y="517" type="line"/>
      <point x="420" y="206" type="line"/>
      <point x="420" y="206"/>
      <point x="397" y="79"/>
      <point x="264" y="79" type="curve" smooth="yes"/>
      <point x="131" y="79"/>
      <point x="166" y="206"/>
      <point x="166" y="206" type="curve"/>
      <point x="238" y="517" type="line"/>
      <point x="130" y="517" type="line"/>
      <point x="59" y="209" type="line" smooth="yes"/>
      <point x="8" y="-11"/>
      <point x="177" y="-16"/>
    </contour>
    <contour>
      <point x="311" y="-6" type="move" name="ogonek"/>
    </contour>
    <contour>
      <point x="364" y="516" type="move" name="top"/>
    </contour>
  </outline>
</glyph>
<glyph name="v" format="1">
  <advance width="550"/>
  <unicode hex="0076"/>
  <note>
    v
  </note>
  <outline>
    <contour>
      <point x="206" y="-41" type="line"/>
      <point x="605" y="517" type="line"/>
      <point x="492" y="517" type="line"/>
      <point x="258" y="179" type="line"/>
      <point x="178" y="517" type="line"/>
      <point x="65" y="517" type="line"/>
    </contour>
  </outline>
</glyph>
<glyph name="w" format="1">
  <advance width="747"/>
  <unicode hex="0077"/>
  <note>
    w
  </note>
  <outline>
    <contour>
      <point x="161" y="-41" type="line"/>
      <point x="382" y="304" type="line"/>
      <point x="448" y="-41" type="line"/>
      <point x="777" y="517" type="line"/>
      <point x="664" y="517" type="line"/>
      <point x="500" y="218" type="line"/>
      <point x="437" y="538" type="line"/>
      <point x="237" y="219" type="line"/>
      <point x="203" y="517" type="line"/>
      <point x="90" y="517" type="line"/>
    </contour>
    <contour>
      <point x="433" y="516" type="move" name="top"/>
    </contour>
  </outline>
</glyph>
<glyph name="x" format="1">
  <advance width="623"/>
  <unicode hex="0078"/>
  <note>
    x
  </note>
  <outline>
    <contour>
      <point x="-35" y="0" type="line"/>
      <point x="110" y="0" type="line"/>
      <point x="352" y="236" type="line"/>
      <point x="274" y="245" type="line"/>
      <point x="408" y="0" type="line"/>
      <point x="538" y="0" type="line"/>
      <point x="355" y="312" type="line"/>
      <point x="345" y="236" type="line"/>
      <point x="638" y="517" type="line"/>
      <point x="500" y="517" type="line"/>
      <point x="280" y="312" type="line"/>
      <point x="361" y="303" type="line"/>
      <point x="235" y="517" type="line"/>
      <point x="105" y="517" type="line"/>
      <point x="277" y="237" type="line"/>
      <point x="287" y="312" type="line"/>
    </contour>
  </outline>
</glyph>
<glyph name="y" format="1">
  <advance width="586"/>
  <unicode hex="0079"/>
  <note>
    y
  </note>
  <outline>
    <contour>
      <point x="-18" y="-208" type="line"/>
      <point x="109" y="-208" type="line"/>
      <point x="626" y="517" type="line"/>
      <point x="501" y="517" type="line"/>
      <point x="233" y="134" type="line"/>
      <point x="284" y="127" type="line"/>
      <point x="193" y="517" type="line"/>
      <point x="80" y="517" type="line"/>
      <point x="202" y="13" type="line"/>
      <point x="208" y="99" type="line"/>
    </contour>
    <contour>
      <point x="352" y="516" type="move" name="top"/>
    </contour>
  </outline>
</glyph>
<glyph name="z" format="1">
  <advance width="576"/>
  <unicode hex="007A"/>
  <note>
    z
  </note>
  <outline>
    <contour>
      <point x="-10" y="0" type="line"/>
      <point x="466" y="0" type="line"/>
      <point x="488" y="94" type="line"/>
      <point x="175" y="94" type="line"/>
      <point x="557" y="434" type="line"/>
      <point x="576" y="518" type="line"/>
      <point x="130" y="518" type="line"/>
      <point x="108" y="424" type="line"/>
      <point x="400" y="424" type="line"/>
      <point x="7" y="74" type="line"/>
    </contour>
    <contour>
      <point x="347" y="516" type="move" name="top"/>
    </contour>
  </outline>
</glyph>
<glyph name="braceleft" format="1">
  <advance width="366"/>
  <unicode hex="007B"/>
  <outline>
    <contour>
      <point x="207" y="-125" type="curve"/>
      <point x="229" y="-33" type="line"/>
      <point x="167" y="-33"/>
      <point x="159" y="-6"/>
      <point x="176" y="67" type="curve" smooth="yes"/>
      <point x="206" y="200"/>
      <point x="240" y="289"/>
      <point x="166" y="313" type="curve"/>
      <point x="251" y="336"/>
      <point x="258" y="424"/>
      <point x="289" y="558" type="curve" smooth="yes"/>
      <point x="306" y="631"/>
      <point x="326" y="658"/>
      <point x="388" y="658" type="curve"/>
      <point x="409" y="750" type="line"/>
      <point x="281" y="748"/>
      <point x="223" y="697"/>
      <point x="200" y="598" type="curve" smooth="yes"/>
      <point x="155" y="403"/>
      <point x="151" y="359"/>
      <point x="93" y="359" type="curve"/>
      <point x="72" y="266" type="line"/>
      <point x="130" y="266"/>
      <point x="116" y="232"/>
      <point x="69" y="27" type="curve" smooth="yes"/>
      <point x="46" y="-72"/>
      <point x="80" y="-123"/>
    </contour>
  </outline>
</glyph>
<glyph name="bar" format="1">
  <advance width="246"/>
  <unicode hex="007C"/>
  <note>
    bar
  </note>
  <outline>
    <contour>
      <point x="3" y="-50" type="line"/>
      <point x="100" y="-50" type="line"/>
      <point x="282" y="739" type="line"/>
      <point x="185" y="739" type="line"/>
    </contour>
  </outline>
</glyph>
<glyph name="braceright" format="1">
  <advance width="366"/>
  <unicode hex="007D"/>
  <outline>
    <contour>
      <point x="-19" y="-125" type="line"/>
      <point x="110" y="-123"/>
      <point x="168" y="-72"/>
      <point x="191" y="27" type="curve" smooth="yes"/>
      <point x="238" y="232"/>
      <point x="240" y="266"/>
      <point x="298" y="266" type="curve"/>
      <point x="319" y="359" type="line"/>
      <point x="261" y="359"/>
      <point x="277" y="403"/>
      <point x="322" y="598" type="curve" smooth="yes"/>
      <point x="345" y="697"/>
      <point x="311" y="748"/>
      <point x="183" y="750" type="curve"/>
      <point x="162" y="658" type="line"/>
      <point x="224" y="658"/>
      <point x="232" y="631"/>
      <point x="215" y="558" type="curve" smooth="yes"/>
      <point x="184" y="424"/>
      <point x="151" y="336"/>
      <point x="226" y="313" type="curve"/>
      <point x="140" y="289"/>
      <point x="132" y="200"/>
      <point x="102" y="67" type="curve" smooth="yes"/>
      <point x="85" y="-6"/>
      <point x="65" y="-33"/>
      <point x="3" y="-33" type="curve"/>
    </contour>
  </outline>
</glyph>
<glyph name="asciitilde" format="1">
  <advance width="547"/>
  <unicode hex="007E"/>
  <outline>
    <contour>
      <point x="360" y="204" type="curve" smooth="yes"/>
      <point x="433" y="204"/>
      <point x="482" y="253"/>
      <point x="509" y="311" type="curve"/>
      <point x="404" y="341" type="line"/>
      <point x="394" y="321"/>
      <point x="386" y="296"/>
      <point x="355" y="296" type="curve" smooth="yes"/>
      <point x="335" y="296"/>
      <point x="311" y="310"/>
      <point x="289" y="321" type="curve" smooth="yes"/>
      <point x="258" y="337"/>
      <point x="231" y="348"/>
      <point x="195" y="348" type="curve" smooth="yes"/>
      <point x="122" y="348"/>
      <point x="72" y="299"/>
      <point x="46" y="241" type="curve"/>
      <point x="151" y="211" type="line"/>
      <point x="161" y="231"/>
      <point x="169" y="256"/>
      <point x="200" y="256" type="curve" smooth="yes"/>
      <point x="220" y="256"/>
      <point x="244" y="240"/>
      <point x="266" y="231" type="curve" smooth="yes"/>
      <point x="304" y="215"/>
      <point x="330" y="204"/>
    </contour>
    <contour>
      <point x="277" y="517" type="move" name="_top"/>
    </contour>
  </outline>
</glyph>
<glyph name="exclamdown" format="1">
  <advance width="344"/>
  <unicode hex="00A1"/>
  <outline>
    <contour>
      <point x="14" y="-175" type="line"/>
      <point x="131" y="-175" type="line"/>
      <point x="232" y="263" type="line"/>
      <point x="115" y="263" type="line"/>
    </contour>
    <contour>
      <point x="198" y="371" type="curve" smooth="yes"/>
      <point x="242" y="371"/>
      <point x="286" y="407"/>
      <point x="296" y="451" type="curve" smooth="yes"/>
      <point x="307" y="497"/>
      <point x="279" y="531"/>
      <point x="235" y="531" type="curve" smooth="yes"/>
      <point x="189" y="531"/>
      <point x="147" y="497"/>
      <point x="136" y="451" type="curve" smooth="yes"/>
      <point x="126" y="407"/>
      <point x="152" y="371"/>
    </contour>
  </outline>
</glyph>
<glyph name="cent" format="1">
  <advance width="500"/>
  <unicode hex="00A2"/>
  <note>
    cent
  </note>
  <outline>
    <contour>
      <point x="348" y="-16" type="curve"/>
      <point x="371" y="87" type="line"/>
      <point x="269" y="87"/>
      <point x="162" y="133"/>
      <point x="192" y="262" type="curve" smooth="yes"/>
      <point x="222" y="391"/>
      <point x="351" y="441"/>
      <point x="453" y="441" type="curve"/>
      <point x="476" y="542" type="line"/>
      <point x="452" y="542"/>
      <point x="428" y="540"/>
      <point x="403" y="536" type="curve"/>
      <point x="434" y="671" type="line"/>
      <point x="329" y="671" type="line"/>
      <point x="291" y="505" type="line"/>
      <point x="193" y="464"/>
      <point x="111" y="386"/>
      <point x="83" y="262" type="curve" smooth="yes"/>
      <point x="36" y="61"/>
      <point x="186" y="-16"/>
    </contour>
    <contour>
      <point x="145" y="-125" type="line"/>
      <point x="251" y="-125" type="line"/>
      <point x="297" y="71" type="line"/>
      <point x="191" y="71" type="line"/>
    </contour>
  </outline>
</glyph>
<glyph name="sterling" format="1">
  <advance width="642"/>
  <unicode hex="00A3"/>
  <note>
    sterling
  </note>
  <outline>
    <contour>
      <point x="79" y="0" type="line"/>
      <point x="524" y="0" type="line"/>
      <point x="549" y="103" type="line"/>
      <point x="234" y="103" type="line"/>
      <point x="282" y="310" type="line"/>
      <point x="471" y="310" type="line"/>
      <point x="495" y="413" type="line"/>
      <point x="307" y="413" type="line"/>
      <point x="329" y="508" type="line"/>
      <point x="328" y="508" type="line"/>
      <point x="340" y="560"/>
      <point x="393" y="602"/>
      <point x="447" y="602" type="curve" smooth="yes"/>
      <point x="501" y="602"/>
      <point x="536" y="560"/>
      <point x="524" y="508" type="curve"/>
      <point x="632" y="508" type="line"/>
      <point x="658" y="622"/>
      <point x="582" y="714"/>
      <point x="468" y="714" type="curve" smooth="yes"/>
      <point x="341" y="714"/>
      <point x="219" y="607"/>
      <point x="193" y="493" type="curve" smooth="yes"/>
      <point x="175" y="413" type="line"/>
      <point x="70" y="413" type="line"/>
      <point x="46" y="310" type="line"/>
      <point x="151" y="310" type="line"/>
    </contour>
  </outline>
</glyph>
<glyph name="currency" format="1">
  <advance width="630"/>
  <unicode hex="00A4"/>
  <outline>
    <contour>
      <point x="124" y="91" type="line"/>
      <point x="180" y="136" type="line"/>
      <point x="208" y="119"/>
      <point x="241" y="109"/>
      <point x="280" y="109" type="curve" smooth="yes"/>
      <point x="319" y="109"/>
      <point x="358" y="119"/>
      <point x="394" y="136" type="curve"/>
      <point x="428" y="91" type="line"/>
      <point x="518" y="164" type="line"/>
      <point x="485" y="207" type="line"/>
      <point x="512" y="239"/>
      <point x="533" y="276"/>
      <point x="542" y="316" type="curve" smooth="yes"/>
      <point x="552" y="356"/>
      <point x="548" y="394"/>
      <point x="535" y="425" type="curve"/>
      <point x="588" y="468" type="line"/>
      <point x="532" y="541" type="line"/>
      <point x="477" y="496" type="line"/>
      <point x="450" y="514"/>
      <point x="415" y="524"/>
      <point x="376" y="524" type="curve" smooth="yes"/>
      <point x="337" y="524"/>
      <point x="298" y="514"/>
      <point x="263" y="496" type="curve"/>
      <point x="228" y="541" type="line"/>
      <point x="138" y="468" type="line"/>
      <point x="171" y="425" type="line"/>
      <point x="144" y="394"/>
      <point x="124" y="356"/>
      <point x="114" y="316" type="curve" smooth="yes"/>
      <point x="105" y="276"/>
      <point x="108" y="239"/>
      <point x="121" y="207" type="curve"/>
      <point x="68" y="164" type="line"/>
    </contour>
    <contour>
      <point x="303" y="207" type="curve" smooth="yes"/>
      <point x="240" y="207"/>
      <point x="202" y="256"/>
      <point x="216" y="316" type="curve" smooth="yes"/>
      <point x="230" y="377"/>
      <point x="291" y="426"/>
      <point x="354" y="426" type="curve" smooth="yes"/>
      <point x="417" y="426"/>
      <point x="454" y="377"/>
      <point x="440" y="316" type="curve" smooth="yes"/>
      <point x="426" y="256"/>
      <point x="366" y="207"/>
    </contour>
    <contour>
      <point x="299" y="258" type="move" name="center"/>
    </contour>
    <contour>
      <point x="358" y="516" type="move" name="top"/>
    </contour>
  </outline>
</glyph>
<glyph name="yen" format="1">
  <advance width="653"/>
  <unicode hex="00A5"/>
  <outline>
    <contour>
      <point x="119" y="241" type="line"/>
      <point x="527" y="241" type="line"/>
      <point x="551" y="343" type="line"/>
      <point x="143" y="343" type="line"/>
    </contour>
    <contour>
      <point x="84" y="90" type="line"/>
      <point x="492" y="90" type="line"/>
      <point x="516" y="192" type="line"/>
      <point x="108" y="192" type="line"/>
    </contour>
    <component base="Y" yxScale="0.231" xOffset="-60"/>
  </outline>
</glyph>
<glyph name="brokenbar" format="1">
  <advance width="235"/>
  <unicode hex="00A6"/>
  <outline>
    <contour>
      <point x="-15" y="-125" type="line"/>
      <point x="72" y="-125" type="line"/>
      <point x="155" y="231" type="line"/>
      <point x="68" y="231" type="line"/>
    </contour>
    <contour>
      <point x="103" y="383" type="line"/>
      <point x="190" y="383" type="line"/>
      <point x="272" y="739" type="line"/>
      <point x="185" y="739" type="line"/>
    </contour>
  </outline>
</glyph>
<glyph name="section" format="1">
  <advance width="487"/>
  <unicode hex="00A7"/>
  <outline>
    <contour>
      <point x="112" y="-93" type="curve" smooth="yes"/>
      <point x="257" y="-93"/>
      <point x="333" y="-19"/>
      <point x="353" y="70" type="curve" smooth="yes"/>
      <point x="364" y="115"/>
      <point x="356" y="157"/>
      <point x="310" y="192" type="curve"/>
      <point x="373" y="190"/>
      <point x="446" y="254"/>
      <point x="460" y="315" type="curve" smooth="yes"/>
      <point x="479" y="396"/>
      <point x="428" y="435"/>
      <point x="391" y="467" type="curve" smooth="yes"/>
      <point x="356" y="497"/>
      <point x="308" y="526"/>
      <point x="316" y="562" type="curve" smooth="yes"/>
      <point x="323" y="594"/>
      <point x="353" y="613"/>
      <point x="396" y="613" type="curve" smooth="yes"/>
      <point x="448" y="613"/>
      <point x="499" y="579"/>
      <point x="499" y="579" type="curve"/>
      <point x="519" y="665" type="line"/>
      <point x="519" y="665"/>
      <point x="476" y="699"/>
      <point x="413" y="699" type="curve" smooth="yes"/>
      <point x="315" y="699"/>
      <point x="228" y="640"/>
      <point x="208" y="552" type="curve" smooth="yes"/>
      <point x="197" y="505"/>
      <point x="222" y="472"/>
      <point x="266" y="434" type="curve"/>
      <point x="177" y="425"/>
      <point x="117" y="374"/>
      <point x="101" y="307" type="curve" smooth="yes"/>
      <point x="84" y="231"/>
      <point x="140" y="189"/>
      <point x="181" y="153" type="curve" smooth="yes"/>
      <point x="211" y="126"/>
      <point x="258" y="96"/>
      <point x="250" y="58" type="curve" smooth="yes"/>
      <point x="242" y="24"/>
      <point x="202" y="3"/>
      <point x="133" y="3" type="curve" smooth="yes"/>
      <point x="49" y="3"/>
      <point x="-5" y="62"/>
      <point x="-5" y="62" type="curve"/>
      <point x="-30" y="-44" type="line"/>
      <point x="-30" y="-44"/>
      <point x="24" y="-93"/>
    </contour>
    <contour>
      <point x="356" y="303" type="curve" smooth="yes"/>
      <point x="339" y="228"/>
      <point x="191" y="236"/>
      <point x="210" y="317" type="curve" smooth="yes"/>
      <point x="217" y="349"/>
      <point x="246" y="368"/>
      <point x="289" y="368" type="curve" smooth="yes"/>
      <point x="333" y="368"/>
      <point x="365" y="341"/>
    </contour>
    <contour>
      <point x="192" y="0" type="move" name="bottom"/>
    </contour>
    <contour>
      <point x="328" y="516" type="move" name="top"/>
    </contour>
  </outline>
</glyph>
<glyph name="dieresis" format="1">
  <advance width="376"/>
  <unicode hex="00A8"/>
  <outline>
    <contour>
      <point x="363" y="598" type="curve" smooth="yes"/>
      <point x="393" y="598"/>
      <point x="423" y="623"/>
      <point x="430" y="653" type="curve" smooth="yes"/>
      <point x="437" y="684"/>
      <point x="418" y="709"/>
      <point x="388" y="709" type="curve" smooth="yes"/>
      <point x="357" y="709"/>
      <point x="326" y="684"/>
      <point x="319" y="653" type="curve" smooth="yes"/>
      <point x="312" y="623"/>
      <point x="332" y="598"/>
    </contour>
    <contour>
      <point x="171" y="598" type="curve" smooth="yes"/>
      <point x="201" y="598"/>
      <point x="231" y="623"/>
      <point x="238" y="653" type="curve" smooth="yes"/>
      <point x="245" y="684"/>
      <point x="226" y="709"/>
      <point x="196" y="709" type="curve" smooth="yes"/>
      <point x="165" y="709"/>
      <point x="134" y="684"/>
      <point x="127" y="653" type="curve" smooth="yes"/>
      <point x="120" y="623"/>
      <point x="140" y="598"/>
    </contour>
    <contour>
      <point x="247" y="517" type="move" name="_top"/>
    </contour>
  </outline>
</glyph>
<glyph name="copyright" format="1">
  <advance width="849"/>
  <unicode hex="00A9"/>
  <note>
    copyright
  </note>
  <outline>
    <contour>
      <point x="349" y="-67" type="curve" smooth="yes"/>
      <point x="546" y="-67"/>
      <point x="743" y="92"/>
      <point x="788" y="289" type="curve" smooth="yes"/>
      <point x="834" y="486"/>
      <point x="710" y="646"/>
      <point x="513" y="646" type="curve" smooth="yes"/>
      <point x="316" y="646"/>
      <point x="121" y="486"/>
      <point x="75" y="289" type="curve" smooth="yes"/>
      <point x="30" y="92"/>
      <point x="152" y="-67"/>
    </contour>
    <contour>
      <point x="401" y="73" type="curve" smooth="yes"/>
      <point x="443" y="73"/>
      <point x="512" y="83"/>
      <point x="556" y="112" type="curve"/>
      <point x="573" y="187" type="line"/>
      <point x="573" y="187"/>
      <point x="513" y="144"/>
      <point x="418" y="144" type="curve" smooth="yes"/>
      <point x="327" y="144"/>
      <point x="279" y="205"/>
      <point x="298" y="289" type="curve" smooth="yes"/>
      <point x="316" y="367"/>
      <point x="396" y="434"/>
      <point x="477" y="434" type="curve" smooth="yes"/>
      <point x="575" y="434"/>
      <point x="608" y="372"/>
      <point x="608" y="372" type="curve"/>
      <point x="628" y="456" type="line"/>
      <point x="599" y="490"/>
      <point x="544" y="505"/>
      <point x="493" y="505" type="curve" smooth="yes"/>
      <point x="360" y="505"/>
      <point x="248" y="409"/>
      <point x="220" y="289" type="curve" smooth="yes"/>
      <point x="193" y="170"/>
      <point x="249" y="73"/>
    </contour>
    <contour>
      <point x="365" y="1" type="curve" smooth="yes"/>
      <point x="205" y="1"/>
      <point x="106" y="129"/>
      <point x="143" y="289" type="curve" smooth="yes"/>
      <point x="180" y="449"/>
      <point x="338" y="578"/>
      <point x="498" y="578" type="curve" smooth="yes"/>
      <point x="658" y="578"/>
      <point x="757" y="449"/>
      <point x="720" y="289" type="curve" smooth="yes"/>
      <point x="683" y="129"/>
      <point x="525" y="1"/>
    </contour>
    <contour>
      <point x="403" y="78" type="move" name="bottom"/>
    </contour>
    <contour>
      <point x="491" y="492" type="move" name="top"/>
    </contour>
  </outline>
</glyph>
<glyph name="guillemetleft" format="1">
  <advance width="504"/>
  <unicode hex="00AB"/>
  <note>
    guillemotleft
  </note>
  <outline>
    <contour>
      <point x="310" y="60" type="line"/>
      <point x="428" y="60" type="line"/>
      <point x="345" y="264" type="line"/>
      <point x="520" y="458" type="line"/>
      <point x="402" y="458" type="line"/>
      <point x="227" y="264" type="line"/>
    </contour>
    <contour>
      <point x="120" y="60" type="line"/>
      <point x="238" y="60" type="line"/>
      <point x="155" y="264" type="line"/>
      <point x="330" y="458" type="line"/>
      <point x="212" y="458" type="line"/>
      <point x="37" y="264" type="line"/>
    </contour>
  </outline>
</glyph>
<glyph name="logicalnot" format="1">
  <advance width="542"/>
  <unicode hex="00AC"/>
  <outline>
    <contour>
      <point x="338" y="99" type="line"/>
      <point x="455" y="99" type="line"/>
      <point x="512" y="347" type="line"/>
      <point x="70" y="347" type="line"/>
      <point x="47" y="245" type="line"/>
      <point x="372" y="245" type="line"/>
    </contour>
  </outline>
</glyph>
<glyph name="registered" format="1">
  <advance width="849"/>
  <unicode hex="00AE"/>
  <note>
    registered
  </note>
  <outline>
    <contour>
      <point x="349" y="-67" type="curve" smooth="yes"/>
      <point x="546" y="-67"/>
      <point x="743" y="92"/>
      <point x="788" y="289" type="curve" smooth="yes"/>
      <point x="834" y="486"/>
      <point x="710" y="646"/>
      <point x="513" y="646" type="curve" smooth="yes"/>
      <point x="316" y="646"/>
      <point x="121" y="486"/>
      <point x="75" y="289" type="curve" smooth="yes"/>
      <point x="30" y="92"/>
      <point x="152" y="-67"/>
    </contour>
    <contour>
      <point x="211" y="86" type="line"/>
      <point x="288" y="86" type="line"/>
      <point x="320" y="223" type="line"/>
      <point x="446" y="223" type="line"/>
      <point x="492" y="86" type="line"/>
      <point x="576" y="86" type="line"/>
      <point x="518" y="240" type="line"/>
      <point x="564" y="259"/>
      <point x="610" y="296"/>
      <point x="624" y="356" type="curve" smooth="yes"/>
      <point x="642" y="436"/>
      <point x="615" y="489"/>
      <point x="494" y="489" type="curve" smooth="yes"/>
      <point x="304" y="489" type="line"/>
    </contour>
    <contour>
      <point x="365" y="1" type="curve" smooth="yes"/>
      <point x="205" y="1"/>
      <point x="106" y="129"/>
      <point x="143" y="289" type="curve" smooth="yes"/>
      <point x="180" y="449"/>
      <point x="338" y="578"/>
      <point x="498" y="578" type="curve" smooth="yes"/>
      <point x="658" y="578"/>
      <point x="757" y="449"/>
      <point x="720" y="289" type="curve" smooth="yes"/>
      <point x="683" y="129"/>
      <point x="525" y="1"/>
    </contour>
    <contour>
      <point x="335" y="289" type="line"/>
      <point x="366" y="421" type="line"/>
      <point x="477" y="421" type="line" smooth="yes"/>
      <point x="526" y="421"/>
      <point x="556" y="409"/>
      <point x="544" y="356" type="curve" smooth="yes"/>
      <point x="534" y="315"/>
      <point x="508" y="289"/>
      <point x="446" y="289" type="curve" smooth="yes"/>
    </contour>
    <contour>
      <point x="379" y="79" type="move" name="bottom"/>
    </contour>
    <contour>
      <point x="451" y="502" type="move" name="top"/>
    </contour>
  </outline>
</glyph>
<glyph name="macron" format="1">
  <advance width="297"/>
  <unicode hex="00AF"/>
  <note>
    grave
  </note>
  <outline>
    <contour>
      <point x="89" y="601" type="line"/>
      <point x="366" y="601" type="line"/>
      <point x="387" y="691" type="line"/>
      <point x="110" y="691" type="line"/>
    </contour>
    <contour>
      <point x="209" y="517" type="move" name="_top"/>
    </contour>
  </outline>
</glyph>
<glyph name="degree" format="1">
  <advance width="318"/>
  <unicode hex="00B0"/>
  <note>
    degree
  </note>
  <outline>
    <contour>
      <point x="205" y="457" type="curve" smooth="yes"/>
      <point x="278" y="457"/>
      <point x="351" y="516"/>
      <point x="368" y="588" type="curve" smooth="yes"/>
      <point x="385" y="661"/>
      <point x="339" y="721"/>
      <point x="266" y="721" type="curve" smooth="yes"/>
      <point x="194" y="721"/>
      <point x="121" y="661"/>
      <point x="104" y="588" type="curve" smooth="yes"/>
      <point x="87" y="516"/>
      <point x="133" y="457"/>
    </contour>
    <contour>
      <point x="219" y="520" type="curve" smooth="yes"/>
      <point x="182" y="520"/>
      <point x="159" y="551"/>
      <point x="167" y="588" type="curve" smooth="yes"/>
      <point x="176" y="626"/>
      <point x="214" y="658"/>
      <point x="251" y="658" type="curve" smooth="yes"/>
      <point x="289" y="658"/>
      <point x="314" y="626"/>
      <point x="305" y="588" type="curve" smooth="yes"/>
      <point x="297" y="551"/>
      <point x="257" y="520"/>
    </contour>
  </outline>
</glyph>
<glyph name="plusminus" format="1">
  <advance width="542"/>
  <unicode hex="00B1"/>
  <outline>
    <contour>
      <point x="198" y="199" type="line"/>
      <point x="315" y="199" type="line"/>
      <point x="339" y="303" type="line"/>
      <point x="502" y="303" type="line"/>
      <point x="526" y="406" type="line"/>
      <point x="363" y="406" type="line"/>
      <point x="389" y="517" type="line"/>
      <point x="272" y="517" type="line"/>
      <point x="246" y="406" type="line"/>
      <point x="84" y="406" type="line"/>
      <point x="60" y="303" type="line"/>
      <point x="222" y="303" type="line"/>
    </contour>
    <contour>
      <point x="-10" y="0" type="line"/>
      <point x="432" y="0" type="line"/>
      <point x="456" y="102" type="line"/>
      <point x="14" y="102" type="line"/>
    </contour>
  </outline>
</glyph>
<glyph name="twosuperior" format="1">
  <advance width="319"/>
  <unicode hex="00B2"/>
  <outline>
    <contour>
      <point x="65" y="366" type="line"/>
      <point x="302" y="366" type="line"/>
      <point x="317" y="432" type="line"/>
      <point x="212" y="432" type="line"/>
      <point x="316" y="527" type="line" smooth="yes"/>
      <point x="336" y="545"/>
      <point x="351" y="569"/>
      <point x="356" y="594" type="curve" smooth="yes"/>
      <point x="370" y="651"/>
      <point x="332" y="699"/>
      <point x="272" y="699" type="curve" smooth="yes"/>
      <point x="212" y="699"/>
      <point x="152" y="651"/>
      <point x="138" y="594" type="curve" smooth="yes"/>
      <point x="127" y="545"/>
      <point x="153" y="503"/>
      <point x="198" y="492" type="curve"/>
    </contour>
    <contour>
      <point x="238" y="555" type="curve" smooth="yes"/>
      <point x="215" y="555"/>
      <point x="203" y="572"/>
      <point x="208" y="594" type="curve" smooth="yes"/>
      <point x="213" y="615"/>
      <point x="233" y="633"/>
      <point x="256" y="633" type="curve" smooth="yes"/>
      <point x="278" y="633"/>
      <point x="291" y="615"/>
      <point x="286" y="594" type="curve" smooth="yes"/>
      <point x="281" y="572"/>
      <point x="260" y="555"/>
    </contour>
  </outline>
</glyph>
<glyph name="threesuperior" format="1">
  <advance width="298"/>
  <unicode hex="00B3"/>
  <outline>
    <contour>
      <point x="172" y="358" type="curve" smooth="yes"/>
      <point x="232" y="358"/>
      <point x="292" y="405"/>
      <point x="305" y="463" type="curve" smooth="yes"/>
      <point x="315" y="505"/>
      <point x="300" y="534"/>
      <point x="266" y="546" type="curve"/>
      <point x="353" y="680" type="line"/>
      <point x="151" y="680" type="line"/>
      <point x="136" y="614" type="line"/>
      <point x="250" y="614" type="line"/>
      <point x="178" y="502" type="line"/>
      <point x="205" y="502" type="line" smooth="yes"/>
      <point x="227" y="502"/>
      <point x="240" y="484"/>
      <point x="235" y="463" type="curve" smooth="yes"/>
      <point x="230" y="441"/>
      <point x="209" y="424"/>
      <point x="187" y="424" type="curve" smooth="yes"/>
      <point x="164" y="424"/>
      <point x="152" y="441"/>
      <point x="157" y="464" type="curve"/>
      <point x="87" y="464" type="line"/>
      <point x="74" y="405"/>
      <point x="112" y="358"/>
    </contour>
  </outline>
</glyph>
<glyph name="acute" format="1">
  <advance width="263"/>
  <unicode hex="00B4"/>
  <note>
    grave
  </note>
  <outline>
    <contour>
      <point x="171" y="586" type="line"/>
      <point x="272" y="586" type="line"/>
      <point x="473" y="757" type="line"/>
      <point x="340" y="757" type="line"/>
    </contour>
    <contour>
      <point x="192" y="517" type="move" name="_top"/>
    </contour>
  </outline>
</glyph>
<glyph name="micro" format="1">
  <advance width="677"/>
  <unicode hex="00B5"/>
  <outline>
    <contour>
      <point x="-50" y="-216" type="line"/>
      <point x="58" y="-216" type="line"/>
      <point x="112" y="15" type="line"/>
      <point x="145" y="-9"/>
      <point x="190" y="-16"/>
      <point x="232" y="-16" type="curve" smooth="yes"/>
      <point x="290" y="-16"/>
      <point x="354" y="-3"/>
      <point x="410" y="57" type="curve"/>
      <point x="440" y="-14"/>
      <point x="523" y="-16"/>
      <point x="594" y="-16" type="curve"/>
      <point x="616" y="79" type="line"/>
      <point x="483" y="79"/>
      <point x="505" y="150"/>
      <point x="518" y="206" type="curve" smooth="yes"/>
      <point x="590" y="517" type="line"/>
      <point x="482" y="517" type="line"/>
      <point x="410" y="206" type="line"/>
      <point x="406" y="189" type="line" smooth="yes"/>
      <point x="397" y="154"/>
      <point x="364" y="79"/>
      <point x="254" y="79" type="curve" smooth="yes"/>
      <point x="150" y="79"/>
      <point x="145" y="146"/>
      <point x="151" y="183" type="curve"/>
      <point x="228" y="517" type="line"/>
      <point x="120" y="517" type="line"/>
    </contour>
  </outline>
</glyph>
<glyph name="paragraph" format="1">
  <advance width="661"/>
  <unicode hex="00B6"/>
  <outline>
    <contour>
      <point x="211" y="0" type="line"/>
      <point x="319" y="0" type="line"/>
      <point x="453" y="577" type="line"/>
      <point x="537" y="577" type="line"/>
      <point x="403" y="0" type="line"/>
      <point x="511" y="0" type="line"/>
      <point x="668" y="679" type="line"/>
      <point x="368" y="679" type="line" smooth="yes"/>
      <point x="232" y="679"/>
      <point x="124" y="602"/>
      <point x="93" y="466" type="curve" smooth="yes"/>
      <point x="66" y="348"/>
      <point x="129" y="269"/>
      <point x="273" y="269" type="curve"/>
    </contour>
  </outline>
</glyph>
<glyph name="periodcentered" format="1">
  <advance width="320"/>
  <unicode hex="00B7"/>
  <outline>
    <component base="period" xOffset="63" yOffset="273"/>
    <contour>
      <point x="182" y="355" type="move" name="_middle"/>
    </contour>
  </outline>
</glyph>
<glyph name="onesuperior" format="1">
  <advance width="301"/>
  <unicode hex="00B9"/>
  <outline>
    <contour>
      <point x="65" y="365" type="line"/>
      <point x="286" y="365" type="line"/>
      <point x="301" y="430" type="line"/>
      <point x="235" y="430" type="line"/>
      <point x="292" y="680" type="line"/>
      <point x="137" y="680" type="line"/>
      <point x="123" y="616" type="line"/>
      <point x="198" y="616" type="line"/>
      <point x="155" y="430" type="line"/>
      <point x="80" y="430" type="line"/>
    </contour>
    <contour>
      <point x="259" y="370" type="move" name="ogonek"/>
    </contour>
    <contour>
      <point x="277" y="680" type="move" name="top"/>
    </contour>
  </outline>
</glyph>
<glyph name="ordmasculine" format="1">
  <advance width="390"/>
  <unicode hex="00BA"/>
  <outline>
    <contour>
      <point x="195" y="248" type="curve" smooth="yes"/>
      <point x="275" y="248"/>
      <point x="340" y="311"/>
      <point x="340" y="388" type="curve" smooth="yes"/>
      <point x="340" y="466"/>
      <point x="275" y="529"/>
      <point x="195" y="529" type="curve" smooth="yes"/>
      <point x="114" y="529"/>
      <point x="50" y="466"/>
      <point x="50" y="388" type="curve" smooth="yes"/>
      <point x="50" y="311"/>
      <point x="114" y="248"/>
    </contour>
    <contour>
      <point x="195" y="321" type="curve" smooth="yes"/>
      <point x="155" y="321"/>
      <point x="126" y="351"/>
      <point x="126" y="388" type="curve" smooth="yes"/>
      <point x="126" y="426"/>
      <point x="155" y="457"/>
      <point x="195" y="457" type="curve" smooth="yes"/>
      <point x="234" y="457"/>
      <point x="264" y="426"/>
      <point x="264" y="388" type="curve" smooth="yes"/>
      <point x="264" y="351"/>
      <point x="234" y="321"/>
    </contour>
    <contour>
      <point x="287" y="256" type="move" name="#exit"/>
    </contour>
    <contour>
      <point x="195" y="388" type="move" name="center"/>
    </contour>
    <contour>
      <point x="195" y="521" type="move" name="top"/>
    </contour>
  </outline>
</glyph>
<glyph name="guillemetright" format="1">
  <advance width="414"/>
  <unicode hex="00BB"/>
  <note>
    guillemotright
  </note>
  <outline>
    <contour>
      <point x="174" y="60" type="line"/>
      <point x="292" y="60" type="line"/>
      <point x="469" y="264" type="line"/>
      <point x="384" y="458" type="line"/>
      <point x="266" y="458" type="line"/>
      <point x="351" y="264" type="line"/>
    </contour>
    <contour>
      <point x="-16" y="60" type="line"/>
      <point x="102" y="60" type="line"/>
      <point x="279" y="264" type="line"/>
      <point x="194" y="458" type="line"/>
      <point x="76" y="458" type="line"/>
      <point x="161" y="264" type="line"/>
    </contour>
  </outline>
</glyph>
<glyph name="onequarter" format="1">
  <advance width="637"/>
  <unicode hex="00BC"/>
  <outline>
    <contour>
      <point x="433" y="0" type="line"/>
      <point x="518" y="0" type="line"/>
      <point x="558" y="174" type="line"/>
      <point x="438" y="174" type="line"/>
      <point x="555" y="326" type="line"/>
      <point x="474" y="326" type="line"/>
      <point x="301" y="109" type="line"/>
      <point x="458" y="109" type="line"/>
    </contour>
    <component base="onesuperior"/>
    <component base="fraction" xOffset="33"/>
  </outline>
</glyph>
<glyph name="threequarters" format="1">
  <advance width="653"/>
  <unicode hex="00BE"/>
  <outline>
    <contour>
      <point x="193" y="339" type="curve" smooth="yes"/>
      <point x="273" y="339"/>
      <point x="337" y="383"/>
      <point x="352" y="448" type="curve" smooth="yes"/>
      <point x="363" y="497"/>
      <point x="331" y="536"/>
      <point x="290" y="546" type="curve"/>
      <point x="385" y="679" type="line"/>
      <point x="160" y="679" type="line"/>
      <point x="145" y="612" type="line"/>
      <point x="275" y="612" type="line"/>
      <point x="196" y="503" type="line"/>
      <point x="258" y="512"/>
      <point x="275" y="489"/>
      <point x="266" y="448" type="curve" smooth="yes"/>
      <point x="260" y="422"/>
      <point x="237" y="405"/>
      <point x="208" y="405" type="curve" smooth="yes"/>
      <point x="179" y="405"/>
      <point x="163" y="422"/>
      <point x="169" y="448" type="curve"/>
      <point x="84" y="448" type="line"/>
      <point x="69" y="383"/>
      <point x="113" y="339"/>
    </contour>
    <contour>
      <point x="447" y="1" type="line"/>
      <point x="532" y="1" type="line"/>
      <point x="572" y="175" type="line"/>
      <point x="452" y="175" type="line"/>
      <point x="568" y="327" type="line"/>
      <point x="487" y="327" type="line"/>
      <point x="315" y="110" type="line"/>
      <point x="472" y="110" type="line"/>
    </contour>
    <component base="fraction" xOffset="49"/>
  </outline>
</glyph>
<glyph name="questiondown" format="1">
  <advance width="529"/>
  <unicode hex="00BF"/>
  <note>
    questiondown
  </note>
  <outline>
    <contour>
      <point x="245" y="-175" type="curve"/>
      <point x="269" y="-72" type="line"/>
      <point x="206" y="-72"/>
      <point x="170" y="-23"/>
      <point x="184" y="38" type="curve" smooth="yes"/>
      <point x="198" y="99"/>
      <point x="256" y="148"/>
      <point x="319" y="148" type="curve"/>
      <point x="355" y="303" type="line"/>
      <point x="247" y="303" type="line"/>
      <point x="229" y="224" type="line"/>
      <point x="154" y="188"/>
      <point x="92" y="118"/>
      <point x="73" y="38" type="curve" smooth="yes"/>
      <point x="46" y="-79"/>
      <point x="123" y="-175"/>
    </contour>
    <contour>
      <point x="320" y="371" type="curve" smooth="yes"/>
      <point x="366" y="371"/>
      <point x="408" y="407"/>
      <point x="418" y="451" type="curve" smooth="yes"/>
      <point x="429" y="497"/>
      <point x="403" y="531"/>
      <point x="357" y="531" type="curve" smooth="yes"/>
      <point x="313" y="531"/>
      <point x="269" y="497"/>
      <point x="258" y="451" type="curve" smooth="yes"/>
      <point x="248" y="407"/>
      <point x="276" y="371"/>
    </contour>
  </outline>
</glyph>
<glyph name="multiply" format="1">
  <advance width="677"/>
  <unicode hex="00D7"/>
  <note>
    multiply
  </note>
  <outline>
    <contour>
      <point x="158" y="111" type="line"/>
      <point x="345" y="263" type="line"/>
      <point x="462" y="111" type="line"/>
      <point x="552" y="184" type="line"/>
      <point x="435" y="336" type="line"/>
      <point x="622" y="488" type="line"/>
      <point x="566" y="561" type="line"/>
      <point x="379" y="409" type="line"/>
      <point x="262" y="561" type="line"/>
      <point x="172" y="488" type="line"/>
      <point x="289" y="336" type="line"/>
      <point x="102" y="184" type="line"/>
    </contour>
  </outline>
</glyph>
<glyph name="Thorn" format="1">
  <advance width="698"/>
  <unicode hex="00DE"/>
  <outline>
    <contour>
      <point x="122" y="93" type="line"/>
      <point x="348" y="93" type="line" smooth="yes"/>
      <point x="505" y="93"/>
      <point x="633" y="189"/>
      <point x="668" y="341" type="curve" smooth="yes"/>
      <point x="704" y="496"/>
      <point x="629" y="589"/>
      <point x="465" y="589" type="curve" smooth="yes"/>
      <point x="236" y="589" type="line"/>
      <point x="213" y="487" type="line"/>
      <point x="434" y="487" type="line" smooth="yes"/>
      <point x="538" y="487"/>
      <point x="578" y="438"/>
      <point x="556" y="339" type="curve" smooth="yes"/>
      <point x="533" y="242"/>
      <point x="470" y="193"/>
      <point x="366" y="193" type="curve" smooth="yes"/>
      <point x="145" y="193" type="line"/>
    </contour>
    <component base="I"/>
  </outline>
</glyph>
<glyph name="germandbls" format="1">
  <advance width="607"/>
  <unicode hex="00DF"/>
  <outline>
    <contour>
      <point x="273" y="-13" type="curve" smooth="yes"/>
      <point x="400" y="-13"/>
      <point x="520" y="57"/>
      <point x="551" y="190" type="curve" smooth="yes"/>
      <point x="572" y="278"/>
      <point x="529" y="352"/>
      <point x="429" y="369" type="curve"/>
      <point x="503" y="383"/>
      <point x="564" y="439"/>
      <point x="581" y="515" type="curve" smooth="yes"/>
      <point x="608" y="632"/>
      <point x="551" y="698"/>
      <point x="417" y="698" type="curve" smooth="yes"/>
      <point x="276" y="698"/>
      <point x="170" y="603"/>
      <point x="137" y="462" type="curve" smooth="yes"/>
      <point x="123" y="403" type="line"/>
      <point x="43" y="403" type="line"/>
      <point x="24" y="317" type="line"/>
      <point x="104" y="317" type="line"/>
      <point x="30" y="0" type="line"/>
      <point x="137" y="0" type="line"/>
      <point x="246" y="472" type="line" smooth="yes"/>
      <point x="267" y="563"/>
      <point x="337" y="610"/>
      <point x="397" y="610" type="curve" smooth="yes"/>
      <point x="462" y="610"/>
      <point x="494" y="580"/>
      <point x="479" y="514" type="curve" smooth="yes"/>
      <point x="460" y="430"/>
      <point x="383" y="404"/>
      <point x="327" y="404" type="curve"/>
      <point x="306" y="313" type="line"/>
      <point x="323" y="313" type="line" smooth="yes"/>
      <point x="394" y="313"/>
      <point x="459" y="268"/>
      <point x="440" y="187" type="curve" smooth="yes"/>
      <point x="421" y="102"/>
      <point x="344" y="80"/>
      <point x="295" y="80" type="curve" smooth="yes"/>
      <point x="280" y="80"/>
      <point x="265" y="82"/>
      <point x="253" y="84" type="curve"/>
      <point x="231" y="-10" type="line"/>
      <point x="244" y="-12"/>
      <point x="257" y="-13"/>
    </contour>
  </outline>
</glyph>
<glyph name="eth" format="1">
  <advance width="589"/>
  <unicode hex="00F0"/>
  <outline>
    <contour>
      <point x="232" y="-15" type="curve" smooth="yes"/>
      <point x="377" y="-15"/>
      <point x="508" y="80"/>
      <point x="552" y="273" type="curve" smooth="yes"/>
      <point x="586" y="417"/>
      <point x="568" y="542"/>
      <point x="462" y="614" type="curve"/>
      <point x="491" y="656" type="line"/>
      <point x="420" y="696" type="line"/>
      <point x="388" y="649" type="line"/>
      <point x="337" y="667"/>
      <point x="274" y="676"/>
      <point x="197" y="676" type="curve"/>
      <point x="176" y="582" type="line"/>
      <point x="237" y="582"/>
      <point x="289" y="578"/>
      <point x="332" y="567" type="curve"/>
      <point x="298" y="517" type="line"/>
      <point x="370" y="478" type="line"/>
      <point x="408" y="534" type="line"/>
      <point x="454" y="501"/>
      <point x="478" y="449"/>
      <point x="481" y="369" type="curve"/>
      <point x="459" y="413"/>
      <point x="405" y="450"/>
      <point x="328" y="450" type="curve" smooth="yes"/>
      <point x="182" y="450"/>
      <point x="63" y="357"/>
      <point x="30" y="217" type="curve" smooth="yes"/>
      <point x="-2" y="78"/>
      <point x="79" y="-15"/>
    </contour>
    <contour>
      <point x="254" y="81" type="curve" smooth="yes"/>
      <point x="166" y="81"/>
      <point x="120" y="137"/>
      <point x="139" y="220" type="curve" smooth="yes"/>
      <point x="158" y="300"/>
      <point x="224" y="354"/>
      <point x="306" y="354" type="curve" smooth="yes"/>
      <point x="405" y="354"/>
      <point x="451" y="298"/>
      <point x="433" y="220" type="curve" smooth="yes"/>
      <point x="416" y="148"/>
      <point x="344" y="81"/>
    </contour>
  </outline>
</glyph>
<glyph name="divide" format="1">
  <advance width="585"/>
  <unicode hex="00F7"/>
  <outline>
    <contour>
      <point x="59" y="206" type="line"/>
      <point x="502" y="206" type="line"/>
      <point x="525" y="308" type="line"/>
      <point x="82" y="308" type="line"/>
    </contour>
    <contour>
      <point x="232" y="-7" type="curve" smooth="yes"/>
      <point x="276" y="-7"/>
      <point x="320" y="27"/>
      <point x="330" y="73" type="curve" smooth="yes"/>
      <point x="340" y="117"/>
      <point x="313" y="153"/>
      <point x="269" y="153" type="curve" smooth="yes"/>
      <point x="223" y="153"/>
      <point x="180" y="117"/>
      <point x="170" y="73" type="curve" smooth="yes"/>
      <point x="160" y="27"/>
      <point x="186" y="-7"/>
    </contour>
    <contour>
      <point x="316" y="359" type="curve" smooth="yes"/>
      <point x="360" y="359"/>
      <point x="404" y="393"/>
      <point x="415" y="439" type="curve" smooth="yes"/>
      <point x="425" y="483"/>
      <point x="397" y="519"/>
      <point x="353" y="519" type="curve" smooth="yes"/>
      <point x="307" y="519"/>
      <point x="265" y="483"/>
      <point x="255" y="439" type="curve" smooth="yes"/>
      <point x="244" y="393"/>
      <point x="270" y="359"/>
    </contour>
  </outline>
</glyph>
<glyph name="thorn" format="1">
  <advance width="673"/>
  <unicode hex="00FE"/>
  <outline>
    <contour>
      <point x="-28" y="-212" type="line"/>
      <point x="80" y="-212" type="line"/>
      <point x="142" y="55" type="line"/>
      <point x="167" y="18"/>
      <point x="215" y="-15"/>
      <point x="300" y="-15" type="curve" smooth="yes"/>
      <point x="458" y="-15"/>
      <point x="598" y="107"/>
      <point x="633" y="258" type="curve" smooth="yes"/>
      <point x="668" y="409"/>
      <point x="584" y="532"/>
      <point x="426" y="532" type="curve" smooth="yes"/>
      <point x="351" y="532"/>
      <point x="281" y="503"/>
      <point x="237" y="467" type="curve"/>
      <point x="290" y="697" type="line"/>
      <point x="178" y="679" type="line"/>
    </contour>
    <contour>
      <point x="324" y="81" type="curve" smooth="yes"/>
      <point x="227" y="81"/>
      <point x="157" y="146"/>
      <point x="183" y="258" type="curve" smooth="yes"/>
      <point x="209" y="371"/>
      <point x="309" y="436"/>
      <point x="406" y="436" type="curve" smooth="yes"/>
      <point x="503" y="436"/>
      <point x="551" y="356"/>
      <point x="528" y="258" type="curve" smooth="yes"/>
      <point x="505" y="160"/>
      <point x="421" y="81"/>
    </contour>
    <contour>
      <point x="67" y="0" type="move" name="bottom"/>
    </contour>
    <contour>
      <point x="268" y="401" type="move" name="caron-t"/>
    </contour>
    <contour>
      <point x="163" y="368" type="move" name="center"/>
    </contour>
    <contour>
      <point x="232" y="679" type="move" name="top"/>
    </contour>
  </outline>
</glyph>
<glyph name="dcroat" format="1">
  <advance width="664"/>
  <unicode hex="0111"/>
  <outline>
    <contour>
      <point x="461" y="537" type="line"/>
      <point x="718" y="537" type="line"/>
      <point x="739" y="627" type="line"/>
      <point x="482" y="627" type="line"/>
    </contour>
    <component base="d"/>
    <contour>
      <point x="590" y="580" type="move" name="_center"/>
    </contour>
  </outline>
</glyph>
<glyph name="hbar" format="1">
  <advance width="610"/>
  <unicode hex="0127"/>
  <outline>
    <contour>
      <point x="64" y="537" type="line"/>
      <point x="321" y="537" type="line"/>
      <point x="342" y="627" type="line"/>
      <point x="85" y="627" type="line"/>
    </contour>
    <component base="h" xOffset="-17"/>
    <contour>
      <point x="232" y="574" type="move" name="_center"/>
    </contour>
  </outline>
</glyph>
<glyph name="idotless" format="1">
  <advance width="274"/>
  <unicode hex="0131"/>
  <outline>
    <contour>
      <point x="26" y="0" type="line"/>
      <point x="134" y="0" type="line"/>
      <point x="254" y="517" type="line"/>
      <point x="146" y="517" type="line"/>
    </contour>
    <contour>
      <point x="135" y="1" type="move" name="ogonek"/>
    </contour>
    <contour>
      <point x="200" y="516" type="move" name="top"/>
    </contour>
  </outline>
</glyph>
<glyph name="lcaron" format="1">
  <advance width="347"/>
  <unicode hex="013E"/>
  <outline>
    <component base="l"/>
    <component base="caron-t" xOffset="234" yOffset="-1"/>
    <contour>
      <point x="637" y="401" type="move" name="caron-t"/>
    </contour>
  </outline>
</glyph>
<glyph name="Eng" format="1">
  <advance width="771"/>
  <unicode hex="014A"/>
  <outline>
    <contour>
      <point x="410" y="-224" type="curve" smooth="yes"/>
      <point x="544" y="-224"/>
      <point x="596" y="-108"/>
      <point x="614" y="-31" type="curve" smooth="yes"/>
      <point x="641" y="84" type="line"/>
      <point x="533" y="84" type="line"/>
      <point x="504" y="-40" type="line" smooth="yes"/>
      <point x="495" y="-81"/>
      <point x="470" y="-128"/>
      <point x="417" y="-128" type="curve" smooth="yes"/>
      <point x="337" y="-128"/>
      <point x="304" y="-49"/>
      <point x="304" y="-49" type="curve"/>
      <point x="278" y="-161" type="line"/>
      <point x="278" y="-161"/>
      <point x="300" y="-224"/>
    </contour>
    <component base="N"/>
    <contour>
      <point x="326" y="0" type="move" name="bottom"/>
    </contour>
    <contour>
      <point x="483" y="679" type="move" name="top"/>
    </contour>
  </outline>
</glyph>
<glyph name="eng" format="1">
  <advance width="633"/>
  <unicode hex="014B"/>
  <outline>
    <contour>
      <point x="292" y="-224" type="curve" smooth="yes"/>
      <point x="426" y="-224"/>
      <point x="478" y="-108"/>
      <point x="496" y="-31" type="curve" smooth="yes"/>
      <point x="555" y="223" type="line"/>
      <point x="447" y="223" type="line"/>
      <point x="386" y="-40" type="line" smooth="yes"/>
      <point x="377" y="-81"/>
      <point x="352" y="-128"/>
      <point x="299" y="-128" type="curve" smooth="yes"/>
      <point x="219" y="-128"/>
      <point x="186" y="-49"/>
      <point x="186" y="-49" type="curve"/>
      <point x="160" y="-161" type="line"/>
      <point x="160" y="-161"/>
      <point x="182" y="-224"/>
    </contour>
    <component base="n"/>
  </outline>
</glyph>
<glyph name="florin" format="1">
  <advance width="521"/>
  <unicode hex="0192"/>
  <outline>
    <contour>
      <point x="-81" y="-212" type="curve" smooth="yes"/>
      <point x="48" y="-212"/>
      <point x="161" y="-118"/>
      <point x="199" y="47" type="curve" smooth="yes"/>
      <point x="244" y="241" type="line"/>
      <point x="417" y="241" type="line"/>
      <point x="441" y="343" type="line"/>
      <point x="268" y="343" type="line"/>
      <point x="294" y="458" type="line" smooth="yes"/>
      <point x="322" y="579"/>
      <point x="379" y="621"/>
      <point x="459" y="621" type="curve" smooth="yes"/>
      <point x="539" y="621"/>
      <point x="577" y="567"/>
      <point x="577" y="567" type="curve"/>
      <point x="599" y="663" type="line"/>
      <point x="599" y="663"/>
      <point x="576" y="717"/>
      <point x="466" y="717" type="curve" smooth="yes"/>
      <point x="337" y="717"/>
      <point x="224" y="623"/>
      <point x="186" y="458" type="curve" smooth="yes"/>
      <point x="160" y="343" type="line"/>
      <point x="33" y="343" type="line"/>
      <point x="9" y="241" type="line"/>
      <point x="136" y="241" type="line"/>
      <point x="91" y="47" type="line" smooth="yes"/>
      <point x="63" y="-74"/>
      <point x="7" y="-116"/>
      <point x="-73" y="-116" type="curve" smooth="yes"/>
      <point x="-153" y="-116"/>
      <point x="-192" y="-62"/>
      <point x="-192" y="-62" type="curve"/>
      <point x="-214" y="-158" type="line"/>
      <point x="-214" y="-158"/>
      <point x="-191" y="-212"/>
    </contour>
  </outline>
</glyph>
<glyph name="circumflex" format="1">
  <advance width="363"/>
  <unicode hex="02C6"/>
  <note>
    grave
  </note>
  <outline>
    <contour>
      <point x="96" y="586" type="line"/>
      <point x="197" y="586" type="line"/>
      <point x="277" y="669" type="line"/>
      <point x="318" y="586" type="line"/>
      <point x="419" y="586" type="line"/>
      <point x="353" y="757" type="line"/>
      <point x="240" y="757" type="line"/>
    </contour>
    <contour>
      <point x="242" y="517" type="move" name="_top"/>
    </contour>
  </outline>
</glyph>
<glyph name="caron" format="1">
  <advance width="363"/>
  <unicode hex="02C7"/>
  <note>
    grave
  </note>
  <outline>
    <contour>
      <point x="201" y="586" type="line"/>
      <point x="314" y="586" type="line"/>
      <point x="458" y="757" type="line"/>
      <point x="357" y="757" type="line"/>
      <point x="278" y="674" type="line"/>
      <point x="236" y="757" type="line"/>
      <point x="135" y="757" type="line"/>
    </contour>
    <contour>
      <point x="242" y="517" type="move" name="_top"/>
    </contour>
  </outline>
</glyph>
<glyph name="dotaccent" format="1">
  <advance width="163"/>
  <unicode hex="02D9"/>
  <outline>
    <contour>
      <point x="155" y="581" type="curve" smooth="yes"/>
      <point x="195" y="581"/>
      <point x="235" y="612"/>
      <point x="244" y="652" type="curve" smooth="yes"/>
      <point x="253" y="692"/>
      <point x="228" y="724"/>
      <point x="188" y="724" type="curve" smooth="yes"/>
      <point x="148" y="724"/>
      <point x="110" y="692"/>
      <point x="101" y="652" type="curve" smooth="yes"/>
      <point x="92" y="612"/>
      <point x="115" y="581"/>
    </contour>
    <contour>
      <point x="142" y="517" type="move" name="_top"/>
    </contour>
  </outline>
</glyph>
<glyph name="ring" format="1">
  <advance width="245"/>
  <unicode hex="02DA"/>
  <outline>
    <contour>
      <point x="196" y="581" type="curve" smooth="yes"/>
      <point x="253" y="581"/>
      <point x="310" y="626"/>
      <point x="323" y="683" type="curve" smooth="yes"/>
      <point x="336" y="741"/>
      <point x="301" y="787"/>
      <point x="244" y="787" type="curve" smooth="yes"/>
      <point x="186" y="787"/>
      <point x="131" y="741"/>
      <point x="118" y="683" type="curve" smooth="yes"/>
      <point x="105" y="626"/>
      <point x="138" y="581"/>
    </contour>
    <contour>
      <point x="213" y="653" type="curve" smooth="yes"/>
      <point x="196" y="653"/>
      <point x="186" y="666"/>
      <point x="190" y="683" type="curve" smooth="yes"/>
      <point x="194" y="701"/>
      <point x="210" y="715"/>
      <point x="227" y="715" type="curve" smooth="yes"/>
      <point x="244" y="715"/>
      <point x="255" y="701"/>
      <point x="251" y="683" type="curve" smooth="yes"/>
      <point x="247" y="666"/>
      <point x="230" y="653"/>
    </contour>
    <contour>
      <point x="183" y="517" type="move" name="_top"/>
    </contour>
  </outline>
</glyph>
<glyph name="ogonek" format="1">
  <advance width="148"/>
  <unicode hex="02DB"/>
  <outline>
    <contour>
      <point x="38" y="-217" type="curve"/>
      <point x="59" y="-129" type="line"/>
      <point x="14" y="-129"/>
      <point x="2" y="-116"/>
      <point x="8" y="-86" type="curve" smooth="yes"/>
      <point x="17" y="-49"/>
      <point x="77" y="8"/>
      <point x="77" y="8" type="curve" smooth="yes"/>
      <point x="1" y="8" type="line" smooth="yes"/>
      <point x="1" y="8"/>
      <point x="-68" y="-36"/>
      <point x="-83" y="-101" type="curve" smooth="yes"/>
      <point x="-104" y="-191"/>
      <point x="-12" y="-217"/>
    </contour>
    <contour>
      <point x="77" y="9" type="move" name="_ogonek"/>
    </contour>
  </outline>
</glyph>
<glyph name="hungarumlaut" format="1">
  <advance width="433"/>
  <unicode hex="02DD"/>
  <note>
    grave
  </note>
  <outline>
    <contour>
      <point x="276" y="586" type="line"/>
      <point x="377" y="586" type="line"/>
      <point x="548" y="757" type="line"/>
      <point x="415" y="757" type="line"/>
    </contour>
    <contour>
      <point x="96" y="586" type="line"/>
      <point x="197" y="586" type="line"/>
      <point x="358" y="757" type="line"/>
      <point x="225" y="757" type="line"/>
    </contour>
    <contour>
      <point x="237" y="517" type="move" name="_top"/>
    </contour>
  </outline>
</glyph>
<glyph name="gravecomb" format="1">
  <advance width="263"/>
  <unicode hex="0300"/>
  <note>
    grave
  </note>
  <outline>
    <contour>
      <point x="218" y="586" type="line"/>
      <point x="319" y="586" type="line"/>
      <point x="268" y="757" type="line"/>
      <point x="135" y="757" type="line"/>
    </contour>
    <contour>
      <point x="254" y="517" type="move" name="_top"/>
    </contour>
  </outline>
</glyph>
<glyph name="acutecomb" format="1">
  <advance width="263"/>
  <unicode hex="0301"/>
  <note>
    grave
  </note>
  <outline>
    <contour>
      <point x="96" y="586" type="line"/>
      <point x="197" y="586" type="line"/>
      <point x="358" y="757" type="line"/>
      <point x="225" y="757" type="line"/>
    </contour>
    <contour>
      <point x="128" y="517" type="move" name="_top"/>
    </contour>
  </outline>
</glyph>
<glyph name="circumflexcomb" format="1">
  <advance width="363"/>
  <unicode hex="0302"/>
  <note>
    grave
  </note>
  <outline>
    <contour>
      <point x="96" y="586" type="line"/>
      <point x="197" y="586" type="line"/>
      <point x="277" y="669" type="line"/>
      <point x="318" y="586" type="line"/>
      <point x="419" y="586" type="line"/>
      <point x="353" y="757" type="line"/>
      <point x="240" y="757" type="line"/>
    </contour>
    <contour>
      <point x="242" y="517" type="move" name="_top"/>
    </contour>
  </outline>
</glyph>
<glyph name="tildecomb" format="1">
  <advance width="440"/>
  <unicode hex="0303"/>
  <note>
    grave
  </note>
  <outline>
    <contour>
      <point x="367" y="581" type="curve" smooth="yes"/>
      <point x="421" y="581"/>
      <point x="461" y="630"/>
      <point x="484" y="688" type="curve"/>
      <point x="408" y="718" type="line"/>
      <point x="399" y="698"/>
      <point x="391" y="671"/>
      <point x="368" y="671" type="curve" smooth="yes"/>
      <point x="353" y="671"/>
      <point x="336" y="685"/>
      <point x="321" y="698" type="curve"/>
      <point x="320" y="698" type="line"/>
      <point x="321" y="699" type="line"/>
      <point x="320" y="699" type="line"/>
      <point x="305" y="711"/>
      <point x="284" y="725"/>
      <point x="253" y="725" type="curve" smooth="yes"/>
      <point x="199" y="725"/>
      <point x="159" y="676"/>
      <point x="136" y="618" type="curve"/>
      <point x="212" y="588" type="line"/>
      <point x="221" y="608"/>
      <point x="229" y="635"/>
      <point x="252" y="635" type="curve" smooth="yes"/>
      <point x="267" y="635"/>
      <point x="284" y="621"/>
      <point x="299" y="608" type="curve"/>
      <point x="300" y="608" type="line"/>
      <point x="299" y="607" type="line"/>
      <point x="300" y="607" type="line"/>
      <point x="315" y="595"/>
      <point x="336" y="581"/>
    </contour>
    <contour>
      <point x="280" y="517" type="move" name="_top"/>
    </contour>
  </outline>
</glyph>
<glyph name="macroncomb" format="1">
  <advance width="297"/>
  <unicode hex="0304"/>
  <note>
    grave
  </note>
  <outline>
    <contour>
      <point x="89" y="601" type="line"/>
      <point x="366" y="601" type="line"/>
      <point x="387" y="691" type="line"/>
      <point x="110" y="691" type="line"/>
    </contour>
    <contour>
      <point x="209" y="517" type="move" name="_top"/>
    </contour>
  </outline>
</glyph>
<glyph name="dotaccentcomb" format="1">
  <advance width="163"/>
  <unicode hex="0307"/>
  <outline>
    <contour>
      <point x="158" y="591" type="curve" smooth="yes"/>
      <point x="193" y="591"/>
      <point x="226" y="618"/>
      <point x="234" y="652" type="curve" smooth="yes"/>
      <point x="242" y="687"/>
      <point x="221" y="714"/>
      <point x="186" y="714" type="curve" smooth="yes"/>
      <point x="152" y="714"/>
      <point x="119" y="687"/>
      <point x="111" y="652" type="curve" smooth="yes"/>
      <point x="103" y="618"/>
      <point x="124" y="591"/>
    </contour>
    <contour>
      <point x="142" y="517" type="move" name="_top"/>
    </contour>
  </outline>
</glyph>
<glyph name="dieresiscomb" format="1">
  <advance width="343"/>
  <unicode hex="0308"/>
  <outline>
    <component base="dieresis" xOffset="-16"/>
    <contour>
      <point x="238" y="517" type="move" name="_top"/>
    </contour>
  </outline>
</glyph>
<glyph name="hungarumlautcomb" format="1">
  <advance width="433"/>
  <unicode hex="030B"/>
  <note>
    grave
  </note>
  <outline>
    <contour>
      <point x="276" y="586" type="line"/>
      <point x="377" y="586" type="line"/>
      <point x="548" y="757" type="line"/>
      <point x="415" y="757" type="line"/>
    </contour>
    <contour>
      <point x="96" y="586" type="line"/>
      <point x="197" y="586" type="line"/>
      <point x="358" y="757" type="line"/>
      <point x="225" y="757" type="line"/>
    </contour>
    <contour>
      <point x="217" y="517" type="move" name="_top"/>
    </contour>
  </outline>
</glyph>
<glyph name="caroncomb" format="1">
  <advance width="363"/>
  <unicode hex="030C"/>
  <note>
    grave
  </note>
  <outline>
    <contour>
      <point x="201" y="586" type="line"/>
      <point x="314" y="586" type="line"/>
      <point x="458" y="757" type="line"/>
      <point x="357" y="757" type="line"/>
      <point x="278" y="674" type="line"/>
      <point x="236" y="757" type="line"/>
      <point x="135" y="757" type="line"/>
    </contour>
    <contour>
      <point x="242" y="517" type="move" name="_top"/>
    </contour>
  </outline>
</glyph>
<glyph name="commaturnedabovecomb" format="1">
  <advance width="200"/>
  <unicode hex="0312"/>
  <outline>
    <contour>
      <point x="96" y="586" type="line"/>
      <point x="229" y="586" type="line"/>
      <point x="358" y="757" type="line"/>
      <point x="257" y="757" type="line"/>
    </contour>
    <contour>
      <point x="146" y="517" type="move" name="_top"/>
    </contour>
  </outline>
</glyph>
<glyph name="commaaccentcomb" format="1">
  <advance width="228"/>
  <unicode hex="0326"/>
  <outline>
    <contour>
      <point x="-95" y="-202" type="line"/>
      <point x="-14" y="-202" type="line"/>
      <point x="147" y="-31" type="line"/>
      <point x="34" y="-31" type="line"/>
    </contour>
    <contour>
      <point x="91" y="8" type="move" name="_bottom"/>
    </contour>
  </outline>
</glyph>
<glyph name="cedillacomb" format="1">
  <advance width="141"/>
  <unicode hex="0327"/>
  <outline>
    <contour>
      <point x="-110" y="-216" type="line"/>
      <point x="-47" y="-216"/>
      <point x="36" y="-197"/>
      <point x="51" y="-133" type="curve" smooth="yes"/>
      <point x="62" y="-82"/>
      <point x="0" y="-70"/>
      <point x="0" y="-70" type="curve"/>
      <point x="30" y="-14" type="line"/>
      <point x="-41" y="-14" type="line"/>
      <point x="-76" y="-84" type="line"/>
      <point x="-76" y="-84"/>
      <point x="-20" y="-88"/>
      <point x="-28" y="-122" type="curve" smooth="yes"/>
      <point x="-34" y="-148"/>
      <point x="-71" y="-158"/>
      <point x="-96" y="-158" type="curve"/>
    </contour>
    <contour>
      <point x="-4" y="-14" type="move" name="_bottom"/>
    </contour>
  </outline>
</glyph>
<glyph name="strokeshortcomb" format="1">
  <advance width="387"/>
  <unicode hex="0335"/>
  <outline>
    <contour>
      <point x="20" y="260" type="line"/>
      <point x="367" y="260" type="line"/>
      <point x="388" y="350" type="line"/>
      <point x="41" y="350" type="line"/>
    </contour>
    <contour>
      <point x="204" y="303" type="move" name="_center"/>
    </contour>
  </outline>
</glyph>
<glyph name="strokelongcomb" format="1">
  <advance width="581"/>
  <unicode hex="0336"/>
  <outline>
    <contour>
      <point x="0" y="476" type="line"/>
      <point x="681" y="476" type="line"/>
      <point x="702" y="566" type="line"/>
      <point x="21" y="566" type="line"/>
    </contour>
    <contour>
      <point x="351" y="519" type="move" name="_center"/>
    </contour>
  </outline>
</glyph>
<glyph name="slashshortcomb" format="1">
  <advance width="356"/>
  <unicode hex="0337"/>
  <outline>
    <contour>
      <point x="14" y="110" type="line"/>
      <point x="373" y="349" type="line"/>
      <point x="346" y="417" type="line"/>
      <point x="-12" y="178" type="line"/>
    </contour>
    <contour>
      <point x="185" y="258" type="move" name="_center"/>
    </contour>
  </outline>
</glyph>
<glyph name="slashlongcomb" format="1">
  <advance width="761"/>
  <unicode hex="0338"/>
  <outline>
    <contour>
      <point x="15" y="-15" type="line"/>
      <point x="845" y="621" type="line"/>
      <point x="785" y="699" type="line"/>
      <point x="-45" y="63" type="line"/>
    </contour>
    <contour>
      <point x="399" y="338" type="move" name="_center"/>
    </contour>
  </outline>
</glyph>
<glyph name="tonos" format="1">
  <advance width="417"/>
  <unicode hex="0384"/>
  <note>
    grave
  </note>
  <outline>
    <contour>
      <point x="89" y="601" type="line"/>
      <point x="486" y="601" type="line"/>
      <point x="509" y="701" type="line"/>
      <point x="112" y="701" type="line"/>
    </contour>
    <contour>
      <point x="269" y="517" type="move" name="_top"/>
    </contour>
  </outline>
</glyph>
<glyph name="dieresistonos" format="1">
  <advance width="343"/>
  <unicode hex="0385"/>
  <outline>
    <contour>
      <point x="153" y="777" type="line"/>
      <point x="430" y="777" type="line"/>
      <point x="453" y="877" type="line"/>
      <point x="176" y="877" type="line"/>
    </contour>
    <component base="dieresis" xOffset="-16"/>
    <contour>
      <point x="231" y="517" type="move" name="_top"/>
    </contour>
  </outline>
</glyph>
<glyph name="Alpha" format="1">
  <advance width="728"/>
  <unicode hex="0391"/>
  <outline>
    <contour>
      <point x="-54" y="0" type="line"/>
      <point x="69" y="0" type="line"/>
      <point x="174" y="161" type="line"/>
      <point x="506" y="161" type="line"/>
      <point x="535" y="0" type="line"/>
      <point x="662" y="0" type="line"/>
      <point x="518" y="679" type="line"/>
      <point x="404" y="679" type="line"/>
    </contour>
    <contour>
      <point x="238" y="263" type="line"/>
      <point x="434" y="563" type="line"/>
      <point x="490" y="263" type="line"/>
    </contour>
  </outline>
</glyph>
<glyph name="Beta" format="1">
  <advance width="676"/>
  <unicode hex="0392"/>
  <outline>
    <contour>
      <point x="30" y="0" type="line"/>
      <point x="326" y="0" type="line" smooth="yes"/>
      <point x="460" y="0"/>
      <point x="580" y="58"/>
      <point x="614" y="206" type="curve" smooth="yes"/>
      <point x="634" y="293"/>
      <point x="593" y="359"/>
      <point x="504" y="369" type="curve"/>
      <point x="568" y="380"/>
      <point x="627" y="425"/>
      <point x="646" y="504" type="curve" smooth="yes"/>
      <point x="674" y="628"/>
      <point x="608" y="679"/>
      <point x="465" y="679" type="curve" smooth="yes"/>
      <point x="187" y="679" type="line"/>
    </contour>
    <contour>
      <point x="161" y="102" type="line"/>
      <point x="209" y="311" type="line"/>
      <point x="390" y="311" type="line" smooth="yes"/>
      <point x="446" y="311"/>
      <point x="520" y="299"/>
      <point x="499" y="208" type="curve" smooth="yes"/>
      <point x="478" y="117"/>
      <point x="398" y="102"/>
      <point x="342" y="102" type="curve" smooth="yes"/>
    </contour>
    <contour>
      <point x="232" y="408" type="line"/>
      <point x="271" y="577" type="line"/>
      <point x="428" y="577" type="line" smooth="yes"/>
      <point x="483" y="577"/>
      <point x="556" y="577"/>
      <point x="537" y="496" type="curve" smooth="yes"/>
      <point x="517" y="412"/>
      <point x="439" y="408"/>
      <point x="383" y="408" type="curve" smooth="yes"/>
    </contour>
  </outline>
</glyph>
<glyph name="Gamma" format="1">
  <advance width="654"/>
  <unicode hex="0393"/>
  <outline>
    <contour>
      <point x="30" y="0" type="line"/>
      <point x="138" y="0" type="line"/>
      <point x="272" y="577" type="line"/>
      <point x="668" y="577" type="line"/>
      <point x="691" y="679" type="line"/>
      <point x="187" y="679" type="line"/>
    </contour>
  </outline>
</glyph>
<glyph name="Delta" format="1">
  <advance width="742"/>
  <unicode hex="0394"/>
  <outline>
    <contour>
      <point x="-39" y="0" type="line"/>
      <point x="661" y="0" type="line"/>
      <point x="525" y="679" type="line"/>
      <point x="411" y="679" type="line"/>
    </contour>
    <contour>
      <point x="151" y="102" type="line"/>
      <point x="441" y="563" type="line"/>
      <point x="516" y="102" type="line"/>
    </contour>
  </outline>
</glyph>
<glyph name="Epsilon" format="1">
  <advance width="647"/>
  <unicode hex="0395"/>
  <outline>
    <contour>
      <point x="30" y="0" type="line"/>
      <point x="532" y="0" type="line"/>
      <point x="556" y="102" type="line"/>
      <point x="162" y="102" type="line"/>
      <point x="210" y="311" type="line"/>
      <point x="519" y="311" type="line"/>
      <point x="543" y="413" type="line"/>
      <point x="234" y="413" type="line"/>
      <point x="272" y="577" type="line"/>
      <point x="660" y="577" type="line"/>
      <point x="683" y="679" type="line"/>
      <point x="187" y="679" type="line"/>
    </contour>
  </outline>
</glyph>
<glyph name="Zeta" format="1">
  <advance width="614"/>
  <unicode hex="0396"/>
  <outline>
    <contour>
      <point x="-30" y="0" type="line"/>
      <point x="524" y="0" type="line"/>
      <point x="548" y="102" type="line"/>
      <point x="135" y="102" type="line"/>
      <point x="645" y="577" type="line"/>
      <point x="668" y="679" type="line"/>
      <point x="146" y="679" type="line"/>
      <point x="123" y="577" type="line"/>
      <point x="506" y="577" type="line"/>
      <point x="-6" y="102" type="line"/>
    </contour>
  </outline>
</glyph>
<glyph name="Eta" format="1">
  <advance width="752"/>
  <unicode hex="0397"/>
  <outline>
    <contour>
      <point x="30" y="0" type="line"/>
      <point x="139" y="0" type="line"/>
      <point x="211" y="311" type="line"/>
      <point x="565" y="311" type="line"/>
      <point x="493" y="0" type="line"/>
      <point x="602" y="0" type="line"/>
      <point x="759" y="679" type="line"/>
      <point x="650" y="679" type="line"/>
      <point x="589" y="413" type="line"/>
      <point x="235" y="413" type="line"/>
      <point x="296" y="679" type="line"/>
      <point x="187" y="679" type="line"/>
    </contour>
  </outline>
</glyph>
<glyph name="Theta" format="1">
  <advance width="793"/>
  <unicode hex="0398"/>
  <outline>
    <contour>
      <point x="333" y="-15" type="curve" smooth="yes"/>
      <point x="546" y="-15"/>
      <point x="727" y="144"/>
      <point x="772" y="340" type="curve" smooth="yes"/>
      <point x="817" y="536"/>
      <point x="710" y="695"/>
      <point x="497" y="695" type="curve" smooth="yes"/>
      <point x="284" y="695"/>
      <point x="104" y="536"/>
      <point x="59" y="340" type="curve" smooth="yes"/>
      <point x="14" y="144"/>
      <point x="120" y="-15"/>
    </contour>
    <contour>
      <point x="357" y="88" type="curve" smooth="yes"/>
      <point x="217" y="88"/>
      <point x="149" y="183"/>
      <point x="165" y="309" type="curve"/>
      <point x="650" y="309" type="line"/>
      <point x="609" y="183"/>
      <point x="497" y="88"/>
    </contour>
    <contour>
      <point x="195" y="411" type="line"/>
      <point x="246" y="517"/>
      <point x="348" y="593"/>
      <point x="473" y="593" type="curve" smooth="yes"/>
      <point x="598" y="593"/>
      <point x="665" y="517"/>
      <point x="666" y="411" type="curve"/>
    </contour>
  </outline>
</glyph>
<glyph name="Iota" format="1">
  <advance width="289"/>
  <unicode hex="0399"/>
  <outline>
    <contour>
      <point x="30" y="0" type="line"/>
      <point x="139" y="0" type="line"/>
      <point x="296" y="679" type="line"/>
      <point x="187" y="679" type="line"/>
    </contour>
  </outline>
</glyph>
<glyph name="Lambda" format="1">
  <advance width="727"/>
  <unicode hex="039B"/>
  <outline>
    <contour>
      <point x="-39" y="0" type="line"/>
      <point x="84" y="0" type="line"/>
      <point x="435" y="563" type="line"/>
      <point x="519" y="0" type="line"/>
      <point x="646" y="0" type="line"/>
      <point x="519" y="679" type="line"/>
      <point x="405" y="679" type="line"/>
    </contour>
  </outline>
</glyph>
<glyph name="Mu" format="1">
  <advance width="831"/>
  <unicode hex="039C"/>
  <outline>
    <contour>
      <point x="30" y="0" type="line"/>
      <point x="138" y="0" type="line"/>
      <point x="261" y="530" type="line"/>
      <point x="365" y="263" type="line"/>
      <point x="466" y="263" type="line"/>
      <point x="696" y="530" type="line"/>
      <point x="573" y="0" type="line"/>
      <point x="681" y="0" type="line"/>
      <point x="838" y="679" type="line"/>
      <point x="702" y="679" type="line"/>
      <point x="441" y="376" type="line"/>
      <point x="324" y="679" type="line"/>
      <point x="187" y="679" type="line"/>
    </contour>
  </outline>
</glyph>
<glyph name="Nu" format="1">
  <advance width="771"/>
  <unicode hex="039D"/>
  <outline>
    <contour>
      <point x="30" y="0" type="line"/>
      <point x="138" y="0" type="line"/>
      <point x="258" y="519" type="line"/>
      <point x="501" y="0" type="line"/>
      <point x="621" y="0" type="line"/>
      <point x="778" y="679" type="line"/>
      <point x="670" y="679" type="line"/>
      <point x="552" y="169" type="line"/>
      <point x="307" y="679" type="line"/>
      <point x="187" y="679" type="line"/>
    </contour>
  </outline>
</glyph>
<glyph name="Xi" format="1">
  <advance width="704"/>
  <unicode hex="039E"/>
  <outline>
    <contour>
      <point x="0" y="0" type="line"/>
      <point x="584" y="0" type="line"/>
      <point x="608" y="102" type="line"/>
      <point x="24" y="102" type="line"/>
    </contour>
    <contour>
      <point x="138" y="301" type="line"/>
      <point x="587" y="301" type="line"/>
      <point x="610" y="403" type="line"/>
      <point x="161" y="403" type="line"/>
    </contour>
    <contour>
      <point x="149" y="577" type="line"/>
      <point x="703" y="577" type="line"/>
      <point x="726" y="679" type="line"/>
      <point x="172" y="679" type="line"/>
    </contour>
  </outline>
</glyph>
<glyph name="Omicron" format="1">
  <advance width="793"/>
  <unicode hex="039F"/>
  <outline>
    <contour>
      <point x="334" y="-15" type="curve" smooth="yes"/>
      <point x="547" y="-15"/>
      <point x="727" y="144"/>
      <point x="772" y="340" type="curve" smooth="yes"/>
      <point x="817" y="536"/>
      <point x="711" y="695"/>
      <point x="498" y="695" type="curve" smooth="yes"/>
      <point x="285" y="695"/>
      <point x="104" y="536"/>
      <point x="59" y="340" type="curve" smooth="yes"/>
      <point x="14" y="144"/>
      <point x="121" y="-15"/>
    </contour>
    <contour>
      <point x="358" y="88" type="curve" smooth="yes"/>
      <point x="206" y="88"/>
      <point x="139" y="199"/>
      <point x="172" y="340" type="curve" smooth="yes"/>
      <point x="204" y="481"/>
      <point x="322" y="593"/>
      <point x="474" y="593" type="curve" smooth="yes"/>
      <point x="625" y="593"/>
      <point x="692" y="481"/>
      <point x="660" y="340" type="curve" smooth="yes"/>
      <point x="627" y="199"/>
      <point x="509" y="88"/>
    </contour>
  </outline>
</glyph>
<glyph name="Pi" format="1">
  <advance width="728"/>
  <unicode hex="03A0"/>
  <outline>
    <contour>
      <point x="30" y="0" type="line"/>
      <point x="138" y="0" type="line"/>
      <point x="272" y="577" type="line"/>
      <point x="604" y="577" type="line"/>
      <point x="470" y="0" type="line"/>
      <point x="578" y="0" type="line"/>
      <point x="735" y="679" type="line"/>
      <point x="187" y="679" type="line"/>
    </contour>
  </outline>
</glyph>
<glyph name="Rho" format="1">
  <advance width="688"/>
  <unicode hex="03A1"/>
  <outline>
    <contour>
      <point x="30" y="0" type="line"/>
      <point x="138" y="0" type="line"/>
      <point x="181" y="183" type="line"/>
      <point x="369" y="183" type="line" smooth="yes"/>
      <point x="525" y="183"/>
      <point x="653" y="277"/>
      <point x="689" y="431" type="curve" smooth="yes"/>
      <point x="724" y="585"/>
      <point x="650" y="679"/>
      <point x="485" y="679" type="curve" smooth="yes"/>
      <point x="187" y="679" type="line"/>
    </contour>
    <contour>
      <point x="203" y="283" type="line"/>
      <point x="271" y="577" type="line"/>
      <point x="455" y="577" type="line" smooth="yes"/>
      <point x="563" y="577"/>
      <point x="598" y="523"/>
      <point x="576" y="429" type="curve" smooth="yes"/>
      <point x="555" y="335"/>
      <point x="495" y="283"/>
      <point x="387" y="283" type="curve" smooth="yes"/>
    </contour>
  </outline>
</glyph>
<glyph name="Tau" format="1">
  <advance width="644"/>
  <unicode hex="03A4"/>
  <outline>
    <contour>
      <point x="208" y="0" type="line"/>
      <point x="316" y="0" type="line"/>
      <point x="450" y="577" type="line"/>
      <point x="688" y="577" type="line"/>
      <point x="711" y="679" type="line"/>
      <point x="127" y="679" type="line"/>
      <point x="104" y="577" type="line"/>
      <point x="342" y="577" type="line"/>
    </contour>
  </outline>
</glyph>
<glyph name="Upsilon" format="1">
  <advance width="676"/>
  <unicode hex="03A5"/>
  <outline>
    <contour>
      <point x="223" y="0" type="line"/>
      <point x="333" y="0" type="line"/>
      <point x="401" y="291" type="line"/>
      <point x="753" y="679" type="line"/>
      <point x="613" y="679" type="line"/>
      <point x="319" y="350" type="line"/>
      <point x="386" y="341" type="line"/>
      <point x="240" y="679" type="line"/>
      <point x="117" y="679" type="line"/>
      <point x="291" y="291" type="line"/>
    </contour>
    <contour>
      <point x="319" y="169" type="move" name="center"/>
    </contour>
    <contour>
      <point x="435" y="679" type="move" name="top"/>
    </contour>
  </outline>
</glyph>
<glyph name="Phi" format="1">
  <advance width="793"/>
  <unicode hex="03A6"/>
  <outline>
    <contour>
      <point x="333" y="-15" type="curve" smooth="yes"/>
      <point x="546" y="-15"/>
      <point x="727" y="144"/>
      <point x="772" y="340" type="curve" smooth="yes"/>
      <point x="817" y="536"/>
      <point x="710" y="695"/>
      <point x="497" y="695" type="curve" smooth="yes"/>
      <point x="284" y="695"/>
      <point x="104" y="536"/>
      <point x="59" y="340" type="curve" smooth="yes"/>
      <point x="14" y="144"/>
      <point x="120" y="-15"/>
    </contour>
    <contour>
      <point x="307" y="92" type="line"/>
      <point x="191" y="114"/>
      <point x="142" y="216"/>
      <point x="171" y="340" type="curve" smooth="yes"/>
      <point x="200" y="465"/>
      <point x="295" y="566"/>
      <point x="421" y="588" type="curve"/>
    </contour>
    <contour>
      <point x="409" y="92" type="curve"/>
      <point x="523" y="588" type="line"/>
      <point x="639" y="566"/>
      <point x="688" y="465"/>
      <point x="659" y="340" type="curve" smooth="yes"/>
      <point x="630" y="216"/>
      <point x="535" y="114"/>
    </contour>
  </outline>
</glyph>
<glyph name="Chi" format="1">
  <advance width="711"/>
  <unicode hex="03A7"/>
  <outline>
    <contour>
      <point x="-29" y="0" type="line"/>
      <point x="121" y="0" type="line"/>
      <point x="405" y="305" type="line"/>
      <point x="332" y="313" type="line"/>
      <point x="488" y="0" type="line"/>
      <point x="620" y="0" type="line"/>
      <point x="418" y="400" type="line"/>
      <point x="406" y="322" type="line"/>
      <point x="759" y="679" type="line"/>
      <point x="609" y="679" type="line"/>
      <point x="341" y="402" type="line"/>
      <point x="414" y="393" type="line"/>
      <point x="275" y="679" type="line"/>
      <point x="143" y="679" type="line"/>
      <point x="334" y="315" type="line"/>
      <point x="344" y="393" type="line"/>
    </contour>
  </outline>
</glyph>
<glyph name="Psi" format="1">
  <advance width="719"/>
  <unicode hex="03A8"/>
  <outline>
    <contour>
      <point x="245" y="0" type="line"/>
      <point x="354" y="0" type="line"/>
      <point x="389" y="152" type="line"/>
      <point x="529" y="171"/>
      <point x="650" y="262"/>
      <point x="687" y="422" type="curve" smooth="yes"/>
      <point x="746" y="679" type="line"/>
      <point x="637" y="679" type="line"/>
      <point x="578" y="423" type="line" smooth="yes"/>
      <point x="556" y="328"/>
      <point x="486" y="277"/>
      <point x="414" y="259" type="curve"/>
      <point x="511" y="679" type="line"/>
      <point x="402" y="679" type="line"/>
      <point x="305" y="259" type="line"/>
      <point x="242" y="277"/>
      <point x="195" y="328"/>
      <point x="217" y="423" type="curve" smooth="yes"/>
      <point x="276" y="679" type="line"/>
      <point x="167" y="679" type="line"/>
      <point x="108" y="422" type="line" smooth="yes"/>
      <point x="71" y="262"/>
      <point x="150" y="171"/>
      <point x="280" y="152" type="curve"/>
    </contour>
  </outline>
</glyph>
<glyph name="Omega" format="1">
  <advance width="794"/>
  <unicode hex="03A9"/>
  <outline>
    <contour>
      <point x="-20" y="0" type="line"/>
      <point x="276" y="0" type="line"/>
      <point x="300" y="102" type="line"/>
      <point x="209" y="136"/>
      <point x="145" y="225"/>
      <point x="177" y="361" type="curve" smooth="yes"/>
      <point x="209" y="503"/>
      <point x="329" y="593"/>
      <point x="474" y="593" type="curve" smooth="yes"/>
      <point x="619" y="593"/>
      <point x="697" y="503"/>
      <point x="665" y="361" type="curve" smooth="yes"/>
      <point x="633" y="225"/>
      <point x="529" y="136"/>
      <point x="422" y="102" type="curve"/>
      <point x="398" y="0" type="line"/>
      <point x="694" y="0" type="line"/>
      <point x="718" y="102" type="line"/>
      <point x="586" y="102" type="line"/>
      <point x="688" y="163"/>
      <point x="756" y="269"/>
      <point x="778" y="361" type="curve" smooth="yes"/>
      <point x="823" y="557"/>
      <point x="702" y="695"/>
      <point x="498" y="695" type="curve" smooth="yes"/>
      <point x="294" y="695"/>
      <point x="109" y="557"/>
      <point x="64" y="361" type="curve" smooth="yes"/>
      <point x="42" y="269"/>
      <point x="62" y="163"/>
      <point x="136" y="102" type="curve"/>
      <point x="4" y="102" type="line"/>
    </contour>
    <contour>
      <point x="494" y="679" type="move" name="top"/>
    </contour>
  </outline>
</glyph>
<glyph name="alpha" format="1">
  <advance width="676"/>
  <unicode hex="03B1"/>
  <outline>
    <contour>
      <point x="256" y="-15" type="curve" smooth="yes"/>
      <point x="310" y="-15"/>
      <point x="399" y="3"/>
      <point x="453" y="60" type="curve"/>
      <point x="450" y="39"/>
      <point x="448" y="18"/>
      <point x="449" y="-2" type="curve"/>
      <point x="556" y="-2" type="line"/>
      <point x="555" y="83"/>
      <point x="564" y="175"/>
      <point x="583" y="260" type="curve"/>
      <point x="676" y="518" type="line"/>
      <point x="569" y="518" type="line"/>
      <point x="549" y="445" type="line"/>
      <point x="528" y="505"/>
      <point x="440" y="532"/>
      <point x="382" y="532" type="curve" smooth="yes"/>
      <point x="224" y="532"/>
      <point x="75" y="410"/>
      <point x="40" y="259" type="curve" smooth="yes"/>
      <point x="5" y="108"/>
      <point x="98" y="-15"/>
    </contour>
    <contour>
      <point x="277" y="81" type="curve" smooth="yes"/>
      <point x="181" y="81"/>
      <point x="123" y="161"/>
      <point x="146" y="259" type="curve" smooth="yes"/>
      <point x="169" y="357"/>
      <point x="263" y="436"/>
      <point x="359" y="436" type="curve" smooth="yes"/>
      <point x="456" y="436"/>
      <point x="517" y="371"/>
      <point x="491" y="259" type="curve" smooth="yes"/>
      <point x="465" y="146"/>
      <point x="374" y="81"/>
    </contour>
    <contour>
      <point x="378" y="516" type="move" name="top"/>
    </contour>
  </outline>
</glyph>
<glyph name="beta" format="1">
  <advance width="607"/>
  <unicode hex="03B2"/>
  <outline>
    <contour>
      <point x="-30" y="-216" type="line"/>
      <point x="77" y="-216" type="line"/>
      <point x="133" y="24" type="line"/>
      <point x="136" y="22" type="line" smooth="yes"/>
      <point x="156" y="11"/>
      <point x="197" y="-13"/>
      <point x="263" y="-13" type="curve" smooth="yes"/>
      <point x="390" y="-13"/>
      <point x="510" y="57"/>
      <point x="541" y="190" type="curve" smooth="yes"/>
      <point x="562" y="279"/>
      <point x="501" y="348"/>
      <point x="410" y="368" type="curve"/>
      <point x="488" y="379"/>
      <point x="553" y="436"/>
      <point x="571" y="515" type="curve" smooth="yes"/>
      <point x="598" y="632"/>
      <point x="541" y="698"/>
      <point x="407" y="698" type="curve" smooth="yes"/>
      <point x="266" y="698"/>
      <point x="160" y="603"/>
      <point x="127" y="462" type="curve" smooth="yes"/>
    </contour>
    <contour>
      <point x="285" y="80" type="curve" smooth="yes"/>
      <point x="220" y="80"/>
      <point x="175" y="108"/>
      <point x="158" y="131" type="curve"/>
      <point x="236" y="472" type="line" smooth="yes"/>
      <point x="257" y="563"/>
      <point x="327" y="610"/>
      <point x="387" y="610" type="curve" smooth="yes"/>
      <point x="452" y="610"/>
      <point x="484" y="580"/>
      <point x="469" y="514" type="curve" smooth="yes"/>
      <point x="450" y="430"/>
      <point x="373" y="404"/>
      <point x="317" y="404" type="curve"/>
      <point x="296" y="313" type="line"/>
      <point x="313" y="313" type="line" smooth="yes"/>
      <point x="384" y="313"/>
      <point x="449" y="268"/>
      <point x="430" y="187" type="curve" smooth="yes"/>
      <point x="411" y="102"/>
      <point x="334" y="80"/>
    </contour>
  </outline>
</glyph>
<glyph name="gamma" format="1">
  <advance width="518"/>
  <unicode hex="03B3"/>
  <outline>
    <contour>
      <point x="94" y="-216" type="line"/>
      <point x="204" y="-216" type="line"/>
      <point x="254" y="0" type="line"/>
      <point x="568" y="517" type="line"/>
      <point x="443" y="517" type="line"/>
      <point x="189" y="70" type="line"/>
      <point x="230" y="64" type="line"/>
      <point x="183" y="517" type="line"/>
      <point x="70" y="517" type="line"/>
      <point x="144" y="0" type="line"/>
    </contour>
  </outline>
</glyph>
<glyph name="delta" format="1">
  <advance width="538"/>
  <unicode hex="03B4"/>
  <outline>
    <contour>
      <point x="216" y="-15" type="curve" smooth="yes"/>
      <point x="349" y="-15"/>
      <point x="479" y="88"/>
      <point x="508" y="216" type="curve" smooth="yes"/>
      <point x="525" y="288"/>
      <point x="506" y="353"/>
      <point x="461" y="396" type="curve"/>
      <point x="306" y="590" type="line"/>
      <point x="563" y="590" type="line"/>
      <point x="583" y="678" type="line"/>
      <point x="194" y="678" type="line"/>
      <point x="174" y="590" type="line"/>
      <point x="289" y="445" type="line"/>
      <point x="168" y="429"/>
      <point x="57" y="332"/>
      <point x="30" y="216" type="curve" smooth="yes"/>
      <point x="1" y="88"/>
      <point x="83" y="-15"/>
    </contour>
    <contour>
      <point x="238" y="81" type="curve" smooth="yes"/>
      <point x="165" y="81"/>
      <point x="124" y="141"/>
      <point x="141" y="216" type="curve" smooth="yes"/>
      <point x="158" y="290"/>
      <point x="227" y="351"/>
      <point x="300" y="351" type="curve" smooth="yes"/>
      <point x="373" y="351"/>
      <point x="414" y="290"/>
      <point x="397" y="216" type="curve" smooth="yes"/>
      <point x="380" y="141"/>
      <point x="311" y="81"/>
    </contour>
  </outline>
</glyph>
<glyph name="epsilon" format="1">
  <advance width="487"/>
  <unicode hex="03B5"/>
  <outline>
    <contour>
      <point x="201" y="-15" type="curve" smooth="yes"/>
      <point x="254" y="-15"/>
      <point x="351" y="5"/>
      <point x="395" y="34" type="curve"/>
      <point x="418" y="134" type="line"/>
      <point x="418" y="134"/>
      <point x="318" y="80"/>
      <point x="229" y="80" type="curve" smooth="yes"/>
      <point x="168" y="80"/>
      <point x="107" y="95"/>
      <point x="121" y="154" type="curve" smooth="yes"/>
      <point x="131" y="200"/>
      <point x="182" y="227"/>
      <point x="232" y="227" type="curve" smooth="yes"/>
      <point x="327" y="227" type="line"/>
      <point x="347" y="315" type="line"/>
      <point x="267" y="315" type="line" smooth="yes"/>
      <point x="213" y="315"/>
      <point x="177" y="332"/>
      <point x="188" y="379" type="curve" smooth="yes"/>
      <point x="198" y="421"/>
      <point x="248" y="436"/>
      <point x="317" y="436" type="curve" smooth="yes"/>
      <point x="378" y="436"/>
      <point x="445" y="411"/>
      <point x="464" y="395" type="curve"/>
      <point x="486" y="493" type="line"/>
      <point x="451" y="520"/>
      <point x="389" y="532"/>
      <point x="327" y="532" type="curve" smooth="yes"/>
      <point x="211" y="532"/>
      <point x="109" y="480"/>
      <point x="89" y="391" type="curve" smooth="yes"/>
      <point x="75" y="333"/>
      <point x="111" y="279"/>
      <point x="167" y="273" type="curve"/>
      <point x="68" y="253"/>
      <point x="23" y="184"/>
      <point x="12" y="136" type="curve" smooth="yes"/>
      <point x="-13" y="30"/>
      <point x="69" y="-15"/>
    </contour>
    <contour>
      <point x="322" y="516" type="move" name="top"/>
    </contour>
  </outline>
</glyph>
<glyph name="zeta" format="1">
  <advance width="472"/>
  <unicode hex="03B6"/>
  <outline>
    <contour>
      <point x="214" y="-216" type="line"/>
      <point x="322" y="-216" type="line"/>
      <point x="396" y="102" type="line"/>
      <point x="376" y="93"/>
      <point x="354" y="77"/>
      <point x="293" y="77" type="curve" smooth="yes"/>
      <point x="208" y="77"/>
      <point x="133" y="149"/>
      <point x="158" y="258" type="curve" smooth="yes"/>
      <point x="183" y="368"/>
      <point x="260" y="462"/>
      <point x="508" y="591" type="curve"/>
      <point x="528" y="679" type="line"/>
      <point x="177" y="679" type="line"/>
      <point x="157" y="591" type="line"/>
      <point x="359" y="591" type="line"/>
      <point x="224" y="521"/>
      <point x="87" y="419"/>
      <point x="50" y="258" type="curve" smooth="yes"/>
      <point x="15" y="107"/>
      <point x="99" y="-15"/>
      <point x="261" y="-15" type="curve"/>
    </contour>
  </outline>
</glyph>
<glyph name="eta" format="1">
  <advance width="627"/>
  <unicode hex="03B7"/>
  <outline>
    <contour>
      <point x="340" y="-215" type="line"/>
      <point x="448" y="-215" type="line"/>
      <point x="571" y="318" type="line" smooth="yes"/>
      <point x="604" y="460"/>
      <point x="528" y="533"/>
      <point x="413" y="533" type="curve" smooth="yes"/>
      <point x="286" y="533"/>
      <point x="233" y="453"/>
      <point x="233" y="453" type="curve"/>
      <point x="248" y="518" type="line"/>
      <point x="140" y="518" type="line"/>
      <point x="20" y="0" type="line"/>
      <point x="128" y="0" type="line"/>
      <point x="196" y="291" type="line" smooth="yes"/>
      <point x="218" y="388"/>
      <point x="300" y="437"/>
      <point x="375" y="437" type="curve" smooth="yes"/>
      <point x="445" y="437"/>
      <point x="479" y="390"/>
      <point x="460" y="307" type="curve" smooth="yes"/>
    </contour>
    <contour>
      <point x="380" y="516" type="move" name="top"/>
    </contour>
  </outline>
</glyph>
<glyph name="theta" format="1">
  <advance width="558"/>
  <unicode hex="03B8"/>
  <outline>
    <contour>
      <point x="216" y="-15" type="curve" smooth="yes"/>
      <point x="381" y="-15"/>
      <point x="481" y="141"/>
      <point x="527" y="340" type="curve" smooth="yes"/>
      <point x="573" y="540"/>
      <point x="545" y="695"/>
      <point x="380" y="695" type="curve" smooth="yes"/>
      <point x="217" y="695"/>
      <point x="115" y="540"/>
      <point x="69" y="340" type="curve" smooth="yes"/>
      <point x="23" y="141"/>
      <point x="51" y="-15"/>
    </contour>
    <contour>
      <point x="237" y="77" type="curve" smooth="yes"/>
      <point x="120" y="77"/>
      <point x="145" y="219"/>
      <point x="168" y="317" type="curve"/>
      <point x="417" y="317" type="line"/>
      <point x="393" y="219"/>
      <point x="353" y="77"/>
    </contour>
    <contour>
      <point x="189" y="405" type="line"/>
      <point x="214" y="497"/>
      <point x="258" y="603"/>
      <point x="359" y="603" type="curve" smooth="yes"/>
      <point x="459" y="603"/>
      <point x="453" y="497"/>
      <point x="436" y="405" type="curve"/>
    </contour>
  </outline>
</glyph>
<glyph name="iota" format="1">
  <advance width="268"/>
  <unicode hex="03B9"/>
  <outline>
    <contour>
      <point x="20" y="0" type="line"/>
      <point x="128" y="0" type="line"/>
      <point x="248" y="517" type="line"/>
      <point x="140" y="517" type="line"/>
    </contour>
    <contour>
      <point x="193" y="516" type="move" name="top"/>
    </contour>
  </outline>
</glyph>
<glyph name="kappa" format="1">
  <advance width="546"/>
  <unicode hex="03BA"/>
  <outline>
    <contour>
      <point x="20" y="0" type="line"/>
      <point x="128" y="0" type="line"/>
      <point x="179" y="221" type="line"/>
      <point x="131" y="143" type="line"/>
      <point x="301" y="286" type="line"/>
      <point x="251" y="300" type="line"/>
      <point x="368" y="0" type="line"/>
      <point x="486" y="0" type="line"/>
      <point x="349" y="324" type="line"/>
      <point x="575" y="517" type="line"/>
      <point x="442" y="517" type="line"/>
      <point x="149" y="262" type="line"/>
      <point x="185" y="247" type="line"/>
      <point x="248" y="517" type="line"/>
      <point x="140" y="517" type="line"/>
    </contour>
  </outline>
</glyph>
<glyph name="lambda" format="1">
  <advance width="574"/>
  <unicode hex="03BB"/>
  <outline>
    <contour>
      <point x="-39" y="2" type="line"/>
      <point x="74" y="2" type="line"/>
      <point x="317" y="391" type="line"/>
      <point x="382" y="2" type="line"/>
      <point x="495" y="2" type="line"/>
      <point x="368" y="679" type="line"/>
      <point x="265" y="679" type="line"/>
      <point x="300" y="460" type="line"/>
      <point x="319" y="569" type="line"/>
    </contour>
  </outline>
</glyph>
<glyph name="mu" format="1">
  <advance width="629"/>
  <unicode hex="03BC"/>
  <outline>
    <contour>
      <point x="-30" y="-216" type="line"/>
      <point x="78" y="-216" type="line"/>
      <point x="140" y="49" type="line"/>
      <point x="150" y="15"/>
      <point x="194" y="-1"/>
      <point x="230" y="-1" type="curve" smooth="yes"/>
      <point x="347" y="-1"/>
      <point x="393" y="68"/>
      <point x="399" y="78" type="curve"/>
      <point x="381" y="0" type="line"/>
      <point x="489" y="0" type="line"/>
      <point x="609" y="517" type="line"/>
      <point x="501" y="517" type="line"/>
      <point x="437" y="241" type="line" smooth="yes"/>
      <point x="417" y="153"/>
      <point x="368" y="95"/>
      <point x="276" y="95" type="curve" smooth="yes"/>
      <point x="185" y="95"/>
      <point x="165" y="158"/>
      <point x="184" y="241" type="curve" smooth="yes"/>
      <point x="248" y="517" type="line"/>
      <point x="140" y="517" type="line"/>
    </contour>
  </outline>
</glyph>
<glyph name="nu" format="1">
  <advance width="538"/>
  <unicode hex="03BD"/>
  <outline>
    <contour>
      <point x="165" y="0" type="line"/>
      <point x="253" y="0" type="line"/>
      <point x="577" y="515" type="line"/>
      <point x="455" y="515" type="line"/>
      <point x="199" y="104" type="line"/>
      <point x="247" y="98" type="line"/>
      <point x="189" y="515" type="line"/>
      <point x="79" y="515" type="line"/>
    </contour>
  </outline>
</glyph>
<glyph name="xi" format="1">
  <advance width="487"/>
  <unicode hex="03BE"/>
  <outline>
    <contour>
      <point x="230" y="-216" type="line"/>
      <point x="337" y="-216" type="line"/>
      <point x="412" y="105" type="line"/>
      <point x="381" y="92"/>
      <point x="300" y="80"/>
      <point x="236" y="80" type="curve" smooth="yes"/>
      <point x="147" y="80"/>
      <point x="121" y="128"/>
      <point x="134" y="186" type="curve" smooth="yes"/>
      <point x="152" y="261"/>
      <point x="210" y="310"/>
      <point x="320" y="310" type="curve" smooth="yes"/>
      <point x="389" y="310" type="line"/>
      <point x="409" y="398" type="line"/>
      <point x="347" y="398" type="line" smooth="yes"/>
      <point x="263" y="398"/>
      <point x="237" y="458"/>
      <point x="251" y="517" type="curve" smooth="yes"/>
      <point x="262" y="568"/>
      <point x="305" y="603"/>
      <point x="370" y="603" type="curve" smooth="yes"/>
      <point x="436" y="603"/>
      <point x="463" y="572"/>
      <point x="491" y="549" type="curve"/>
      <point x="513" y="646" type="line"/>
      <point x="487" y="673"/>
      <point x="454" y="694"/>
      <point x="378" y="694" type="curve" smooth="yes"/>
      <point x="257" y="694"/>
      <point x="167" y="612"/>
      <point x="145" y="520" type="curve" smooth="yes"/>
      <point x="127" y="442"/>
      <point x="172" y="380"/>
      <point x="222" y="364" type="curve"/>
      <point x="140" y="347"/>
      <point x="45" y="282"/>
      <point x="23" y="187" type="curve" smooth="yes"/>
      <point x="-3" y="71"/>
      <point x="58" y="-16"/>
      <point x="214" y="-16" type="curve" smooth="yes"/>
      <point x="235" y="-16"/>
      <point x="256" y="-14"/>
      <point x="278" y="-11" type="curve"/>
    </contour>
  </outline>
</glyph>
<glyph name="omicron" format="1">
  <advance width="646"/>
  <unicode hex="03BF"/>
  <outline>
    <contour>
      <point x="260" y="-15" type="curve" smooth="yes"/>
      <point x="417" y="-15"/>
      <point x="571" y="107"/>
      <point x="606" y="258" type="curve" smooth="yes"/>
      <point x="641" y="409"/>
      <point x="543" y="532"/>
      <point x="386" y="532" type="curve" smooth="yes"/>
      <point x="229" y="532"/>
      <point x="75" y="409"/>
      <point x="40" y="258" type="curve" smooth="yes"/>
      <point x="5" y="107"/>
      <point x="103" y="-15"/>
    </contour>
    <contour>
      <point x="282" y="82" type="curve" smooth="yes"/>
      <point x="180" y="82"/>
      <point x="124" y="161"/>
      <point x="147" y="258" type="curve" smooth="yes"/>
      <point x="170" y="356"/>
      <point x="262" y="435"/>
      <point x="364" y="435" type="curve" smooth="yes"/>
      <point x="466" y="435"/>
      <point x="522" y="356"/>
      <point x="499" y="258" type="curve" smooth="yes"/>
      <point x="476" y="161"/>
      <point x="384" y="82"/>
    </contour>
    <contour>
      <point x="382" y="516" type="move" name="top"/>
    </contour>
  </outline>
</glyph>
<glyph name="pi" format="1">
  <advance width="650"/>
  <unicode hex="03C0"/>
  <outline>
    <contour>
      <point x="91" y="0" type="line"/>
      <point x="199" y="0" type="line"/>
      <point x="298" y="429" type="line"/>
      <point x="433" y="429" type="line"/>
      <point x="334" y="0" type="line"/>
      <point x="442" y="0" type="line"/>
      <point x="541" y="429" type="line"/>
      <point x="649" y="429" type="line"/>
      <point x="670" y="517" type="line"/>
      <point x="100" y="517" type="line"/>
      <point x="79" y="429" type="line"/>
      <point x="190" y="429" type="line"/>
    </contour>
  </outline>
</glyph>
<glyph name="rho" format="1">
  <advance width="662"/>
  <unicode hex="03C1"/>
  <outline>
    <contour>
      <point x="-40" y="-216" type="line"/>
      <point x="68" y="-216" type="line"/>
      <point x="131" y="57" type="line"/>
      <point x="161" y="-1"/>
      <point x="233" y="-15"/>
      <point x="289" y="-15" type="curve" smooth="yes"/>
      <point x="447" y="-15"/>
      <point x="587" y="108"/>
      <point x="622" y="259" type="curve" smooth="yes"/>
      <point x="657" y="410"/>
      <point x="568" y="532"/>
      <point x="416" y="532" type="curve" smooth="yes"/>
      <point x="237" y="532"/>
      <point x="105" y="412"/>
      <point x="66" y="241" type="curve" smooth="yes"/>
    </contour>
    <contour>
      <point x="314" y="81" type="curve" smooth="yes"/>
      <point x="217" y="81"/>
      <point x="149" y="146"/>
      <point x="175" y="259" type="curve" smooth="yes"/>
      <point x="201" y="371"/>
      <point x="299" y="436"/>
      <point x="396" y="436" type="curve" smooth="yes"/>
      <point x="492" y="436"/>
      <point x="537" y="357"/>
      <point x="514" y="259" type="curve" smooth="yes"/>
      <point x="491" y="161"/>
      <point x="410" y="81"/>
    </contour>
  </outline>
</glyph>
<glyph name="sigmafinal" format="1">
  <advance width="538"/>
  <unicode hex="03C2"/>
  <outline>
    <contour>
      <point x="134" y="-224" type="line"/>
      <point x="286" y="-224"/>
      <point x="396" y="-185"/>
      <point x="422" y="-72" type="curve" smooth="yes"/>
      <point x="446" y="35"/>
      <point x="361" y="80"/>
      <point x="262" y="80" type="curve" smooth="yes"/>
      <point x="167" y="80"/>
      <point x="123" y="152"/>
      <point x="148" y="258" type="curve" smooth="yes"/>
      <point x="171" y="356"/>
      <point x="262" y="437"/>
      <point x="364" y="437" type="curve" smooth="yes"/>
      <point x="429" y="437"/>
      <point x="472" y="415"/>
      <point x="498" y="394" type="curve"/>
      <point x="522" y="498" type="line"/>
      <point x="485" y="521"/>
      <point x="434" y="532"/>
      <point x="386" y="532" type="curve" smooth="yes"/>
      <point x="218" y="532"/>
      <point x="75" y="409"/>
      <point x="40" y="258" type="curve" smooth="yes"/>
      <point x="5" y="107"/>
      <point x="66" y="-15"/>
      <point x="240" y="-15" type="curve" smooth="yes"/>
      <point x="296" y="-15"/>
      <point x="326" y="-30"/>
      <point x="318" y="-68" type="curve" smooth="yes"/>
      <point x="306" y="-120"/>
      <point x="245" y="-128"/>
      <point x="156" y="-128" type="curve"/>
    </contour>
  </outline>
</glyph>
<glyph name="sigma" format="1">
  <advance width="670"/>
  <unicode hex="03C3"/>
  <outline>
    <contour>
      <point x="254" y="-15" type="curve" smooth="yes"/>
      <point x="419" y="-15"/>
      <point x="557" y="100"/>
      <point x="592" y="251" type="curve" smooth="yes"/>
      <point x="604" y="302"/>
      <point x="610" y="405"/>
      <point x="528" y="429" type="curve"/>
      <point x="659" y="429" type="line"/>
      <point x="680" y="517" type="line"/>
      <point x="381" y="517" type="line" smooth="yes"/>
      <point x="177" y="517"/>
      <point x="66" y="370"/>
      <point x="38" y="251" type="curve" smooth="yes"/>
      <point x="3" y="100"/>
      <point x="90" y="-15"/>
    </contour>
    <contour>
      <point x="276" y="82" type="curve" smooth="yes"/>
      <point x="167" y="82"/>
      <point x="123" y="154"/>
      <point x="145" y="251" type="curve" smooth="yes"/>
      <point x="168" y="349"/>
      <point x="244" y="421"/>
      <point x="355" y="421" type="curve" smooth="yes"/>
      <point x="457" y="421"/>
      <point x="509" y="349"/>
      <point x="486" y="251" type="curve" smooth="yes"/>
      <point x="464" y="154"/>
      <point x="386" y="82"/>
    </contour>
  </outline>
</glyph>
<glyph name="tau" format="1">
  <advance width="561"/>
  <unicode hex="03C4"/>
  <outline>
    <contour>
      <point x="168" y="0" type="line"/>
      <point x="276" y="0" type="line"/>
      <point x="375" y="429" type="line"/>
      <point x="560" y="429" type="line"/>
      <point x="581" y="517" type="line"/>
      <point x="100" y="517" type="line"/>
      <point x="79" y="429" type="line"/>
      <point x="267" y="429" type="line"/>
    </contour>
  </outline>
</glyph>
<glyph name="upsilon" format="1">
  <advance width="610"/>
  <unicode hex="03C5"/>
  <outline>
    <contour>
      <point x="242" y="-16" type="curve" smooth="yes"/>
      <point x="307" y="-16"/>
      <point x="478" y="-11"/>
      <point x="529" y="209" type="curve" smooth="yes"/>
      <point x="600" y="517" type="line"/>
      <point x="492" y="517" type="line"/>
      <point x="419" y="204" type="line" smooth="yes"/>
      <point x="415" y="186"/>
      <point x="386" y="79"/>
      <point x="264" y="79" type="curve" smooth="yes"/>
      <point x="142" y="79"/>
      <point x="161" y="186"/>
      <point x="165" y="204" type="curve" smooth="yes"/>
      <point x="238" y="517" type="line"/>
      <point x="130" y="517" type="line"/>
      <point x="59" y="209" type="line" smooth="yes"/>
      <point x="8" y="-11"/>
      <point x="177" y="-16"/>
    </contour>
    <contour>
      <point x="364" y="516" type="move" name="top"/>
    </contour>
  </outline>
</glyph>
<glyph name="phi" format="1">
  <advance width="744"/>
  <unicode hex="03C6"/>
  <outline>
    <contour>
      <point x="207" y="-216" type="line"/>
      <point x="315" y="-216" type="line"/>
      <point x="362" y="-15" type="line"/>
      <point x="503" y="-13"/>
      <point x="667" y="100"/>
      <point x="702" y="249" type="curve" smooth="yes"/>
      <point x="736" y="399"/>
      <point x="651" y="518"/>
      <point x="481" y="518" type="curve" smooth="yes"/>
      <point x="427" y="518"/>
      <point x="376" y="515"/>
      <point x="376" y="515" type="curve"/>
      <point x="276" y="82" type="line"/>
      <point x="178" y="85"/>
      <point x="123" y="155"/>
      <point x="145" y="250" type="curve" smooth="yes"/>
      <point x="165" y="338"/>
      <point x="221" y="387"/>
      <point x="297" y="413" type="curve"/>
      <point x="319" y="508" type="line"/>
      <point x="190" y="480"/>
      <point x="70" y="387"/>
      <point x="38" y="250" type="curve" smooth="yes"/>
      <point x="4" y="101"/>
      <point x="101" y="-12"/>
      <point x="254" y="-15" type="curve"/>
    </contour>
    <contour>
      <point x="384" y="82" type="curve"/>
      <point x="465" y="430" type="line"/>
      <point x="564" y="428"/>
      <point x="622" y="368"/>
      <point x="595" y="250" type="curve" smooth="yes"/>
      <point x="573" y="154"/>
      <point x="485" y="84"/>
    </contour>
  </outline>
</glyph>
<glyph name="chi" format="1">
  <advance width="525"/>
  <unicode hex="03C7"/>
  <outline>
    <contour>
      <point x="-110" y="-216" type="line"/>
      <point x="18" y="-216" type="line"/>
      <point x="261" y="130" type="line"/>
      <point x="212" y="137" type="line"/>
      <point x="297" y="-216" type="line"/>
      <point x="415" y="-216" type="line"/>
      <point x="312" y="178" type="line"/>
      <point x="552" y="517" type="line"/>
      <point x="424" y="517" type="line"/>
      <point x="231" y="229" type="line"/>
      <point x="279" y="222" type="line"/>
      <point x="210" y="517" type="line"/>
      <point x="93" y="517" type="line"/>
      <point x="177" y="184" type="line"/>
    </contour>
  </outline>
</glyph>
<glyph name="psi" format="1">
  <advance width="717"/>
  <unicode hex="03C8"/>
  <outline>
    <contour>
      <point x="195" y="-216" type="line"/>
      <point x="303" y="-216" type="line"/>
      <point x="350" y="-16" type="line"/>
      <point x="415" y="-16"/>
      <point x="589" y="6"/>
      <point x="636" y="209" type="curve" smooth="yes"/>
      <point x="707" y="517" type="line"/>
      <point x="599" y="517" type="line"/>
      <point x="527" y="206" type="line" smooth="yes"/>
      <point x="509" y="129"/>
      <point x="446" y="81"/>
      <point x="372" y="79" type="curve"/>
      <point x="473" y="517" type="line"/>
      <point x="365" y="517" type="line"/>
      <point x="264" y="79" type="line"/>
      <point x="142" y="79"/>
      <point x="161" y="186"/>
      <point x="165" y="204" type="curve" smooth="yes"/>
      <point x="238" y="517" type="line"/>
      <point x="130" y="517" type="line"/>
      <point x="59" y="209" type="line" smooth="yes"/>
      <point x="11" y="5"/>
      <point x="177" y="-16"/>
      <point x="242" y="-16" type="curve"/>
    </contour>
  </outline>
</glyph>
<glyph name="omega" format="1">
  <advance width="682"/>
  <unicode hex="03C9"/>
  <outline>
    <contour>
      <point x="145" y="-16" type="curve" smooth="yes"/>
      <point x="213" y="-16"/>
      <point x="270" y="29"/>
      <point x="300" y="81" type="curve"/>
      <point x="306" y="29"/>
      <point x="343" y="-16"/>
      <point x="411" y="-16" type="curve" smooth="yes"/>
      <point x="511" y="-16"/>
      <point x="604" y="96"/>
      <point x="651" y="297" type="curve" smooth="yes"/>
      <point x="680" y="425"/>
      <point x="667" y="517"/>
      <point x="667" y="517" type="curve" smooth="yes"/>
      <point x="563" y="517" type="line"/>
      <point x="564" y="466"/>
      <point x="562" y="383"/>
      <point x="541" y="294" type="curve" smooth="yes"/>
      <point x="521" y="205"/>
      <point x="482" y="79"/>
      <point x="422" y="79" type="curve" smooth="yes"/>
      <point x="375" y="79"/>
      <point x="363" y="118"/>
      <point x="385" y="215" type="curve" smooth="yes"/>
      <point x="427" y="399" type="line"/>
      <point x="319" y="399" type="line"/>
      <point x="277" y="215" type="line" smooth="yes"/>
      <point x="255" y="118"/>
      <point x="225" y="79"/>
      <point x="178" y="79" type="curve" smooth="yes"/>
      <point x="118" y="79"/>
      <point x="137" y="205"/>
      <point x="157" y="294" type="curve" smooth="yes"/>
      <point x="178" y="383"/>
      <point x="214" y="466"/>
      <point x="239" y="517" type="curve"/>
      <point x="135" y="517" type="line" smooth="yes"/>
      <point x="135" y="517"/>
      <point x="78" y="425"/>
      <point x="49" y="297" type="curve" smooth="yes"/>
      <point x="2" y="96"/>
      <point x="45" y="-16"/>
    </contour>
    <contour>
      <point x="400" y="516" type="move" name="top"/>
    </contour>
  </outline>
</glyph>
<glyph name="Dje-cy" format="1">
  <advance width="810"/>
  <unicode hex="0402"/>
  <outline>
    <contour>
      <point x="441" y="-15" type="line"/>
      <point x="598" y="-15"/>
      <point x="733" y="100"/>
      <point x="766" y="242" type="curve" smooth="yes"/>
      <point x="799" y="384"/>
      <point x="707" y="500"/>
      <point x="560" y="500" type="curve" smooth="yes"/>
      <point x="497" y="500"/>
      <point x="443" y="480"/>
      <point x="398" y="448" type="curve"/>
      <point x="430" y="589" type="line"/>
      <point x="637" y="589" type="line"/>
      <point x="658" y="679" type="line"/>
      <point x="137" y="679" type="line"/>
      <point x="116" y="589" type="line"/>
      <point x="321" y="589" type="line"/>
      <point x="230" y="192" type="line"/>
      <point x="226" y="181"/>
      <point x="224" y="170"/>
      <point x="221" y="160" type="curve"/>
      <point x="222" y="161" type="line"/>
      <point x="185" y="0" type="line"/>
      <point x="294" y="0" type="line"/>
      <point x="354" y="260" type="line"/>
      <point x="356" y="261" type="line"/>
      <point x="375" y="344"/>
      <point x="452" y="397"/>
      <point x="536" y="397" type="curve" smooth="yes"/>
      <point x="620" y="397"/>
      <point x="669" y="331"/>
      <point x="650" y="251" type="curve" smooth="yes"/>
      <point x="629" y="161"/>
      <point x="560" y="95"/>
      <point x="466" y="95" type="curve"/>
    </contour>
  </outline>
</glyph>
<glyph name="E-cy" format="1">
  <advance width="694"/>
  <unicode hex="0404"/>
  <outline>
    <contour>
      <point x="352" y="-15" type="curve" smooth="yes"/>
      <point x="432" y="-15"/>
      <point x="525" y="3"/>
      <point x="605" y="46" type="curve"/>
      <point x="632" y="163" type="line"/>
      <point x="618" y="152"/>
      <point x="518" y="88"/>
      <point x="376" y="88" type="curve" smooth="yes"/>
      <point x="220" y="88"/>
      <point x="150" y="184"/>
      <point x="167" y="311" type="curve"/>
      <point x="489" y="311" type="line"/>
      <point x="514" y="417" type="line"/>
      <point x="201" y="417" type="line"/>
      <point x="252" y="519"/>
      <point x="357" y="592"/>
      <point x="492" y="592" type="curve" smooth="yes"/>
      <point x="634" y="592"/>
      <point x="687" y="528"/>
      <point x="696" y="517" type="curve"/>
      <point x="723" y="634"/>
      <point x="723" y="635"/>
      <point x="722" y="635" type="curve"/>
      <point x="714" y="642"/>
      <point x="648" y="695"/>
      <point x="516" y="695" type="curve" smooth="yes"/>
      <point x="287" y="695"/>
      <point x="104" y="536"/>
      <point x="59" y="340" type="curve" smooth="yes"/>
      <point x="14" y="144"/>
      <point x="123" y="-15"/>
    </contour>
  </outline>
</glyph>
<glyph name="Yi-cy" format="1">
  <advance width="289"/>
  <unicode hex="0407"/>
  <outline>
    <component base="I"/>
    <component base="dieresiscomb" xOffset="4" yOffset="162"/>
    <contour>
      <point x="145" y="679" type="move" name="top"/>
    </contour>
  </outline>
</glyph>
<glyph name="Je-cy" format="1">
  <advance width="566"/>
  <unicode hex="0408"/>
  <outline>
    <contour>
      <point x="165" y="-15" type="curve" smooth="yes"/>
      <point x="305" y="-15"/>
      <point x="431" y="64"/>
      <point x="469" y="229" type="curve" smooth="yes"/>
      <point x="573" y="679" type="line"/>
      <point x="464" y="679" type="line"/>
      <point x="360" y="227" type="line" smooth="yes"/>
      <point x="332" y="106"/>
      <point x="254" y="88"/>
      <point x="174" y="88" type="curve" smooth="yes"/>
      <point x="94" y="88"/>
      <point x="13" y="142"/>
      <point x="13" y="142" type="curve"/>
      <point x="-11" y="38" type="line"/>
      <point x="-11" y="38"/>
      <point x="55" y="-15"/>
    </contour>
  </outline>
</glyph>
<glyph name="Lje-cy" format="1">
  <advance width="988"/>
  <unicode hex="0409"/>
  <outline>
    <contour>
      <point x="-59" y="0" type="line"/>
      <point x="68" y="0" type="line"/>
      <point x="617" y="679" type="line"/>
      <point x="500" y="679" type="line"/>
    </contour>
    <component base="Softsign-cy" xOffset="322"/>
    <contour>
      <point x="732" y="1" type="move" name="ogonek"/>
    </contour>
    <contour>
      <point x="374" y="679" type="move" name="top"/>
    </contour>
  </outline>
</glyph>
<glyph name="Tshe-cy" format="1">
  <advance width="770"/>
  <unicode hex="040B"/>
  <outline>
    <contour>
      <point x="145" y="0" type="line"/>
      <point x="254" y="0" type="line"/>
      <point x="314" y="260" type="line"/>
      <point x="316" y="261" type="line"/>
      <point x="335" y="344"/>
      <point x="422" y="397"/>
      <point x="506" y="397" type="curve" smooth="yes"/>
      <point x="590" y="397"/>
      <point x="631" y="341"/>
      <point x="613" y="261" type="curve" smooth="yes"/>
      <point x="552" y="0" type="line"/>
      <point x="670" y="0" type="line"/>
      <point x="733" y="272" type="line" smooth="yes"/>
      <point x="766" y="414"/>
      <point x="687" y="500"/>
      <point x="540" y="500" type="curve" smooth="yes"/>
      <point x="468" y="500"/>
      <point x="406" y="476"/>
      <point x="356" y="439" type="curve"/>
      <point x="390" y="589" type="line"/>
      <point x="597" y="589" type="line"/>
      <point x="618" y="679" type="line"/>
      <point x="97" y="679" type="line"/>
      <point x="76" y="589" type="line"/>
      <point x="281" y="589" type="line"/>
      <point x="189" y="189" type="line"/>
      <point x="186" y="179"/>
      <point x="184" y="170"/>
      <point x="181" y="160" type="curve"/>
      <point x="182" y="161" type="line"/>
    </contour>
    <contour>
      <point x="376" y="633" type="move" name="_center"/>
    </contour>
  </outline>
</glyph>
<glyph name="Dzhe-cy" format="1">
  <advance width="743"/>
  <unicode hex="040F"/>
  <outline>
    <contour>
      <point x="30" y="0" type="line"/>
      <point x="593" y="0" type="line"/>
      <point x="750" y="679" type="line"/>
      <point x="642" y="679" type="line"/>
      <point x="509" y="102" type="line"/>
      <point x="162" y="102" type="line"/>
      <point x="295" y="679" type="line"/>
      <point x="187" y="679" type="line"/>
    </contour>
    <component base="upturn" yxScale="0.231" xOffset="268" yOffset="47"/>
  </outline>
</glyph>
<glyph name="Be-cy" format="1">
  <advance width="666"/>
  <unicode hex="0411"/>
  <outline>
    <contour>
      <point x="30" y="0" type="line"/>
      <point x="326" y="0" type="line" smooth="yes"/>
      <point x="460" y="0"/>
      <point x="581" y="63"/>
      <point x="614" y="206" type="curve" smooth="yes"/>
      <point x="647" y="349"/>
      <point x="563" y="408"/>
      <point x="421" y="408" type="curve" smooth="yes"/>
      <point x="232" y="408" type="line"/>
      <point x="271" y="577" type="line"/>
      <point x="611" y="577" type="line"/>
      <point x="634" y="679" type="line"/>
      <point x="187" y="679" type="line"/>
    </contour>
    <contour>
      <point x="161" y="102" type="line"/>
      <point x="209" y="311" type="line"/>
      <point x="390" y="311" type="line" smooth="yes"/>
      <point x="446" y="311"/>
      <point x="520" y="299"/>
      <point x="499" y="208" type="curve" smooth="yes"/>
      <point x="478" y="117"/>
      <point x="398" y="102"/>
      <point x="342" y="102" type="curve" smooth="yes"/>
    </contour>
  </outline>
</glyph>
<glyph name="Ge-cy" format="1">
  <advance width="631"/>
  <unicode hex="0413"/>
  <outline>
    <contour>
      <point x="30" y="0" type="line"/>
      <point x="138" y="0" type="line"/>
      <point x="272" y="577" type="line"/>
      <point x="668" y="577" type="line"/>
      <point x="691" y="679" type="line"/>
      <point x="187" y="679" type="line"/>
    </contour>
    <contour>
      <point x="428" y="679" type="move" name="top"/>
    </contour>
  </outline>
</glyph>
<glyph name="De-cy" format="1">
  <advance width="777"/>
  <unicode hex="0414"/>
  <outline>
    <contour>
      <point x="-34" y="-125" type="line"/>
      <point x="75" y="-125" type="line"/>
      <point x="104" y="0" type="line"/>
      <point x="553" y="0" type="line"/>
      <point x="524" y="-125" type="line"/>
      <point x="633" y="-125" type="line"/>
      <point x="686" y="102" type="line"/>
      <point x="604" y="102" type="line"/>
      <point x="737" y="679" type="line"/>
      <point x="271" y="679" type="line"/>
      <point x="205" y="394"/>
      <point x="138" y="230"/>
      <point x="85" y="102" type="curve"/>
      <point x="19" y="102" type="line"/>
    </contour>
    <contour>
      <point x="199" y="102" type="line"/>
      <point x="261" y="257"/>
      <point x="303" y="362"/>
      <point x="360" y="577" type="curve"/>
      <point x="605" y="577" type="line"/>
      <point x="495" y="102" type="line"/>
    </contour>
  </outline>
</glyph>
<glyph name="Zhe-cy" format="1">
  <advance width="765"/>
  <unicode hex="0416"/>
  <outline>
    <contour>
      <point x="-51" y="0" type="line"/>
      <point x="81" y="0" type="line"/>
      <point x="353" y="348" type="line"/>
      <point x="272" y="0" type="line"/>
      <point x="382" y="0" type="line"/>
      <point x="463" y="348" type="line"/>
      <point x="587" y="0" type="line"/>
      <point x="704" y="0" type="line"/>
      <point x="552" y="418" type="line"/>
      <point x="541" y="327" type="line"/>
      <point x="864" y="679" type="line"/>
      <point x="730" y="679" type="line"/>
      <point x="470" y="380" type="line"/>
      <point x="539" y="679" type="line"/>
      <point x="431" y="679" type="line"/>
      <point x="362" y="380" type="line"/>
      <point x="226" y="679" type="line"/>
      <point x="106" y="679" type="line"/>
      <point x="284" y="321" type="line"/>
      <point x="268" y="402" type="line"/>
    </contour>
  </outline>
</glyph>
<glyph name="Ze-cy" format="1">
  <advance width="610"/>
  <unicode hex="0417"/>
  <outline>
    <contour>
      <point x="231" y="-15" type="curve" smooth="yes"/>
      <point x="416" y="-15"/>
      <point x="528" y="78"/>
      <point x="555" y="193" type="curve" smooth="yes"/>
      <point x="577" y="289"/>
      <point x="523" y="351"/>
      <point x="431" y="365" type="curve"/>
      <point x="495" y="379"/>
      <point x="573" y="442"/>
      <point x="594" y="530" type="curve" smooth="yes"/>
      <point x="617" y="630"/>
      <point x="551" y="695"/>
      <point x="395" y="695" type="curve" smooth="yes"/>
      <point x="300" y="695"/>
      <point x="209" y="668"/>
      <point x="163" y="650" type="curve"/>
      <point x="139" y="545" type="line"/>
      <point x="181" y="566"/>
      <point x="289" y="595"/>
      <point x="359" y="595" type="curve" smooth="yes"/>
      <point x="469" y="595"/>
      <point x="492" y="553"/>
      <point x="480" y="503" type="curve" smooth="yes"/>
      <point x="466" y="442"/>
      <point x="402" y="407"/>
      <point x="309" y="407" type="curve" smooth="yes"/>
      <point x="197" y="407" type="line"/>
      <point x="175" y="309" type="line"/>
      <point x="301" y="309" type="line" smooth="yes"/>
      <point x="411" y="309"/>
      <point x="456" y="252"/>
      <point x="443" y="193" type="curve" smooth="yes"/>
      <point x="429" y="135"/>
      <point x="372" y="85"/>
      <point x="254" y="85" type="curve" smooth="yes"/>
      <point x="174" y="85"/>
      <point x="83" y="111"/>
      <point x="35" y="152" type="curve"/>
      <point x="10" y="44" type="line"/>
      <point x="49" y="7"/>
      <point x="155" y="-15"/>
    </contour>
  </outline>
</glyph>
<glyph name="Ii-cy" format="1">
  <advance width="757"/>
  <unicode hex="0418"/>
  <outline>
    <contour>
      <point x="30" y="0" type="line"/>
      <point x="147" y="0" type="line"/>
      <point x="663" y="560" type="line"/>
      <point x="631" y="571" type="line"/>
      <point x="499" y="0" type="line"/>
      <point x="607" y="0" type="line"/>
      <point x="764" y="679" type="line"/>
      <point x="646" y="679" type="line"/>
      <point x="133" y="128" type="line"/>
      <point x="165" y="117" type="line"/>
      <point x="295" y="679" type="line"/>
      <point x="187" y="679" type="line"/>
    </contour>
    <contour>
      <point x="476" y="679" type="move" name="top"/>
    </contour>
  </outline>
</glyph>
<glyph name="Ka-cy" format="1">
  <advance width="696"/>
  <unicode hex="041A"/>
  <outline>
    <contour>
      <point x="30" y="0" type="line"/>
      <point x="142" y="0" type="line"/>
      <point x="229" y="374" type="line"/>
      <point x="191" y="365" type="line"/>
      <point x="484" y="0" type="line"/>
      <point x="618" y="0" type="line"/>
      <point x="301" y="404" type="line"/>
      <point x="308" y="337" type="line"/>
      <point x="760" y="679" type="line"/>
      <point x="604" y="679" type="line"/>
      <point x="195" y="368" type="line"/>
      <point x="223" y="350" type="line"/>
      <point x="299" y="679" type="line"/>
      <point x="187" y="679" type="line"/>
    </contour>
    <contour>
      <point x="428" y="679" type="move" name="top"/>
    </contour>
  </outline>
</glyph>
<glyph name="El-cy" format="1">
  <advance width="750"/>
  <unicode hex="041B"/>
  <outline>
    <contour>
      <point x="-39" y="0" type="line"/>
      <point x="89" y="0" type="line"/>
      <point x="227" y="202" type="line"/>
      <point x="485" y="593" type="line"/>
      <point x="433" y="600" type="line"/>
      <point x="514" y="161" type="line"/>
      <point x="542" y="0" type="line"/>
      <point x="669" y="0" type="line"/>
      <point x="524" y="679" type="line"/>
      <point x="419" y="679" type="line"/>
    </contour>
    <contour>
      <point x="673" y="1" type="move" name="ogonek"/>
    </contour>
    <contour>
      <point x="471" y="679" type="move" name="top"/>
    </contour>
  </outline>
</glyph>
<glyph name="Pe-cy" format="1">
  <advance width="728"/>
  <unicode hex="041F"/>
  <outline>
    <contour>
      <point x="30" y="0" type="line"/>
      <point x="138" y="0" type="line"/>
      <point x="272" y="577" type="line"/>
      <point x="604" y="577" type="line"/>
      <point x="470" y="0" type="line"/>
      <point x="578" y="0" type="line"/>
      <point x="735" y="679" type="line"/>
      <point x="187" y="679" type="line"/>
    </contour>
  </outline>
</glyph>
<glyph name="U-cy" format="1">
  <advance width="636"/>
  <unicode hex="0423"/>
  <outline>
    <contour>
      <point x="150" y="-15" type="curve" smooth="yes"/>
      <point x="250" y="-15"/>
      <point x="298" y="26"/>
      <point x="383" y="159" type="curve" smooth="yes"/>
      <point x="713" y="679" type="line"/>
      <point x="585" y="679" type="line" smooth="yes"/>
      <point x="585" y="679"/>
      <point x="428" y="422"/>
      <point x="318" y="248" type="curve"/>
      <point x="361" y="236" type="line"/>
      <point x="232" y="679" type="line"/>
      <point x="117" y="679" type="line"/>
      <point x="287" y="112" type="line"/>
      <point x="277" y="180" type="line"/>
      <point x="257" y="147"/>
      <point x="234" y="88"/>
      <point x="163" y="88" type="curve" smooth="yes"/>
      <point x="109" y="88"/>
      <point x="71" y="126"/>
      <point x="71" y="126" type="curve"/>
      <point x="48" y="23" type="line"/>
      <point x="48" y="23"/>
      <point x="89" y="-15"/>
    </contour>
    <contour>
      <point x="398" y="679" type="move" name="top"/>
    </contour>
  </outline>
</glyph>
<glyph name="Ef-cy" format="1">
  <advance width="793"/>
  <unicode hex="0424"/>
  <outline>
    <contour>
      <point x="256" y="-125" type="line"/>
      <point x="358" y="-125" type="line"/>
      <point x="385" y="-12" type="line"/>
      <point x="575" y="11"/>
      <point x="730" y="160"/>
      <point x="772" y="340" type="curve" smooth="yes"/>
      <point x="817" y="536"/>
      <point x="710" y="695"/>
      <point x="497" y="695" type="curve" smooth="yes"/>
      <point x="284" y="695"/>
      <point x="104" y="536"/>
      <point x="59" y="340" type="curve" smooth="yes"/>
      <point x="17" y="160"/>
      <point x="103" y="11"/>
      <point x="283" y="-12" type="curve"/>
    </contour>
    <contour>
      <point x="307" y="92" type="line"/>
      <point x="191" y="114"/>
      <point x="142" y="216"/>
      <point x="171" y="340" type="curve" smooth="yes"/>
      <point x="200" y="465"/>
      <point x="295" y="566"/>
      <point x="421" y="588" type="curve"/>
    </contour>
    <contour>
      <point x="409" y="92" type="curve"/>
      <point x="523" y="588" type="line"/>
      <point x="639" y="566"/>
      <point x="688" y="465"/>
      <point x="659" y="340" type="curve" smooth="yes"/>
      <point x="630" y="216"/>
      <point x="535" y="114"/>
    </contour>
  </outline>
</glyph>
